<svg xmlns="http://www.w3.org/2000/svg" viewBox="0 0 128 128"><g fill="#A4C639" stroke="#FFF" stroke-width="14.4"><ellipse cx="64.5" cy="42.2" rx="31.8" ry="29.4"/><path d="M40.4 34.9h48.3c4.2 0 7.7 3.4 7.7 7.7v48.3c0 4.2-3.4 7.7-7.7 7.7H40.4c-4.2 0-7.7-3.4-7.7-7.7V42.6c0-4.3 3.5-7.7 7.7-7.7z"/></g><path fill="#A4C639" stroke="#FFF" stroke-width="7.2" d="M43.7 5.1c-1.1.6-1.5 2-.9 3.1l12.4 22.3c.6 1.1 2 1.5 3.1.9s1.5-2 .9-3.1L46.8 5.9c-.6-1-2-1.4-3.1-.8zM106.2 42.2c-4.6 0-8.4 3.8-8.4 8.4v29.7c0 4.6 3.8 8.4 8.4 8.4 4.6 0 8.4-3.8 8.4-8.4V50.6c0-4.6-3.8-8.4-8.4-8.4zM77 76.2c4.6 0 8.4 3.8 8.4 8.4v29.7c0 4.6-3.8 8.4-8.4 8.4-4.6 0-8.4-3.8-8.4-8.4V84.5c0-4.6 3.7-8.3 8.4-8.3z"/><g><path fill="#A4C639" stroke="#FFF" stroke-width="7.2" d="M85.4 5.1c1.1.6 1.5 2 .9 3.1L73.9 30.5c-.6 1.1-2 1.5-3.1.9s-1.5-2-.9-3.1L82.3 5.9c.6-1 2-1.4 3.1-.8zM22.9 42.2c4.6 0 8.4 3.8 8.4 8.4v29.7c0 4.6-3.8 8.4-8.4 8.4-4.6 0-8.4-3.8-8.4-8.4V50.6c0-4.6 3.8-8.4 8.4-8.4zM52.7 76.2c4.6 0 8.4 3.8 8.4 8.4v29.7c0 4.6-3.8 8.4-8.4 8.4-4.6 0-8.4-3.8-8.4-8.4V84.5c0-4.6 3.7-8.3 8.4-8.3z"/></g><g fill="#A4C639"><ellipse cx="64.5" cy="42.2" rx="31.8" ry="29.4"/><path d="M40.4 34.9h48.3c4.2 0 7.7 3.4 7.7 7.7v48.3c0 4.2-3.4 7.7-7.7 7.7H40.4c-4.2 0-7.7-3.4-7.7-7.7V42.6c0-4.3 3.5-7.7 7.7-7.7z"/></g><g fill="#FFF" stroke="#FFF" stroke-width="7.2"><path d="M31.3 43.5h66.4"/><circle cx="49.9" cy="27.9" r="1.4"/><circle cx="79.2" cy="27.9" r="1.4"/></g></svg>