<svg width="170" height="170" xmlns="http://www.w3.org/2000/svg"><title>Layer 1</title><path d="M127.806 90.003c.225 24.213 21.241 32.27 21.474 32.374-.178.568-3.358 11.482-11.072 22.756-6.67 9.747-13.59 19.458-24.493 19.66-10.714.197-14.159-6.354-26.407-6.354-12.245 0-16.072 6.152-26.214 6.55-10.524.399-18.538-10.54-25.262-20.25-13.74-19.865-24.24-56.133-10.141-80.614 7.004-12.158 19.52-19.856 33.107-20.054 10.334-.197 20.089 6.953 26.407 6.953 6.313 0 18.167-8.598 30.629-7.335 5.216.217 19.86 2.107 29.263 15.87-.757.47-17.473 10.201-17.291 30.444m-20.135-59.457c5.588-6.763 9.348-16.178 8.323-25.546-8.054.324-17.793 5.367-23.57 12.126-5.177 5.986-9.711 15.567-8.488 24.75 8.977.694 18.148-4.562 23.735-11.33"/></svg>