<svg xmlns="http://www.w3.org/2000/svg" viewBox="362 362 128 128"><path d="M421.6 488.9c-28.5-12.8-27.1-50.9 2.4-63.3-47.1-7.6-48.3 66.8-2.4 63.3z"/><path d="M373.1 463.1c-7.8-30.3 22.9-53 51-37.6-23.5-41.5-82.4 3.9-51 37.6z"/><path d="M363 409.1c18.8-25 55.7-15.1 61.2 16.4 17.8-44.2-54.4-61.9-61.2-16.4z"/><path d="M399 367.5c31.3-.8 46.5 34.1 25.4 58.1 45.5-13.6 14.3-81.1-25.4-58.1z"/><path d="M453.8 369.7c20.1 23.9 2.4 57.6-29.6 56 39.1 27.2 72.5-39.3 29.6-56z"/><path d="M486.4 414c-6.1 30.7-43.6 37.8-62.3 11.8 3.1 47.5 75.9 32.1 62.3-11.8z"/><path d="M472 467c-27.8 14.3-56.7-10.5-48-41.3-35.2 32.1 22.2 79.4 48 41.3z"/></svg>