<svg xmlns="http://www.w3.org/2000/svg" width="512" height="553.514" viewBox="0 0 512 553.514"><path d="M152.216 207.567V442.81h41.514V207.567h-41.514zm83.027 0V442.81h41.514V207.567h-41.514zm83.028 0V442.81h41.515V207.567H318.27zm41.514-166.053C359.784 6.92 351.352 0 318.27 0H179.893c-34.87 0-41.236 7.608-41.236 41.648l-.277 41.38H27.675C7.196 83.027 0 89.81 0 110.702v13.838c0 21.446 7.196 27.676 27.676 27.676h13.838V512c0 34.46 7.608 41.514 41.514 41.514h332.107c34.595 0 55.352-6.514 55.352-41.514V152.216h13.838c20.892 0 27.676-6.642 27.676-27.675v-13.837c0-20.48-5.945-27.676-27.675-27.676h-124.54V41.514zm-41.513 0v41.514H179.893V41.514h138.38zM110.704 152.216h290.594v332.108H110.703V152.216z"/></svg>