<svg xmlns="http://www.w3.org/2000/svg" viewBox="0 0 128 128"><path d="M16.8 114.5l-.1-.1c.1 0 .1-.1.3-.1l.5-.2c.1-.1.2-.1.4-.2s.4-.2.4-.3c.3-.2.5-.3.7-.3s.3 0 .5.1c.1.1.3.2.3.3.1.1.1.3.1.5s0 .3-.1.5c-.1.1-.2.3-.4.5.1 0 .2.1.5.2l1 .4c.3.1.5.2.5.2h.1s.1 0 .1-.1l.1.1c-.1.1-.2.1-.3.1-.1.1-.2.1-.3.2-.2-.1-.5-.2-.9-.4l-.6-.3c-.3-.1-.5-.2-.8-.3v-.1c.1 0 .1-.1.2-.1.3-.1.4-.3.5-.5s0-.4-.1-.6-.3-.3-.4-.3c-.2-.1-.4 0-.7.1-.1.1-.3.2-.4.3 0 .1.1.2.1.2s.1.3.3.7l.6 1 .3.6c.1.1.1.2.2.3h.1c.1 0 .2-.1.3-.1l.1.1-.6.3c-.1.1-.4.2-.7.4l-.1-.1c.2-.1.3-.2.3-.2l.1-.1s0-.1-.1-.2c0 0-.1-.3-.3-.7l-.6-1.1-.3-.6c-.1-.1-.1-.2-.2-.2h-.1c-.2-.1-.3-.1-.5.1z"/><path fill="none" stroke="#000" stroke-width=".25" d="M16.8 114.5l-.1-.1c.1 0 .1-.1.3-.1l.5-.2c.1-.1.2-.1.4-.2s.4-.2.4-.3c.3-.2.5-.3.7-.3s.3 0 .5.1c.1.1.3.2.3.3.1.1.1.3.1.5s0 .3-.1.5c-.1.1-.2.3-.4.5.1 0 .2.1.5.2l1 .4c.3.1.5.2.5.2h.1s.1 0 .1-.1l.1.1c-.1.1-.2.1-.3.1-.1.1-.2.1-.3.2-.2-.1-.5-.2-.9-.4l-.6-.3c-.3-.1-.5-.2-.8-.3v-.1c.1 0 .1-.1.2-.1.3-.1.4-.3.5-.5s0-.4-.1-.6-.3-.3-.4-.3c-.2-.1-.4 0-.7.1-.1.1-.3.2-.4.3 0 .1.1.2.1.2s.1.3.3.7l.6 1 .3.6c.1.1.1.2.2.3h.1c.1 0 .2-.1.3-.1l.1.1-.6.3c-.1.1-.4.2-.7.4l-.1-.1c.2-.1.3-.2.3-.2l.1-.1s0-.1-.1-.2c0 0-.1-.3-.3-.7l-.6-1.1-.3-.6c-.1-.1-.1-.2-.2-.2h-.1c-.2-.1-.3-.1-.5.1z"/><path d="M22.4 115.6l-.1-.2c.2-.1.3-.1.3-.2v-.1s0-.1-.1-.3c-.1-.2-.1-.4-.2-.6l-.5-1.2-.3-.6c-.1-.1-.1-.2-.1-.3h-.1c-.1 0-.2 0-.3.1l-.1-.2.7-.3.7-.3c.3-.1.6-.3.8-.3.2-.1.3-.1.5-.1 0 .1 0 .2.1.3 0 0 .1.2.2.5l-.2.1c-.1-.2-.1-.3-.2-.4-.1 0-.2 0-.3.1-.2.1-.4.1-.5.2 0 0-.1.1-.3.1-.1.1-.2.1-.3.1.1.2.1.3.2.5l.3.8c.2-.1.4-.1.5-.2.2-.1.3-.1.5-.2.1 0 .1-.1.1-.1v-.2l-.1-.2.1-.1v.1l.2.5.2.6-.2.1-.1-.2c-.1-.1-.1-.2-.1-.2h-.1c-.1 0-.3.1-.5.2-.1.1-.3.1-.5.2.1.2.1.4.3.7.1.3.2.5.3.7.2-.1.5-.2.8-.3.2-.1.3-.1.4-.2l.2-.2v-.2c0-.2-.1-.3-.1-.3l.2-.1c.1.3.2.6.3.8-.1.1-.3.2-.5.2l-1.5.6-.6.3z"/><path fill="none" stroke="#000" stroke-width=".25" d="M22.4 115.6l-.1-.2c.2-.1.3-.1.3-.2v-.1s0-.1-.1-.3c-.1-.2-.1-.4-.2-.6l-.5-1.2-.3-.6c-.1-.1-.1-.2-.1-.3h-.1c-.1 0-.2 0-.3.1l-.1-.2.7-.3.7-.3c.3-.1.6-.3.8-.3.2-.1.3-.1.5-.1 0 .1 0 .2.1.3 0 0 .1.2.2.5l-.2.1c-.1-.2-.1-.3-.2-.4-.1 0-.2 0-.3.1-.2.1-.4.1-.5.2 0 0-.1.1-.3.1-.1.1-.2.1-.3.1.1.2.1.3.2.5l.3.8c.2-.1.4-.1.5-.2.2-.1.3-.1.5-.2.1 0 .1-.1.1-.1v-.2l-.1-.2.1-.1v.1l.2.5.2.6-.2.1-.1-.2c-.1-.1-.1-.2-.1-.2h-.1c-.1 0-.3.1-.5.2-.1.1-.3.1-.5.2.1.2.1.4.3.7.1.3.2.5.3.7.2-.1.5-.2.8-.3.2-.1.3-.1.4-.2l.2-.2v-.2c0-.2-.1-.3-.1-.3l.2-.1c.1.3.2.6.3.8-.1.1-.3.2-.5.2l-1.5.6-.6.3z"/><path d="M24.9 110.7l-.1-.2c.1 0 .2-.1.3-.1l.5-.1c.1 0 .2-.1.4-.1.3-.1.4-.1.5-.2.3-.1.6-.1.7-.1.2 0 .3.1.4.2s.2.2.3.4c.1.1.1.3 0 .5s-.1.3-.2.5c-.1.1-.3.3-.5.4.1.1.2.1.4.3l.9.6c.3.2.4.3.4.3H29.2l.1.2c-.1 0-.2.1-.3.1-.1 0-.2.1-.3.1-.1-.1-.4-.3-.8-.6-.2-.2-.4-.3-.5-.4-.3-.2-.5-.3-.7-.5v-.1c.1 0 .1 0 .2-.1.3-.1.5-.2.6-.4s.1-.4.1-.6c-.1-.2-.2-.3-.3-.4-.2-.1-.4-.1-.7 0-.2.1-.3.1-.5.2 0 .1 0 .2.1.3 0 0 .1.3.2.7l.3 1.1c.1.2.1.5.2.7s.1.3.1.3h.1c.1 0 .2 0 .4-.1l.1.2c-.2.1-.5.1-.7.2s-.4.1-.8.3l-.1-.2c.2-.1.3-.1.3-.1l.1-.1v-.3s-.1-.3-.2-.7l-.4-1.2c-.1-.2-.1-.5-.2-.7s-.1-.3-.1-.3h-.1c-.2-.1-.3-.1-.5 0z"/><path fill="none" stroke="#000" stroke-width=".25" d="M24.9 110.7l-.1-.2c.1 0 .2-.1.3-.1l.5-.1c.1 0 .2-.1.4-.1.3-.1.4-.1.5-.2.3-.1.6-.1.7-.1.2 0 .3.1.4.2s.2.2.3.4c.1.1.1.3 0 .5s-.1.3-.2.5c-.1.1-.3.3-.5.4.1.1.2.1.4.3l.9.6c.3.2.4.3.4.3H29.2l.1.2c-.1 0-.2.1-.3.1-.1 0-.2.1-.3.1-.1-.1-.4-.3-.8-.6-.2-.2-.4-.3-.5-.4-.3-.2-.5-.3-.7-.5v-.1c.1 0 .1 0 .2-.1.3-.1.5-.2.6-.4s.1-.4.1-.6c-.1-.2-.2-.3-.3-.4-.2-.1-.4-.1-.7 0-.2.1-.3.1-.5.2 0 .1 0 .2.1.3 0 0 .1.3.2.7l.3 1.1c.1.2.1.5.2.7s.1.3.1.3h.1c.1 0 .2 0 .4-.1l.1.2c-.2.1-.5.1-.7.2s-.4.1-.8.3l-.1-.2c.2-.1.3-.1.3-.1l.1-.1v-.3s-.1-.3-.2-.7l-.4-1.2c-.1-.2-.1-.5-.2-.7s-.1-.3-.1-.3h-.1c-.2-.1-.3-.1-.5 0z"/><path d="M28.7 109.5v-.2c.3-.1.5-.1.8-.2.2-.1.5-.1.7-.2v.2c-.2.1-.3.1-.3.1l-.1.1v.3s.1.3.2.7l.2 1c.1.4.2.6.3.7.1.1.2.2.3.2.1 0 .2.1.3.1.1 0 .3 0 .5-.1s.3-.1.5-.2l.3-.3c.1-.1.1-.2.1-.3v-.4c0-.1-.1-.3-.1-.6l-.2-.8c-.1-.2-.1-.5-.2-.7-.1-.2-.1-.3-.1-.3s-.1 0-.1-.1c-.1 0-.2 0-.4.1v-.2c.3-.1.5-.1.6-.1.1 0 .3-.1.6-.2v.2c-.2.1-.3.1-.4.1l-.1.1v.3s.1.3.2.7l.2.9c.1.4.1.7.1.9 0 .2-.1.3-.2.5-.1.1-.2.2-.4.3-.2.1-.4.2-.6.2-.3.1-.5.1-.7.1s-.4-.1-.5-.1l-.3-.3c-.1-.1-.2-.3-.3-.7l-.3-1.1c-.1-.2-.1-.5-.2-.7s-.1-.3-.1-.3-.1 0-.1-.1c.1.4 0 .4-.2.4z"/><path fill="none" stroke="#000" stroke-width=".25" d="M28.7 109.5v-.2c.3-.1.5-.1.8-.2.2-.1.5-.1.7-.2v.2c-.2.1-.3.1-.3.1l-.1.1v.3s.1.3.2.7l.2 1c.1.4.2.6.3.7.1.1.2.2.3.2.1 0 .2.1.3.1.1 0 .3 0 .5-.1s.3-.1.5-.2l.3-.3c.1-.1.1-.2.1-.3v-.4c0-.1-.1-.3-.1-.6l-.2-.8c-.1-.2-.1-.5-.2-.7-.1-.2-.1-.3-.1-.3s-.1 0-.1-.1c-.1 0-.2 0-.4.1v-.2c.3-.1.5-.1.6-.1.1 0 .3-.1.6-.2v.2c-.2.1-.3.1-.4.1l-.1.1v.3s.1.3.2.7l.2.9c.1.4.1.7.1.9 0 .2-.1.3-.2.5-.1.1-.2.2-.4.3-.2.1-.4.2-.6.2-.3.1-.5.1-.7.1s-.4-.1-.5-.1l-.3-.3c-.1-.1-.2-.3-.3-.7l-.3-1.1c-.1-.2-.1-.5-.2-.7s-.1-.3-.1-.3-.1 0-.1-.1c.1.4 0 .4-.2.4z"/><path d="M33.2 108.4v-.2c.2 0 .4 0 .5-.1.2 0 .3-.1.5-.1l.6.9 1.3 1.9.6-2c.2-.5.3-1 .3-1.2.2 0 .3 0 .5-.1s.3-.1.6-.1v.2c-.2 0-.3.1-.4.1l-.1.1v.3s0 .3.1.7l.2 1.2c0 .2.1.5.1.7s.1.3.1.3l.1.1h.4v.2c-.3.1-.6.1-.7.1-.1 0-.4.1-.8.1v-.2c.2 0 .3-.1.4-.1l.1-.1v-.3s0-.3-.1-.7l-.3-1.9-.6 2c-.1.3-.2.6-.2.8 0 .1-.1.4-.2.7h-.1c0-.1-.1-.1-.1-.1l-.2-.3-1.7-2.4.3 1.8c0 .2.1.5.1.7s.1.3.1.3l.1.1h.4v.2l-.6.1-.7.1v-.2c.2 0 .3-.1.4-.1l.1-.1v-.3s0-.3-.1-.7l-.2-1.2c0-.2-.1-.5-.1-.7s-.1-.3-.1-.3l-.1-.1c-.1-.1-.3-.1-.5-.1z"/><path fill="none" stroke="#000" stroke-width=".25" d="M33.2 108.4v-.2c.2 0 .4 0 .5-.1.2 0 .3-.1.5-.1l.6.9 1.3 1.9.6-2c.2-.5.3-1 .3-1.2.2 0 .3 0 .5-.1s.3-.1.6-.1v.2c-.2 0-.3.1-.4.1l-.1.1v.3s0 .3.1.7l.2 1.2c0 .2.1.5.1.7s.1.3.1.3l.1.1h.4v.2c-.3.1-.6.1-.7.1-.1 0-.4.1-.8.1v-.2c.2 0 .3-.1.4-.1l.1-.1v-.3s0-.3-.1-.7l-.3-1.9-.6 2c-.1.3-.2.6-.2.8 0 .1-.1.4-.2.7h-.1c0-.1-.1-.1-.1-.1l-.2-.3-1.7-2.4.3 1.8c0 .2.1.5.1.7s.1.3.1.3l.1.1h.4v.2l-.6.1-.7.1v-.2c.2 0 .3-.1.4-.1l.1-.1v-.3s0-.3-.1-.7l-.2-1.2c0-.2-.1-.5-.1-.7s-.1-.3-.1-.3l-.1-.1c-.1-.1-.3-.1-.5-.1z"/><path d="M92.1 110.7l-.1.2c-.2.1-.4.1-.6.1h-.7c-.3 0-.5-.1-.7-.2s-.4-.2-.6-.4c-.2-.1-.3-.3-.4-.5s-.1-.3-.2-.5v-.6c.1-.6.3-1 .7-1.3.4-.3 1-.4 1.7-.4.2 0 .3.1.4.1s.3.1.5.2.3.1.3.1c-.1.1-.1.2-.1.3-.1.1-.1.3-.1.5H92v-.3c0-.2-.1-.3-.2-.4-.2-.1-.4-.2-.7-.2h-.7s-.3.1-.5.2c-.1.1-.3.3-.4.5s-.2.4-.2.7c-.1.5.1 1 .3 1.4.3.4.7.6 1.2.6h.7c.2 0 .4-.1.6-.1z"/><path fill="none" stroke="#000" stroke-width=".25" d="M92.1 110.7l-.1.2c-.2.1-.4.1-.6.1h-.7c-.3 0-.5-.1-.7-.2s-.4-.2-.6-.4c-.2-.1-.3-.3-.4-.5s-.1-.3-.2-.5v-.6c.1-.6.3-1 .7-1.3.4-.3 1-.4 1.7-.4.2 0 .3.1.4.1s.3.1.5.2.3.1.3.1c-.1.1-.1.2-.1.3-.1.1-.1.3-.1.5H92v-.3c0-.2-.1-.3-.2-.4-.2-.1-.4-.2-.7-.2h-.7s-.3.1-.5.2c-.1.1-.3.3-.4.5s-.2.4-.2.7c-.1.5.1 1 .3 1.4.3.4.7.6 1.2.6h.7c.2 0 .4-.1.6-.1z"/><path d="M93 111.4c.1 0 .4.1.7.2v-.2c-.2 0-.3-.1-.3-.1s-.1 0-.1-.1v-.1s.1-.1.1-.3l.4-.6 1.5.3.1.9v.2h-.1c-.1 0-.2 0-.3-.1v.2l.8.2c.1 0 .3.1.6.1v-.2c-.1 0-.2-.1-.3-.1l-.1-.1c0-.1-.1-.4-.2-.9l-.5-2.9h-.2c-.3.5-.6.8-.7 1l-1 1.3c-.3.4-.5.6-.5.7-.1.1-.1.2-.2.2h-.1-.3v.2c.4.1.5.1.7.2zm2-2.8l.3 1.7-1.3-.3 1-1.4z"/><path fill="none" stroke="#000" stroke-width=".25" d="M93 111.4c.1 0 .4.1.7.2v-.2c-.2 0-.3-.1-.3-.1s-.1 0-.1-.1v-.1s.1-.1.1-.3l.4-.6 1.5.3.1.9v.2h-.1c-.1 0-.2 0-.3-.1v.2l.8.2c.1 0 .3.1.6.1v-.2c-.1 0-.2-.1-.3-.1l-.1-.1c0-.1-.1-.4-.2-.9l-.5-2.9h-.2c-.3.5-.6.8-.7 1l-1 1.3c-.3.4-.5.6-.5.7-.1.1-.1.2-.2.2h-.1-.3v.2c.4.1.5.1.7.2zm2-2.8l.3 1.7-1.3-.3 1-1.4z"/><path d="M97.7 108.7l.1-.2c.3.1.5.2.7.2.2.1.5.1.7.2l-.1.2c-.2-.1-.3-.1-.4-.1h-.1s-.1.1-.1.2c0 0-.1.3-.2.7l-.3 1c-.1.4-.1.6-.1.7s.1.3.1.3c.1.1.1.1.3.2.1.1.3.1.4.2.2.1.4.1.5.1.2 0 .3 0 .4-.1s.2-.1.2-.2c.1-.1.1-.2.2-.3.1-.1.1-.3.2-.5l.2-.8c.1-.2.1-.5.2-.7 0-.2.1-.3.1-.3s0-.1-.1-.1c0 0-.1-.1-.3-.1l.1-.2c.3.1.5.1.6.2.1 0 .3.1.6.1l-.1.2c-.2-.1-.3-.1-.4-.1h-.1s-.1.1-.1.2c0 0-.1.3-.2.7l-.2.9c-.1.4-.2.7-.3.9-.1.1-.3.3-.5.3-.1.1-.3.1-.5.1s-.4 0-.6-.1c-.3-.1-.5-.2-.7-.3-.2-.1-.3-.2-.4-.4-.1-.1-.1-.3-.1-.4s0-.4.1-.7l.3-1.1c.1-.2.1-.5.2-.7 0-.2.1-.3.1-.3s0-.1-.1-.1c0 .3-.1.3-.3.2z"/><path fill="none" stroke="#000" stroke-width=".25" d="M97.7 108.7l.1-.2c.3.1.5.2.7.2.2.1.5.1.7.2l-.1.2c-.2-.1-.3-.1-.4-.1h-.1s-.1.1-.1.2c0 0-.1.3-.2.7l-.3 1c-.1.4-.1.6-.1.7s.1.3.1.3c.1.1.1.1.3.2.1.1.3.1.4.2.2.1.4.1.5.1.2 0 .3 0 .4-.1s.2-.1.2-.2c.1-.1.1-.2.2-.3.1-.1.1-.3.2-.5l.2-.8c.1-.2.1-.5.2-.7 0-.2.1-.3.1-.3s0-.1-.1-.1c0 0-.1-.1-.3-.1l.1-.2c.3.1.5.1.6.2.1 0 .3.1.6.1l-.1.2c-.2-.1-.3-.1-.4-.1h-.1s-.1.1-.1.2c0 0-.1.3-.2.7l-.2.9c-.1.4-.2.7-.3.9-.1.1-.3.3-.5.3-.1.1-.3.1-.5.1s-.4 0-.6-.1c-.3-.1-.5-.2-.7-.3-.2-.1-.3-.2-.4-.4-.1-.1-.1-.3-.1-.4s0-.4.1-.7l.3-1.1c.1-.2.1-.5.2-.7 0-.2.1-.3.1-.3s0-.1-.1-.1c0 .3-.1.3-.3.2z"/><path d="M101 113.3c.1-.1.2-.4.3-.8l.2.1c-.1.3-.1.4-.1.4 0 .1 0 .1.1.2s.1.1.3.2c.1.1.2.1.3.2.2.1.3.1.5.1s.3-.1.4-.2.2-.2.2-.4c0-.1.1-.2.1-.3 0-.1 0-.2-.1-.3l-.2-.2c-.1 0-.2-.1-.3-.2s-.3-.2-.5-.2c-.1-.1-.3-.2-.3-.3-.1-.1-.1-.2-.1-.3 0-.1 0-.3.1-.4.1-.2.2-.4.3-.5l.6-.3c.2 0 .5 0 .7.1.1.1.3.1.5.2.1.1.3.2.4.3-.1.1-.1.2-.1.3 0 .1-.1.2-.2.4l-.2-.1c.1-.3.1-.4.1-.4 0-.1-.1-.1-.1-.2-.1-.1-.3-.3-.5-.3-.3-.1-.5-.1-.7 0s-.3.3-.4.5c-.1.1-.1.3 0 .3s.1.2.2.3c.1.1.2.1.4.3.2.1.4.2.5.3l.3.3c.1.1.1.2.1.3 0 .1 0 .3-.1.4-.1.3-.3.6-.7.7s-.7.1-1.2 0c-.2-.1-.5-.3-.8-.5z"/><path fill="none" stroke="#000" stroke-width=".25" d="M101 113.3c.1-.1.2-.4.3-.8l.2.1c-.1.3-.1.4-.1.4 0 .1 0 .1.1.2s.1.1.3.2c.1.1.2.1.3.2.2.1.3.1.5.1s.3-.1.4-.2.2-.2.2-.4c0-.1.1-.2.1-.3 0-.1 0-.2-.1-.3l-.2-.2c-.1 0-.2-.1-.3-.2s-.3-.2-.5-.2c-.1-.1-.3-.2-.3-.3-.1-.1-.1-.2-.1-.3 0-.1 0-.3.1-.4.1-.2.2-.4.3-.5l.6-.3c.2 0 .5 0 .7.1.1.1.3.1.5.2.1.1.3.2.4.3-.1.1-.1.2-.1.3 0 .1-.1.2-.2.4l-.2-.1c.1-.3.1-.4.1-.4 0-.1-.1-.1-.1-.2-.1-.1-.3-.3-.5-.3-.3-.1-.5-.1-.7 0s-.3.3-.4.5c-.1.1-.1.3 0 .3s.1.2.2.3c.1.1.2.1.4.3.2.1.4.2.5.3l.3.3c.1.1.1.2.1.3 0 .1 0 .3-.1.4-.1.3-.3.6-.7.7s-.7.1-1.2 0c-.2-.1-.5-.3-.8-.5z"/><path d="M104.3 114.5c.1.1.3.1.6.3l.1-.2c-.1-.1-.3-.1-.3-.2l-.1-.1v-.1l.2-.2.5-.5 1.4.6v1l-.1.1h-.1s-.1-.1-.3-.1l-.1.2.8.3c.1.1.3.1.5.3l.1-.2c-.1-.1-.2-.1-.2-.1l-.1-.1v-3.8l-.2-.1c-.5.4-.7.7-.9.8l-1.2 1.1c-.3.3-.6.5-.6.5-.1.1-.2.1-.2.1h-.1s-.1 0-.3-.1l-.1.2c.4.2.6.3.7.3zm2.5-2.2v1.7l-1.2-.5 1.2-1.2z"/><path fill="none" stroke="#000" stroke-width=".25" d="M104.3 114.5c.1.1.3.1.6.3l.1-.2c-.1-.1-.3-.1-.3-.2l-.1-.1v-.1l.2-.2.5-.5 1.4.6v1l-.1.1h-.1s-.1-.1-.3-.1l-.1.2.8.3c.1.1.3.1.5.3l.1-.2c-.1-.1-.2-.1-.2-.1l-.1-.1v-3.8l-.2-.1c-.5.4-.7.7-.9.8l-1.2 1.1c-.3.3-.6.5-.6.5-.1.1-.2.1-.2.1h-.1s-.1 0-.3-.1l-.1.2c.4.2.6.3.7.3zm2.5-2.2v1.7l-1.2-.5 1.2-1.2z"/><path d="M107.8 116c.1-.1.3-.3.5-.7l.1.1c-.1.2-.2.3-.2.4s0 .1.1.2c0 .1.1.2.2.3l.3.3c.1.1.3.1.5.1s.3 0 .5-.1l.3-.3c.1-.1.1-.2.1-.3v-.3c0-.1-.1-.2-.2-.2l-.3-.3c-.1-.1-.3-.2-.4-.3-.1-.1-.2-.3-.2-.4v-.4c0-.1.1-.3.1-.4.1-.2.3-.3.5-.4s.4-.1.6-.1.5.1.7.2c.1.1.3.2.4.3.1.1.2.3.3.4-.1.1-.1.2-.2.2-.1.1-.1.2-.3.3l-.1-.1.2-.4c0-.1 0-.2-.1-.2-.1-.2-.2-.3-.4-.4-.2-.1-.4-.2-.6-.1s-.4.2-.5.4c-.1.1-.1.2-.1.3 0 .1.1.2.1.3l.3.3c.2.1.3.3.5.4.1.1.2.3.2.3v.3c0 .1-.1.3-.1.4-.2.3-.5.5-.9.5-.4.1-.8 0-1.2-.3-.2.2-.5 0-.7-.3z"/><path fill="none" stroke="#000" stroke-width=".25" d="M107.8 116c.1-.1.3-.3.5-.7l.1.1c-.1.2-.2.3-.2.4s0 .1.1.2c0 .1.1.2.2.3l.3.3c.1.1.3.1.5.1s.3 0 .5-.1l.3-.3c.1-.1.1-.2.1-.3v-.3c0-.1-.1-.2-.2-.2l-.3-.3c-.1-.1-.3-.2-.4-.3-.1-.1-.2-.3-.2-.4v-.4c0-.1.1-.3.1-.4.1-.2.3-.3.5-.4s.4-.1.6-.1.5.1.7.2c.1.1.3.2.4.3.1.1.2.3.3.4-.1.1-.1.2-.2.2-.1.1-.1.2-.3.3l-.1-.1.2-.4c0-.1 0-.2-.1-.2-.1-.2-.2-.3-.4-.4-.2-.1-.4-.2-.6-.1s-.4.2-.5.4c-.1.1-.1.2-.1.3 0 .1.1.2.1.3l.3.3c.2.1.3.3.5.4.1.1.2.3.2.3v.3c0 .1-.1.3-.1.4-.2.3-.5.5-.9.5-.4.1-.8 0-1.2-.3-.2.2-.5 0-.7-.3z"/><path d="M46.5 110.8l-.2.2h-.7s-.4-.1-.6-.2c-.3-.1-.5-.2-.7-.4-.2-.1-.3-.3-.5-.5-.1-.2-.2-.4-.3-.5-.1-.2-.1-.4-.1-.6s.1-.4.1-.6c.2-.5.5-.9 1.1-1.1.5-.2 1.1-.2 1.7.1.1.1.3.1.4.2.1.1.3.2.4.3.2.1.3.2.3.2l-.2.2c-.1.1-.2.3-.2.5l-.1-.1.1-.3c.1-.2 0-.3-.1-.5-.1-.1-.3-.3-.7-.4-.2-.1-.5-.1-.6-.1-.2 0-.4 0-.5.1-.2.1-.3.2-.5.3-.1.1-.3.4-.4.7-.2.5-.2 1 0 1.4s.5.7 1 .9c.2.1.5.1.7.1.3.1.4.1.6.1z"/><path fill="none" stroke="#000" stroke-width=".25" d="M46.5 110.8l-.2.2h-.7s-.4-.1-.6-.2c-.3-.1-.5-.2-.7-.4-.2-.1-.3-.3-.5-.5-.1-.2-.2-.4-.3-.5-.1-.2-.1-.4-.1-.6s.1-.4.1-.6c.2-.5.5-.9 1.1-1.1.5-.2 1.1-.2 1.7.1.1.1.3.1.4.2.1.1.3.2.4.3.2.1.3.2.3.2l-.2.2c-.1.1-.2.3-.2.5l-.1-.1.1-.3c.1-.2 0-.3-.1-.5-.1-.1-.3-.3-.7-.4-.2-.1-.5-.1-.6-.1-.2 0-.4 0-.5.1-.2.1-.3.2-.5.3-.1.1-.3.4-.4.7-.2.5-.2 1 0 1.4s.5.7 1 .9c.2.1.5.1.7.1.3.1.4.1.6.1z"/><path d="M47.7 110.6c0 .3.1.5.1.7.1.2.3.4.5.6s.4.3.7.4c.6.2 1.1.2 1.6-.1.5-.3.9-.7 1-1.2.1-.2.1-.3.1-.5v-.5s-.1-.3-.2-.5-.3-.3-.5-.5c-.2-.1-.4-.3-.7-.4s-.6-.1-.9-.1c-.3 0-.5.1-.8.2s-.4.3-.6.5c-.1.2-.3.4-.4.7.1.1.1.4.1.7zm1.1-1.5c.2-.2.4-.3.6-.4.2-.1.5 0 .8.1.2.1.3.1.5.3.1.1.3.2.3.3.1.1.1.2.2.4 0 .1.1.3.1.4 0 .3-.1.5-.1.8-.1.3-.3.6-.4.8s-.4.3-.6.4c-.2.1-.5.1-.8 0-.2-.1-.4-.1-.5-.3-.1-.1-.3-.3-.3-.5s-.1-.4-.1-.6v-.5s.1-.3.1-.5c-.1-.3.1-.5.2-.7z"/><path fill="none" stroke="#000" stroke-width=".25" d="M47.7 110.6c0 .3.1.5.1.7.1.2.3.4.5.6s.4.3.7.4c.6.2 1.1.2 1.6-.1.5-.3.9-.7 1-1.2.1-.2.1-.3.1-.5v-.5s-.1-.3-.2-.5-.3-.3-.5-.5c-.2-.1-.4-.3-.7-.4s-.6-.1-.9-.1c-.3 0-.5.1-.8.2s-.4.3-.6.5c-.1.2-.3.4-.4.7.1.1.1.4.1.7zm1.1-1.5c.2-.2.4-.3.6-.4.2-.1.5 0 .8.1.2.1.3.1.5.3.1.1.3.2.3.3.1.1.1.2.2.4 0 .1.1.3.1.4 0 .3-.1.5-.1.8-.1.3-.3.6-.4.8s-.4.3-.6.4c-.2.1-.5.1-.8 0-.2-.1-.4-.1-.5-.3-.1-.1-.3-.3-.3-.5s-.1-.4-.1-.6v-.5s.1-.3.1-.5c-.1-.3.1-.5.2-.7z"/><path d="M55.6 113.8c-.3 0-.5.1-.7 0-.3 0-.6-.1-.9-.1-.4-.1-.7-.3-1-.5s-.5-.5-.6-.8-.1-.7 0-1.1c.1-.3.2-.6.4-.8.2-.2.4-.4.6-.5.2-.1.4-.2.6-.2.3 0 .7 0 1.1.1.2.1.4.1.6.2.2.1.4.2.7.3-.1.1-.1.2-.1.2 0 .1-.1.3-.2.5h-.2l.1-.3v-.2c0-.1-.1-.1-.2-.2-.2-.1-.3-.2-.4-.2-.1-.1-.2-.1-.4-.1-.3-.1-.6-.1-.9 0-.3.1-.5.2-.7.5-.2.2-.3.5-.4.8-.1.3-.1.7 0 1s.2.5.4.7.5.3.8.4c.1 0 .3.1.5.1h.4c0-.1.1-.2.1-.3l.1-.3c0-.1.1-.2 0-.3l-.1-.1c-.1 0-.2-.1-.5-.1v-.2l.8.2c.1 0 .3.1.5.1v.1l-.2.1c-.1.2-.1.3-.1.5-.1.1-.1.3-.1.5z"/><path fill="none" stroke="#000" stroke-width=".25" d="M55.6 113.8c-.3 0-.5.1-.7 0-.3 0-.6-.1-.9-.1-.4-.1-.7-.3-1-.5s-.5-.5-.6-.8-.1-.7 0-1.1c.1-.3.2-.6.4-.8.2-.2.4-.4.6-.5.2-.1.4-.2.6-.2.3 0 .7 0 1.1.1.2.1.4.1.6.2.2.1.4.2.7.3-.1.1-.1.2-.1.2 0 .1-.1.3-.2.5h-.2l.1-.3v-.2c0-.1-.1-.1-.2-.2-.2-.1-.3-.2-.4-.2-.1-.1-.2-.1-.4-.1-.3-.1-.6-.1-.9 0-.3.1-.5.2-.7.5-.2.2-.3.5-.4.8-.1.3-.1.7 0 1s.2.5.4.7.5.3.8.4c.1 0 .3.1.5.1h.4c0-.1.1-.2.1-.3l.1-.3c0-.1.1-.2 0-.3l-.1-.1c-.1 0-.2-.1-.5-.1v-.2l.8.2c.1 0 .3.1.5.1v.1l-.2.1c-.1.2-.1.3-.1.5-.1.1-.1.3-.1.5z"/><path d="M56.5 114.2v-.2h.5s.1-.1.1-.3c0-.2.1-.4.1-.6l.3-2.1v-.1s0-.1-.1-.1l-.1-.1s-.1 0-.3-.1v-.2c.3.1.5.1.6.1h.4c.1.2.2.4.3.5l.5.7.7 1.1c.2.3.4.6.5.8.1.1.1.2.2.3l.3-1.9c0-.2.1-.4.1-.6v-.3s0-.1-.1-.1-.2-.1-.4-.1v-.2c.2 0 .4.1.6.1.2 0 .4.1.5.1v.2h-.4s-.1 0-.1.1c0 0-.1.1-.1.3 0 .2-.1.4-.1.6l-.2 1.3c0 .3-.1.7-.2 1.4l-.3-.1h-.1s0-.1-.1-.1c-.1-.2-.2-.3-.3-.4l-.3-.5-1.6-2.5-.3 2c0 .2-.1.4-.1.6v.3s0 .1.1.1.2.1.4.1v.2c-.1 0-.3-.1-.5-.1 0-.2-.2-.2-.5-.2z"/><path fill="none" stroke="#000" stroke-width=".25" d="M56.5 114.2v-.2h.5s.1-.1.1-.3c0-.2.1-.4.1-.6l.3-2.1v-.1s0-.1-.1-.1l-.1-.1s-.1 0-.3-.1v-.2c.3.1.5.1.6.1h.4c.1.2.2.4.3.5l.5.7.7 1.1c.2.3.4.6.5.8.1.1.1.2.2.3l.3-1.9c0-.2.1-.4.1-.6v-.3s0-.1-.1-.1-.2-.1-.4-.1v-.2c.2 0 .4.1.6.1.2 0 .4.1.5.1v.2h-.4s-.1 0-.1.1c0 0-.1.1-.1.3 0 .2-.1.4-.1.6l-.2 1.3c0 .3-.1.7-.2 1.4l-.3-.1h-.1s0-.1-.1-.1c-.1-.2-.2-.3-.3-.4l-.3-.5-1.6-2.5-.3 2c0 .2-.1.4-.1.6v.3s0 .1.1.1.2.1.4.1v.2c-.1 0-.3-.1-.5-.1 0-.2-.2-.2-.5-.2z"/><path d="M61.7 113.7c.1.3.2.5.4.7s.4.3.6.4c.2.1.5.1.8.1.6 0 1.1-.2 1.5-.6s.6-.9.6-1.5c0-.2 0-.4-.1-.5 0-.2-.1-.3-.1-.4-.1-.2-.2-.3-.3-.5-.1-.1-.3-.3-.6-.3-.2-.1-.5-.1-.8-.1s-.6 0-.8.1c-.3.1-.5.2-.7.4-.2.2-.3.4-.4.6-.1.2-.1.5-.1.8-.2.3-.1.5 0 .8zm.6-1.8c.1-.2.3-.4.5-.5s.5-.2.7-.2.4 0 .5.1c.2.1.3.1.4.2l.3.3c.1.1.1.3.2.4.1.2.1.5.1.8s-.1.6-.2.9-.3.4-.5.6c-.2.1-.5.2-.7.2s-.4 0-.6-.1c-.2-.1-.3-.2-.5-.3-.1-.1-.3-.3-.3-.5-.1-.1-.1-.3-.1-.5s-.1-.3-.1-.5c.1-.4.2-.7.3-.9z"/><path fill="none" stroke="#000" stroke-width=".25" d="M61.7 113.7c.1.3.2.5.4.7s.4.3.6.4c.2.1.5.1.8.1.6 0 1.1-.2 1.5-.6s.6-.9.6-1.5c0-.2 0-.4-.1-.5 0-.2-.1-.3-.1-.4-.1-.2-.2-.3-.3-.5-.1-.1-.3-.3-.6-.3-.2-.1-.5-.1-.8-.1s-.6 0-.8.1c-.3.1-.5.2-.7.4-.2.2-.3.4-.4.6-.1.2-.1.5-.1.8-.2.3-.1.5 0 .8zm.6-1.8c.1-.2.3-.4.5-.5s.5-.2.7-.2.4 0 .5.1c.2.1.3.1.4.2l.3.3c.1.1.1.3.2.4.1.2.1.5.1.8s-.1.6-.2.9-.3.4-.5.6c-.2.1-.5.2-.7.2s-.4 0-.6-.1c-.2-.1-.3-.2-.5-.3-.1-.1-.3-.3-.3-.5-.1-.1-.1-.3-.1-.5s-.1-.3-.1-.5c.1-.4.2-.7.3-.9z"/><path d="M66.6 114.6v-.8h.2c0 .3.1.4.1.5s.1.1.2.1.2.1.3.1h.4c.2 0 .3-.1.5-.2l.3-.3c.1-.1.1-.3.1-.4s0-.2-.1-.3c0-.1-.1-.1-.2-.2s-.2-.1-.3-.1h-.9c-.2 0-.3-.1-.4-.2s-.2-.2-.2-.3c-.1-.1-.1-.3-.1-.4 0-.2 0-.4.1-.6s.2-.3.5-.5c.2-.1.4-.2.7-.2h.5s.3.1.5.1v.7h-.2c0-.3-.1-.4-.1-.4-.1-.1-.1-.1-.2-.1-.2-.1-.4-.1-.6-.1-.3 0-.5.1-.6.3-.1.2-.2.4-.2.6 0 .1.1.3.1.3.1.1.2.1.3.2.1 0 .3.1.5.1s.4 0 .6.1c.2 0 .3.1.4.1.1.1.1.1.2.3.1.1.1.2.1.4 0 .3-.1.7-.4 1s-.6.4-1.1.5c-.4-.1-.7-.2-1-.3z"/><path fill="none" stroke="#000" stroke-width=".25" d="M66.6 114.6v-.8h.2c0 .3.1.4.1.5s.1.1.2.1.2.1.3.1h.4c.2 0 .3-.1.5-.2l.3-.3c.1-.1.1-.3.1-.4s0-.2-.1-.3c0-.1-.1-.1-.2-.2s-.2-.1-.3-.1h-.9c-.2 0-.3-.1-.4-.2s-.2-.2-.2-.3c-.1-.1-.1-.3-.1-.4 0-.2 0-.4.1-.6s.2-.3.5-.5c.2-.1.4-.2.7-.2h.5s.3.1.5.1v.7h-.2c0-.3-.1-.4-.1-.4-.1-.1-.1-.1-.2-.1-.2-.1-.4-.1-.6-.1-.3 0-.5.1-.6.3-.1.2-.2.4-.2.6 0 .1.1.3.1.3.1.1.2.1.3.2.1 0 .3.1.5.1s.4 0 .6.1c.2 0 .3.1.4.1.1.1.1.1.2.3.1.1.1.2.1.4 0 .3-.1.7-.4 1s-.6.4-1.1.5c-.4-.1-.7-.2-1-.3z"/><path d="M73.6 113.4l-.1.3-.6.3c-.2.1-.4.1-.6.2-.3.1-.5.1-.8 0-.2 0-.5-.1-.7-.2s-.3-.2-.5-.3c-.1-.1-.3-.3-.3-.5s-.1-.4-.2-.6c-.1-.5 0-1.1.3-1.5s.8-.7 1.5-.8c.2 0 .3 0 .5-.1s.3 0 .5 0h.4v.8h-.2l-.1-.3c-.1-.2-.2-.3-.3-.3s-.4-.1-.8 0c-.3.1-.5.1-.6.2-.2.1-.3.2-.4.3-.1.1-.2.3-.2.5-.1.2-.1.5 0 .8.1.5.3.9.7 1.2.4.3.8.4 1.4.3.2 0 .5-.1.7-.2.2.1.3 0 .4-.1z"/><path fill="none" stroke="#000" stroke-width=".25" d="M73.6 113.4l-.1.3-.6.3c-.2.1-.4.1-.6.2-.3.1-.5.1-.8 0-.2 0-.5-.1-.7-.2s-.3-.2-.5-.3c-.1-.1-.3-.3-.3-.5s-.1-.4-.2-.6c-.1-.5 0-1.1.3-1.5s.8-.7 1.5-.8c.2 0 .3 0 .5-.1s.3 0 .5 0h.4v.8h-.2l-.1-.3c-.1-.2-.2-.3-.3-.3s-.4-.1-.8 0c-.3.1-.5.1-.6.2-.2.1-.3.2-.4.3-.1.1-.2.3-.2.5-.1.2-.1.5 0 .8.1.5.3.9.7 1.2.4.3.8.4 1.4.3.2 0 .5-.1.7-.2.2.1.3 0 .4-.1z"/><path d="M74.8 113.6l-.1-.2c.2-.1.3-.1.3-.1v-.1-.3c-.1-.2-.1-.4-.1-.6l-.3-1.3c-.1-.2-.1-.5-.2-.7s-.1-.3-.1-.3h-.1c-.1 0-.2 0-.4.1l-.1-.2.7-.2.8-.2c.4-.1.6-.2.8-.2.2 0 .3-.1.5-.1v.3s0 .2.1.5l-.2.1c0-.2-.1-.3-.1-.5H76c-.2 0-.4.1-.6.1 0 0-.1 0-.3.1-.1 0-.2.1-.3.1 0 .2.1.4.1.5l.2.9c.2 0 .4-.1.5-.1.2-.1.4-.1.5-.2.1 0 .1 0 .1-.1v-.4h.2v.1l.1.5.2.6-.2.1-.1-.2c0-.1-.1-.2-.1-.2h-.1c-.1 0-.3 0-.6.1-.1 0-.3.1-.5.1 0 .2.1.4.2.8.1.3.1.5.2.7.3-.1.5-.1.8-.2.2-.1.4-.1.5-.1s.2-.1.2-.1v-.2-.4l.2-.1c.1.3.1.7.1.9-.1.1-.3.1-.5.2l-1.6.4c.2 0 0 0-.4.1z"/><path fill="none" stroke="#000" stroke-width=".25" d="M74.8 113.6l-.1-.2c.2-.1.3-.1.3-.1v-.1-.3c-.1-.2-.1-.4-.1-.6l-.3-1.3c-.1-.2-.1-.5-.2-.7s-.1-.3-.1-.3h-.1c-.1 0-.2 0-.4.1l-.1-.2.7-.2.8-.2c.4-.1.6-.2.8-.2.2 0 .3-.1.5-.1v.3s0 .2.1.5l-.2.1c0-.2-.1-.3-.1-.5H76c-.2 0-.4.1-.6.1 0 0-.1 0-.3.1-.1 0-.2.1-.3.1 0 .2.1.4.1.5l.2.9c.2 0 .4-.1.5-.1.2-.1.4-.1.5-.2.1 0 .1 0 .1-.1v-.4h.2v.1l.1.5.2.6-.2.1-.1-.2c0-.1-.1-.2-.1-.2h-.1c-.1 0-.3 0-.6.1-.1 0-.3.1-.5.1 0 .2.1.4.2.8.1.3.1.5.2.7.3-.1.5-.1.8-.2.2-.1.4-.1.5-.1s.2-.1.2-.1v-.2-.4l.2-.1c.1.3.1.7.1.9-.1.1-.3.1-.5.2l-1.6.4c.2 0 0 0-.4.1z"/><path d="M77.5 109.2l-.1-.2c.1 0 .2-.1.3-.1l.5-.1c.1 0 .2-.1.4-.2.3-.1.4-.1.4-.2.3-.1.5-.1.7-.1s.3.1.4.2.2.2.3.4c.1.1.1.3 0 .5s-.1.3-.2.5c-.1.1-.3.3-.5.4.1.1.2.1.4.3l.9.6c.3.2.4.3.4.3h.1s.1 0 .2-.1l.1.2c-.1 0-.2.1-.3.1-.1 0-.2.1-.3.1-.1-.1-.4-.3-.8-.5-.2-.1-.4-.3-.5-.4-.3-.2-.5-.3-.7-.4v-.1c.1 0 .1-.1.2-.1.3-.1.5-.3.6-.4.1-.2.1-.4 0-.6s-.2-.3-.4-.4c-.2-.1-.4-.1-.7 0-.2.1-.3.1-.5.3 0 .1.1.2.1.3 0 0 .1.3.2.7l.4 1.1c.1.2.1.5.2.7.1.1.1.3.1.3h.1s.2 0 .4-.1l.1.2c-.2.1-.5.1-.7.2s-.4.1-.8.3l-.1-.2c.2-.1.3-.1.3-.1l.1-.1s0-.1-.1-.3c0 0-.1-.3-.2-.7l-.4-1.2c-.1-.2-.1-.5-.2-.7-.1-.1-.1-.3-.1-.3h-.1c.1-.2 0-.2-.2-.1z"/><path fill="none" stroke="#000" stroke-width=".25" d="M77.5 109.2l-.1-.2c.1 0 .2-.1.3-.1l.5-.1c.1 0 .2-.1.4-.2.3-.1.4-.1.4-.2.3-.1.5-.1.7-.1s.3.1.4.2.2.2.3.4c.1.1.1.3 0 .5s-.1.3-.2.5c-.1.1-.3.3-.5.4.1.1.2.1.4.3l.9.6c.3.2.4.3.4.3h.1s.1 0 .2-.1l.1.2c-.1 0-.2.1-.3.1-.1 0-.2.1-.3.1-.1-.1-.4-.3-.8-.5-.2-.1-.4-.3-.5-.4-.3-.2-.5-.3-.7-.4v-.1c.1 0 .1-.1.2-.1.3-.1.5-.3.6-.4.1-.2.1-.4 0-.6s-.2-.3-.4-.4c-.2-.1-.4-.1-.7 0-.2.1-.3.1-.5.3 0 .1.1.2.1.3 0 0 .1.3.2.7l.4 1.1c.1.2.1.5.2.7.1.1.1.3.1.3h.1s.2 0 .4-.1l.1.2c-.2.1-.5.1-.7.2s-.4.1-.8.3l-.1-.2c.2-.1.3-.1.3-.1l.1-.1s0-.1-.1-.3c0 0-.1-.3-.2-.7l-.4-1.2c-.1-.2-.1-.5-.2-.7-.1-.1-.1-.3-.1-.3h-.1c.1-.2 0-.2-.2-.1z"/><path d="M82.6 111.3l-.1-.2c.2-.1.3-.1.3-.2v-.1s0-.1-.1-.3c-.1-.2-.1-.4-.2-.6l-.5-1.2-.3-.6c-.1-.1-.1-.2-.1-.3s-.1 0-.1 0c-.1 0-.2 0-.3.1l-.1-.2.7-.3.7-.3c.3-.1.6-.3.8-.3.2-.1.3-.1.5-.1 0 .1 0 .2.1.3 0 0 .1.2.2.5l-.2.1c-.1-.2-.1-.3-.2-.4-.1 0-.2 0-.3.1-.2.1-.4.1-.5.2 0 0-.1.1-.3.1-.1.1-.2.1-.3.1.1.2.1.3.2.5l.3.8c.2-.1.4-.1.5-.2.2-.1.3-.1.5-.2.1 0 .1-.1.1-.1s0-.1-.1-.2l-.1-.2.1-.1v.1l.2.5.2.6-.2.1-.1-.2c-.1-.1-.1-.2-.1-.2h-.1c-.1 0-.3.1-.5.2-.1.1-.3.1-.5.2.1.2.1.4.3.7.1.3.2.5.3.7.2-.1.5-.2.8-.3.2-.1.3-.1.4-.2l.2-.2v-.2c0-.2-.1-.3-.1-.3l.2-.1c.1.3.2.6.3.8-.1.1-.3.2-.5.2l-1.5.6c.1 0-.1.1-.5.3z"/><path fill="none" stroke="#000" stroke-width=".25" d="M82.6 111.3l-.1-.2c.2-.1.3-.1.3-.2v-.1s0-.1-.1-.3c-.1-.2-.1-.4-.2-.6l-.5-1.2-.3-.6c-.1-.1-.1-.2-.1-.3s-.1 0-.1 0c-.1 0-.2 0-.3.1l-.1-.2.7-.3.7-.3c.3-.1.6-.3.8-.3.2-.1.3-.1.5-.1 0 .1 0 .2.1.3 0 0 .1.2.2.5l-.2.1c-.1-.2-.1-.3-.2-.4-.1 0-.2 0-.3.1-.2.1-.4.1-.5.2 0 0-.1.1-.3.1-.1.1-.2.1-.3.1.1.2.1.3.2.5l.3.8c.2-.1.4-.1.5-.2.2-.1.3-.1.5-.2.1 0 .1-.1.1-.1s0-.1-.1-.2l-.1-.2.1-.1v.1l.2.5.2.6-.2.1-.1-.2c-.1-.1-.1-.2-.1-.2h-.1c-.1 0-.3.1-.5.2-.1.1-.3.1-.5.2.1.2.1.4.3.7.1.3.2.5.3.7.2-.1.5-.2.8-.3.2-.1.3-.1.4-.2l.2-.2v-.2c0-.2-.1-.3-.1-.3l.2-.1c.1.3.2.6.3.8-.1.1-.3.2-.5.2l-1.5.6c.1 0-.1.1-.5.3z"/><path d="M61.1.5c0 .3-.2.6-.1 1 .8.4 1.7.4 2.6.5-1.8 1 .8 1.6.6 2.6-.3.5.6.7.6 1.3-.6.4.2 1.4.2 2.1-.2 0-.3.2-.4.3.2.3.4.7.4 1.2-.2-.1-.3.1-.4.2 0 1 .9 1.8 1.8 2.2l-1.4.6c2.6 2.9 6.9.5 10.3 1.7.4-1 0-2.3.3-3.4.5-1.5 1.9-2.5 3.4-2.6 1 .2 2.1.3 2.8 1.2l.8 1.6.2 12.6.8.1c.5 1.1-.3 2-1.1 2.5-.7.2-1.7.5-2.3 0-1.8-1.5-.9-4.1-1.2-6.2l-.1-4.3c-.5-.1-1 .5-1.5 1 1.2 2.4.1 5.2-.8 7.4 0 .7-.1 1.5.5 1.9 1.4.3.5 2.2.7 3.3-2 1-3.9 2.9-4.9 4.9l4.9 1.3v1.2H50.1v-1c4.3-1.6 9-2.2 13.8-2.2l5.2-5.9v-.9l-3.8-3.6c-2.9 0-6.2.4-8.3-2-.4 1.3-.1 2.9.7 3.9l2 1.9c-.5.8-1.3 1.5-1.9 2.3-1.2-1.3-3.2-2.2-3.6-4.1l-.5.3-3.7-3.1v-7.1l5.8-.1.3-.3-.1-6c-.3-.3-.6-.5-1-.2-1 .6-.7 1.8-1.8 2.5-2.3-.3.8-1.7-1.3-2.4-.5.7-1.2.7-1.6-.1V7.4l3.6-4.2-1-1.1c.5-.2 1.4 0 1.6-.6l-.2-1c2.2 1.4 4.6.2 6.8 0z"/><path fill="none" d="M61.1.5c0 .3-.2.6-.1 1 .8.4 1.7.4 2.6.5-1.8 1 .8 1.6.6 2.6-.3.5.6.7.6 1.3-.6.4.2 1.4.2 2.1-.2 0-.3.2-.4.3.2.3.4.7.4 1.2-.2-.1-.3.1-.4.2 0 1 .9 1.8 1.8 2.2l-1.4.6c2.6 2.9 6.9.5 10.3 1.7.4-1 0-2.3.3-3.4.5-1.5 1.9-2.5 3.4-2.6 1 .2 2.1.3 2.8 1.2l.8 1.6.2 12.6.8.1c.5 1.1-.3 2-1.1 2.5-.7.2-1.7.5-2.3 0-1.8-1.5-.9-4.1-1.2-6.2l-.1-4.3c-.5-.1-1 .5-1.5 1 1.2 2.4.1 5.2-.8 7.4 0 .7-.1 1.5.5 1.9 1.4.3.5 2.2.7 3.3-2 1-3.9 2.9-4.9 4.9l4.9 1.3v1.2H50.1v-1c4.3-1.6 9-2.2 13.8-2.2l5.2-5.9v-.9l-3.8-3.6c-2.9 0-6.2.4-8.3-2-.4 1.3-.1 2.9.7 3.9l2 1.9c-.5.8-1.3 1.5-1.9 2.3-1.2-1.3-3.2-2.2-3.6-4.1l-.5.3-3.7-3.1v-7.1l5.8-.1.3-.3-.1-6c-.3-.3-.6-.5-1-.2-1 .6-.7 1.8-1.8 2.5-2.3-.3.8-1.7-1.3-2.4-.5.7-1.2.7-1.6-.1V7.4l3.6-4.2-1-1.1c.5-.2 1.4 0 1.6-.6l-.2-1c2.2 1.4 4.6.2 6.8 0z"/><path fill="#FFF" d="M59 2.6c-.3 1.1 1.1.8 1.6 1.5 2.1 1.9 2 4.7 2.1 7.5 2.1 4.3 7.4 3.4 11.5 3.5.8.5 1.5.5 2.2-.1.3-2-.6-5 2-5.7 1-.3 2 0 2.6.6.5.5.9 1.1.8 1.8-.8-.3-2-1.2-2.7-.5-.3 1.2 1.2.7 1.6 1.2l1 1.3c.4 3.6-.1 7.2.1 10.6-.5-.1-1.1-.6-1.1-1.2l-.1-8.9c-1.6-.2-3.1 1-4.1 2.4.2 1.3.9 3.1.2 4.6-.5 1.6-2 3.7-.4 5.3 1.2.3.4 1.4.6 2.1-2.1 1.2-3.9 3.5-5.2 5.3l-1.4-.3 4.5-5.2c.4-.7.1-1.6-.3-2.2l-4.8-4.6c-3.7.3-8.6 1.6-11.1-2h-2.7c-.5 2.5-.2 5.4 2.1 6.9 0 .3-.3.5-.5.7-3.1-1.5-2.5-5-3.8-7.6 1.7-1 3.8-1.8 5.6-2.7V16c-1 0-1.8.8-2.8 1 .1-.7.5-1.5 1.2-1.8.6-.5 2.2-.1 1.6-1.6v-.3c-.6-.1-1.4.1-2.1.4l-.1-5.3c.8-.3 1.8-.6 2.2-1.6-.1-.5-.6-.5-.9-1-.6.7-1.6 1.3-2.6 1-1.1-1.3-1.6 1-2.4 1.3-.5-.1-.9-.7-1.2-1 1-.8 1.5-3 3.3-2.2.2-.5-.8-1.1-.2-1.7.9-.8 2.8-1.9 3.7-.6z"/><path fill="none" d="M59 2.6c-.3 1.1 1.1.8 1.6 1.5 2.1 1.9 2 4.7 2.1 7.5 2.1 4.3 7.4 3.4 11.5 3.5.8.5 1.5.5 2.2-.1.3-2-.6-5 2-5.7 1-.3 2 0 2.6.6.5.5.9 1.1.8 1.8-.8-.3-2-1.2-2.7-.5-.3 1.2 1.2.7 1.6 1.2l1 1.3c.4 3.6-.1 7.2.1 10.6-.5-.1-1.1-.6-1.1-1.2l-.1-8.9c-1.6-.2-3.1 1-4.1 2.4.2 1.3.9 3.1.2 4.6-.5 1.6-2 3.7-.4 5.3 1.2.3.4 1.4.6 2.1-2.1 1.2-3.9 3.5-5.2 5.3l-1.4-.3 4.5-5.2c.4-.7.1-1.6-.3-2.2l-4.8-4.6c-3.7.3-8.6 1.6-11.1-2h-2.7c-.5 2.5-.2 5.4 2.1 6.9 0 .3-.3.5-.5.7-3.1-1.5-2.5-5-3.8-7.6 1.7-1 3.8-1.8 5.6-2.7V16c-1 0-1.8.8-2.8 1 .1-.7.5-1.5 1.2-1.8.6-.5 2.2-.1 1.6-1.6v-.3c-.6-.1-1.4.1-2.1.4l-.1-5.3c.8-.3 1.8-.6 2.2-1.6-.1-.5-.6-.5-.9-1-.6.7-1.6 1.3-2.6 1-1.1-1.3-1.6 1-2.4 1.3-.5-.1-.9-.7-1.2-1 1-.8 1.5-3 3.3-2.2.2-.5-.8-1.1-.2-1.7.9-.8 2.8-1.9 3.7-.6z"/><path fill="#FFF" d="M53.9 17.2c.3.3.3.7.4 1-.6.3-2.1.5-1.6 1.5.3.8.5 1.6.7 2.5-.7.1-1.5-.9-1.8-1.6-.3-1.2 0-2.4.4-3.5.6.2 1.2-.2 1.9.1z"/><path fill="none" d="M53.9 17.2c.3.3.3.7.4 1-.6.3-2.1.5-1.6 1.5.3.8.5 1.6.7 2.5-.7.1-1.5-.9-1.8-1.6-.3-1.2 0-2.4.4-3.5.6.2 1.2-.2 1.9.1z"/><path fill="#FFF" d="M73.4 28.4l-4.6 5-1.6-.1c.7-2 2.9-3.2 4.4-4.2.8-1.8-1.6-2.5-.7-4.2 1 1.1 3.5 1.7 2.5 3.5z"/><path fill="none" d="M73.4 28.4l-4.6 5-1.6-.1c.7-2 2.9-3.2 4.4-4.2.8-1.8-1.6-2.5-.7-4.2 1 1.1 3.5 1.7 2.5 3.5z"/><path fill="#FFF" d="M67.7 35.5c-1.2 0-2.7.6-3.6-.7l-.2-.5c1.4.1 3.3-.7 3.8 1.2z"/><path fill="#CA3827" d="M67.7 35.5c-1.2 0-2.7.6-3.6-.7l-.2-.5c1.4.1 3.3-.7 3.8 1.2z"/><path fill="#FFF" d="M62.7 35.3c-.3.3-1.9.3-2.8.1l-.8-.8c1.2 0 2.9-1 3.6.7z"/><path fill="#FFCD08" d="M62.7 35.3c-.3.3-1.9.3-2.8.1l-.8-.8c1.2 0 2.9-1 3.6.7z"/><path fill="#FFF" d="M73.3 35.3c-1.4-.1-3.3.9-4.1-.8 1.4.1 2.8.4 4.1.8z"/><path fill="#FFCD08" d="M73.3 35.3c-1.4-.1-3.3.9-4.1-.8 1.4.1 2.8.4 4.1.8z"/><path fill="#FFF" d="M57.7 35.3c-1 .2-2.2.3-3.1 0 .9-.1 2.2-1.1 3.1 0z"/><path fill="#CA3827" d="M57.7 35.3c-1 .2-2.2.3-3.1 0 .9-.1 2.2-1.1 3.1 0z"/><path d="M85.3 72.7c-.5 11.2-8.2 21.1-17.9 26.7l-2.8 1.3c-7.5-2.8-15.7-9.4-18.9-17.1-1.6-3.9-2.5-8.2-2.8-12.6l-1.4-28.4-.2-4 45.9-.2-1.9 34.3z"/><path fill="none" d="M85.3 72.7c-.5 11.2-8.2 21.1-17.9 26.7l-2.8 1.3c-7.5-2.8-15.7-9.4-18.9-17.1-1.6-3.9-2.5-8.2-2.8-12.6l-1.4-28.4-.2-4 45.9-.2-1.9 34.3z"/><path fill="#FFF" d="M84.5 62.2H65v-22c6.5-.4 13.8-.1 20.6-.2l-1.1 22.2z"/><path fill="#FFCD08" d="M84.5 62.2H65v-22c6.5-.4 13.8-.1 20.6-.2l-1.1 22.2z"/><path fill="#FFF" d="M63.3 62.2H43.7l-1.2-22c6.4 0 13.7-.3 20.7-.2l.1 22.2z"/><path fill="none" d="M63.3 62.2H43.7l-1.2-22c6.4 0 13.7-.3 20.7-.2l.1 22.2z"/><path d="M75.8 42.1c0 .5-.2 1-.6 1.2-.5.1-.9-.1-1.3-.5-.3-.5 0-1.1.5-1.4.7-.1 1.3.1 1.4.7z"/><path fill="none" d="M75.8 42.1c0 .5-.2 1-.6 1.2-.5.1-.9-.1-1.3-.5-.3-.5 0-1.1.5-1.4.7-.1 1.3.1 1.4.7z"/><path d="M53.3 43.6c.9-.7 2.2-1.1 3.3-.6 1 .6 2.5 1.2 3.7.5.1.7.2 1.9 1.4 1.6v13.7l-7.9.1c-.4.4-.1 1.1-.2 1.7h-2.1c-.3-.5.2-1.4-.4-1.7h-6.4V45.1c.4-.1 1 .3 1.2-.3v-1.2c2.6 1.3 5-2.4 7.4 0z"/><path fill="none" d="M53.3 43.6c.9-.7 2.2-1.1 3.3-.6 1 .6 2.5 1.2 3.7.5.1.7.2 1.9 1.4 1.6v13.7l-7.9.1c-.4.4-.1 1.1-.2 1.7h-2.1c-.3-.5.2-1.4-.4-1.7h-6.4V45.1c.4-.1 1 .3 1.2-.3v-1.2c2.6 1.3 5-2.4 7.4 0z"/><path d="M77.4 43.8c.6.8 1.7 1 2.5 1.6 2.4 2 3.6 4.7 3.1 7.8-.3 2.8-2.7 5.4-5.3 6.4-2.6.9-5.6.3-7.7-1.3-2.3-2-3.4-4.7-3-7.7.2-2.7 2.4-5.4 5-6.3.2-1 1.6-.3 2.4-.6l3 .1z"/><path fill="none" d="M77.4 43.8c.6.8 1.7 1 2.5 1.6 2.4 2 3.6 4.7 3.1 7.8-.3 2.8-2.7 5.4-5.3 6.4-2.6.9-5.6.3-7.7-1.3-2.3-2-3.4-4.7-3-7.7.2-2.7 2.4-5.4 5-6.3.2-1 1.6-.3 2.4-.6l3 .1z"/><path fill="#FFF" d="M50.8 44c.2 4.6.1 7.5.1 12.3l-4.1 1.1v-12c1.6 0 2.5-1.6 4-1.4z"/><path fill="none" d="M50.8 44c.2 4.6.1 7.5.1 12.3l-4.1 1.1v-12c1.6 0 2.5-1.6 4-1.4z"/><path fill="#FFF" d="M59.3 45.2v12.1c-1.8.1-3.2-1.7-5.2-.7V44.7c.6-.7 1.8-.7 2.6-.4.8.4 1.6 1.1 2.6.9z"/><path fill="none" d="M59.3 45.2v12.1c-1.8.1-3.2-1.7-5.2-.7V44.7c.6-.7 1.8-.7 2.6-.4.8.4 1.6 1.1 2.6.9z"/><path fill="#FFF" d="M53.1 44.8v13.7h-1V44.3c.3.1.8.1 1 .5z"/><path fill="#CA3827" d="M53.1 44.8v13.7h-1V44.3c.3.1.8.1 1 .5z"/><path fill="#FFCD08" d="M76.1 46.4c.2 1-.8 1.9-1.5 2.7L73 46.6c.9-.4 2.2-.6 3.1-.2z"/><path fill="none" d="M76.1 46.4c.2 1-.8 1.9-1.5 2.7L73 46.6c.9-.4 2.2-.6 3.1-.2z"/><path fill="#CA3827" d="M79.6 46.4L76 50.7c.2.5.6 1.4 0 2l-4.1 4.7h-1.4v-.3l3.6-4.2c-.3-.5-.5-1.3-.1-1.8l4.2-4.7c.5 0 1-.1 1.4 0z"/><path fill="none" d="M79.6 46.4L76 50.7c.2.5.6 1.4 0 2l-4.1 4.7h-1.4v-.3l3.6-4.2c-.3-.5-.5-1.3-.1-1.8l4.2-4.7c.5 0 1-.1 1.4 0z"/><path d="M73.9 49.9c-.4 1.3-1.6.9-2.4.4-.5-.4-1-.6-1.4-1.1 0-1 1.1-1.7 1.8-2.2 1.1.6 1.8 1.7 2 2.9z"/><path fill="none" d="M73.9 49.9c-.4 1.3-1.6.9-2.4.4-.5-.4-1-.6-1.4-1.1 0-1 1.1-1.7 1.8-2.2 1.1.6 1.8 1.7 2 2.9z"/><path fill="#FFF" d="M79.8 48.7c-.5 1-1.6 1.7-2.7 2l2.1-2.5c.4-.1.3.4.6.5z"/><path d="M79.8 48.7c-.5 1-1.6 1.7-2.7 2l2.1-2.5c.4-.1.3.4.6.5z"/><path fill="#FFF" d="M80.3 53.7c-1-.7-2-1.5-3.1-1.8v-.3c1.1-.3 2.1-1 3-1.8.6 1 .8 2.9.1 3.9z"/><path fill="#FFCD08" d="M80.3 53.7c-1-.7-2-1.5-3.1-1.8v-.3c1.1-.3 2.1-1 3-1.8.6 1 .8 2.9.1 3.9zM72.9 51.7c-.4.6-1.4.7-2.1 1.2l-1 .9c-.5-1.1-.8-2.8-.1-3.9 1 .8 2.1 1.6 3.2 1.8z"/><path fill="none" d="M72.9 51.7c-.4.6-1.4.7-2.1 1.2l-1 .9c-.5-1.1-.8-2.8-.1-3.9 1 .8 2.1 1.6 3.2 1.8z"/><path fill="#FFF" d="M79.9 54.7c0 .5-.4.9-.8 1.2-1-.8-2-1.5-3.2-1.8l1-1.2c1.1.3 2.1.9 3 1.8z"/><path d="M79.9 54.7c0 .5-.4.9-.8 1.2-1-.8-2-1.5-3.2-1.8l1-1.2c1.1.3 2.1.9 3 1.8z"/><path fill="#FFF" d="M72.8 53.1c-.6.8-1.4 1.8-2.2 2.4-.1-.3-.5-.5-.3-.8.8-.7 1.5-1.5 2.5-1.6z"/><path d="M72.8 53.1c-.6.8-1.4 1.8-2.2 2.4-.1-.3-.5-.5-.3-.8.8-.7 1.5-1.5 2.5-1.6z"/><path fill="#FFCD08" d="M78.1 56.5c-1.2.9-3.1 1.4-4.8.7.3-.7 1.1-1.5 1.6-2.2 1.3.1 2.6.5 3.2 1.5z"/><path fill="none" d="M78.1 56.5c-1.2.9-3.1 1.4-4.8.7.3-.7 1.1-1.5 1.6-2.2 1.3.1 2.6.5 3.2 1.5z"/><path fill="#CA3827" d="M84.5 63.7c-.1 11.1-1.9 22-10.8 29.3-2.9 2.7-6 4.6-9.2 6.2-6.3-2.4-12.5-7.6-16.2-13.5-3.5-6.5-4.4-14-4.4-21.8 13.5-.2 26.8-.3 40.6-.2z"/><path fill="none" d="M84.5 63.7c-.1 11.1-1.9 22-10.8 29.3-2.9 2.7-6 4.6-9.2 6.2-6.3-2.4-12.5-7.6-16.2-13.5-3.5-6.5-4.4-14-4.4-21.8 13.5-.2 26.8-.3 40.6-.2z"/><path d="M82.2 66.7c.3 2-2.1.3-2.7 1.7-2 2.3-.4 6.1-1.3 8.8-1.3 3.7-4.6 7-8 9.1-.3 1.3-1 2.7-2.3 3.3-.9.3-2.7.3-1.8 2 .3.5.5 1 1 1.5-2.6.4-5-.4-6.7-2.5-.3-.5-.6-1-1-1.4-1 .4-1.4 1.6-2.3 2-2-.6-2-5.1-4.6-2.7h-.2c-.3-1.5-.1-3 .2-4.5-.4-.4-1-.3-1.6-.3l.7-2.2c-1.3-2.4-1.1-5.8-.1-8.2 1.7-3.5 5.3-5.7 9-5.4 2.9.2 5.4 1.8 7.3 4.3.8.6.4 2.8 2 2.2 2.1-1.5 2.9-3.9 4.8-5.7 1.3-1.2 2.4-3.1 4.2-3.2 1.3-.1 2.5.2 3.4 1.2z"/><path fill="none" d="M82.2 66.7c.3 2-2.1.3-2.7 1.7-2 2.3-.4 6.1-1.3 8.8-1.3 3.7-4.6 7-8 9.1-.3 1.3-1 2.7-2.3 3.3-.9.3-2.7.3-1.8 2 .3.5.5 1 1 1.5-2.6.4-5-.4-6.7-2.5-.3-.5-.6-1-1-1.4-1 .4-1.4 1.6-2.3 2-2-.6-2-5.1-4.6-2.7h-.2c-.3-1.5-.1-3 .2-4.5-.4-.4-1-.3-1.6-.3l.7-2.2c-1.3-2.4-1.1-5.8-.1-8.2 1.7-3.5 5.3-5.7 9-5.4 2.9.2 5.4 1.8 7.3 4.3.8.6.4 2.8 2 2.2 2.1-1.5 2.9-3.9 4.8-5.7 1.3-1.2 2.4-3.1 4.2-3.2 1.3-.1 2.5.2 3.4 1.2z"/><path fill="#FFCD08" d="M80.3 66.7c-5 2.2-1.3 8.3-3.7 11.9-1.5 2.5-3.9 5.1-6.5 6.4-.2-1.1-1.2-2.1-2.2-2.6 1.3-2 1.6-4.6 1.4-7 2.2-.6 2.9-3 4.4-4.5 1.9-1.6 3.5-5.9 6.6-4.2z"/><path fill="none" d="M80.3 66.7c-5 2.2-1.3 8.3-3.7 11.9-1.5 2.5-3.9 5.1-6.5 6.4-.2-1.1-1.2-2.1-2.2-2.6 1.3-2 1.6-4.6 1.4-7 2.2-.6 2.9-3 4.4-4.5 1.9-1.6 3.5-5.9 6.6-4.2z"/><path fill="#FFF" d="M66.1 71.6c2 2 2.4 5.1 1.8 7.8-.3.7-.5 1.5-1 2.2-2-.8.6-2.2.3-3.5.2-1.3-.2-3-1-4.2-1.5-1.8-3.7-2.6-6-1.9-1 .5-2.1 1-2.8 2.1 1 1.8 1.3-.8 2.4-.7 1.2-.6 3-.7 4.2.1-2 .3-4.1 2.2-4.4 4.3-.9 1.1-1.3-.8-2.1-.7-.9-.4-2-.2-2.8.2-1.4.7-1.2 2.4-2.3 3.1-1.1-2.5-.7-5.8.8-7.9 2.1-2.8 5.4-4.1 9-3.3 1.4.4 2.9 1.3 3.9 2.4z"/><path fill="none" d="M66.1 71.6c2 2 2.4 5.1 1.8 7.8-.3.7-.5 1.5-1 2.2-2-.8.6-2.2.3-3.5.2-1.3-.2-3-1-4.2-1.5-1.8-3.7-2.6-6-1.9-1 .5-2.1 1-2.8 2.1 1 1.8 1.3-.8 2.4-.7 1.2-.6 3-.7 4.2.1-2 .3-4.1 2.2-4.4 4.3-.9 1.1-1.3-.8-2.1-.7-.9-.4-2-.2-2.8.2-1.4.7-1.2 2.4-2.3 3.1-1.1-2.5-.7-5.8.8-7.9 2.1-2.8 5.4-4.1 9-3.3 1.4.4 2.9 1.3 3.9 2.4z"/><path fill="#FFF" d="M66.1 75.9c.1.3.1.8.1 1.3-1.6-.1-2.8 2-4.2.2l-1-.1c.2-1.3 1.6-2.3 2.9-2.6 1.1-.2 1.9.2 2.2 1.2z"/><path fill="none" d="M66.1 75.9c.1.3.1.8.1 1.3-1.6-.1-2.8 2-4.2.2l-1-.1c.2-1.3 1.6-2.3 2.9-2.6 1.1-.2 1.9.2 2.2 1.2z"/><path fill="#FFF" d="M58.3 79.1c.3.8 0 1.6-.4 2.2-.5.7-1.4.8-2.2.7-.8-.1-1.3-.9-1.6-1.6-.1-.8.1-1.5.6-2.1.4-.3.9-.6 1.5-.6.9.2 1.7.6 2.1 1.4z"/><path fill="#CA3827" d="M58.3 79.1c.3.8 0 1.6-.4 2.2-.5.7-1.4.8-2.2.7-.8-.1-1.3-.9-1.6-1.6-.1-.8.1-1.5.6-2.1.4-.3.9-.6 1.5-.6.9.2 1.7.6 2.1 1.4zM62.9 79.1c-.3 1.5-2.4 1.3-3 2.8-1.4-.3 0-2-.4-3 .6-.6 1.7-.6 2.5-.4.2.3.7.2.9.6z"/><path fill="none" d="M62.9 79.1c-.3 1.5-2.4 1.3-3 2.8-1.4-.3 0-2-.4-3 .6-.6 1.7-.6 2.5-.4.2.3.7.2.9.6z"/><path fill="#CA3827" d="M65.6 82c-1.1.4-2.5 1.2-3.1 2.5l-.4 2.1c-1-.3-1.4-1.4-1.7-2.2.1-1 .3-2 1-2.7.9-.6 2.1-1 3.1-.5.5.3.8.4 1.1.8z"/><path fill="none" d="M65.6 82c-1.1.4-2.5 1.2-3.1 2.5l-.4 2.1c-1-.3-1.4-1.4-1.7-2.2.1-1 .3-2 1-2.7.9-.6 2.1-1 3.1-.5.5.3.8.4 1.1.8z"/><path fill="#FFF" d="M54.9 83c-.4.5-.6 1.4-.2 2 .4.7 1.2.6 1.8.5.3-.4.6-.1 1 0 0 .6-.6 1.7.1 2.4 1.1.4.1 1.1-.2 1.6-.8.2-1.2-1-1.7-1.5l-.7-1.6c-.5.2-1 .4-1.6.6-.1-1.5.1-3.2.6-4.6.4-.1.5.5.9.6z"/><path fill="none" d="M54.9 83c-.4.5-.6 1.4-.2 2 .4.7 1.2.6 1.8.5.3-.4.6-.1 1 0 0 .6-.6 1.7.1 2.4 1.1.4.1 1.1-.2 1.6-.8.2-1.2-1-1.7-1.5l-.7-1.6c-.5.2-1 .4-1.6.6-.1-1.5.1-3.2.6-4.6.4-.1.5.5.9.6z"/><path fill="#CA3827" d="M68.8 84.8c.3 1 .4 2-.1 2.8-.5.9-1.4 1.2-2.3 1.4-.9 0-1.8-.2-2.4-.9-.8-.8-.7-2.1-.4-3 .4-1 1.5-1.6 2.5-1.8 1 0 2.1.6 2.7 1.5z"/><path fill="none" d="M68.8 84.8c.3 1 .4 2-.1 2.8-.5.9-1.4 1.2-2.3 1.4-.9 0-1.8-.2-2.4-.9-.8-.8-.7-2.1-.4-3 .4-1 1.5-1.6 2.5-1.8 1 0 2.1.6 2.7 1.5z"/><path fill="#FFF" d="M63 90.5c.1-.5-.1-1.2-.2-1.8L65 90c-.1.8 0 1.5.3 2.2-2.1-.2-4.2-1.5-5-3.5-.4-.5.4-.7.6-1.1.5 1 1.1 2.2 2.1 2.9z"/><path fill="none" d="M63 90.5c.1-.5-.1-1.2-.2-1.8L65 90c-.1.8 0 1.5.3 2.2-2.1-.2-4.2-1.5-5-3.5-.4-.5.4-.7.6-1.1.5 1 1.1 2.2 2.1 2.9z"/><path d="M64.2 115.6c-7.9 0-17-3.3-17.1-3.3-.6-.3-3.1-1.5-4.9-1.5-.4 0-.7.1-1 .2-.2-4.4-.1-5.7-.1-5.9.1-.2.2-.3.4-.3 1-.4 3.5.8 4.7 1.4l.6.3c3.7 1.7 9 3.5 17.5 3.5s13.8-1.9 17.5-3.5l.6-.3c1.2-.6 3.7-1.8 4.7-1.4.2.1.3.2.3.3.1.2.1 1.5-.1 5.9-.3-.1-.6-.2-1-.2-1.8 0-4.3 1.2-4.9 1.5 0 0-9.2 3.3-17.1 3.3m.1 1c8.1 0 17.4-3.4 17.5-3.4 1.7-.8 4.4-1.8 5.2-1.3.1.1.2.2.2.5h.4v.4c7.1.1 22.2 4.9 23.1 7.4v.1c-.1.1-.2.3-.3.4l.2.2-.1.1c3.1 3 14.1 6.7 15 6.4l.4-.4c0-.1 0-.3-.2-.6-1.3-1.2-3.3-3.3-3.7-4.1 1.1-.3 4.3-1.2 4.2-2.1 0-.2-.1-.5-.7-.6-2.7-.4-6-1.6-10.1-3.6 0-.1.1-.1.1-.2.2-.7 0-1.4-.5-2.1-3.4-4.5-22.3-9-26.8-9v-.1c-.2-.4-.5-.7-.9-.9-1.3-.5-3.5.5-5.5 1.5l-.5.3c-3.6 1.6-8.7 3.5-17.1 3.5-8.3 0-13.5-1.9-17.1-3.5l-.5-.3c-2-1-4.2-1.9-5.5-1.5-.4.2-.8.5-.9.9v.1c-4.5 0-23.3 4.6-26.8 9-.5.7-.7 1.4-.5 2.1 0 .1 0 .1.1.2-4 2-7.4 3.2-10.1 3.6-.6.1-.7.5-.7.6 0 .9 3.1 1.8 4.2 2.1-.4.8-2.4 2.9-3.7 4.1-.3.2-.3.4-.2.6l.4.4c.9.3 11.9-3.5 15-6.4l-.1-.1.2-.2c-.1-.1-.2-.3-.3-.4v-.1c.9-2.5 16-7.3 23.1-7.4v-.4h.4c0-.3.1-.4.2-.5.8-.5 3.5.4 5.2 1.3.1 0 9.4 3.4 17.5 3.4M4.6 126c1.3-1.3 3.1-3.2 2.9-4.1-.1-.3-.3-.5-.6-.5-.8-.2-2.1-.6-2.9-1 1.5-.3 4.6-1.1 9.6-3.6l.7.7c.7.7 1.6 1.5 2.5 2.9v.1c-2.8 2.3-9.2 4.6-12.2 5.5zm35.6-14.2c-6.5.3-20.6 4.4-23.1 7.5-.8-1.1-1.6-1.8-2.2-2.4-.6-.5-1-.9-1.1-1.3-.1-.4 0-.8.4-1.2 3.2-4.1 21.4-8.5 25.9-8.6-.1.9 0 2.7.1 6zm48.1 0c.2-3.3.2-5.1.2-6.1 4.4.1 22.7 4.5 25.9 8.6.4.4.5.8.4 1.2-.1.4-.5.8-1.1 1.3-.6.6-1.4 1.3-2.2 2.4-2.6-3-16.8-7.1-23.2-7.4zm33.3 9.6c-.3.1-.5.2-.6.5-.2.9 1.6 2.9 2.9 4.1-3-.9-9.4-3.2-12.2-5.4v-.1c.9-1.4 1.8-2.2 2.5-2.9l.7-.7c5 2.5 8 3.3 9.6 3.6-.8.3-2.1.7-2.9.9z"/></svg>