<?xml version="1.0" encoding="utf-8"?>
<!-- Generator: Adobe Illustrator 18.0.0, SVG Export Plug-In . SVG Version: 6.00 Build 0)  -->
<!DOCTYPE svg PUBLIC "-//W3C//DTD SVG 1.1//EN" "http://www.w3.org/Graphics/SVG/1.1/DTD/svg11.dtd">
<svg version="1.1" id="Layer_1" xmlns="http://www.w3.org/2000/svg" xmlns:xlink="http://www.w3.org/1999/xlink" x="0px" y="0px"
	 viewBox="0 0 128 128" enable-background="new 0 0 128 128" xml:space="preserve">
<g>
	<g>
		<g id="b">
			<ellipse fill="#A4C639" stroke="#FFFFFF" stroke-width="14.4" cx="64.5" cy="42.2" rx="31.8" ry="29.4"/>
			<path fill="#A4C639" stroke="#FFFFFF" stroke-width="14.4" d="M40.4,34.9h48.3c4.2,0,7.7,3.4,7.7,7.7v48.3c0,4.2-3.4,7.7-7.7,7.7
				H40.4c-4.2,0-7.7-3.4-7.7-7.7V42.6C32.7,38.3,36.2,34.9,40.4,34.9z"/>
		</g>
	</g>
	<g>
		<g id="a">
			<path fill="#A4C639" stroke="#FFFFFF" stroke-width="7.2" d="M43.7,5.1L43.7,5.1c-1.1,0.6-1.5,2-0.9,3.1l12.4,22.3
				c0.6,1.1,2,1.5,3.1,0.9l0,0c1.1-0.6,1.5-2,0.9-3.1L46.8,5.9C46.2,4.9,44.8,4.5,43.7,5.1z"/>
			<path id="c" fill="#A4C639" stroke="#FFFFFF" stroke-width="7.2" d="M106.2,42.2L106.2,42.2c-4.6,0-8.4,3.8-8.4,8.4v29.7
				c0,4.6,3.8,8.4,8.4,8.4l0,0c4.6,0,8.4-3.8,8.4-8.4V50.6C114.6,46,110.8,42.2,106.2,42.2z"/>
			<g transform="scale(-1,1)">
				<path id="c_1_" fill="#A4C639" stroke="#FFFFFF" stroke-width="7.2" d="M-77,76.2L-77,76.2c-4.6,0-8.4,3.8-8.4,8.4v29.7
					c0,4.6,3.8,8.4,8.4,8.4l0,0c4.6,0,8.4-3.8,8.4-8.4V84.5C-68.6,79.9-72.3,76.2-77,76.2z"/>
			</g>
		</g>
		<g id="a_1_">
			<path fill="#A4C639" stroke="#FFFFFF" stroke-width="7.2" d="M85.4,5.1L85.4,5.1c1.1,0.6,1.5,2,0.9,3.1L73.9,30.5
				c-0.6,1.1-2,1.5-3.1,0.9l0,0c-1.1-0.6-1.5-2-0.9-3.1L82.3,5.9C82.9,4.9,84.3,4.5,85.4,5.1z"/>
			<path id="c_2_" fill="#A4C639" stroke="#FFFFFF" stroke-width="7.2" d="M22.9,42.2L22.9,42.2c4.6,0,8.4,3.8,8.4,8.4v29.7
				c0,4.6-3.8,8.4-8.4,8.4l0,0c-4.6,0-8.4-3.8-8.4-8.4V50.6C14.5,46,18.3,42.2,22.9,42.2z"/>
			<g>
				<path id="c_3_" fill="#A4C639" stroke="#FFFFFF" stroke-width="7.2" d="M52.7,76.2L52.7,76.2c4.6,0,8.4,3.8,8.4,8.4v29.7
					c0,4.6-3.8,8.4-8.4,8.4l0,0c-4.6,0-8.4-3.8-8.4-8.4V84.5C44.3,79.9,48,76.2,52.7,76.2z"/>
			</g>
		</g>
		<g id="b_1_">
			<ellipse fill="#A4C639" cx="64.5" cy="42.2" rx="31.8" ry="29.4"/>
			<path fill="#A4C639" d="M40.4,34.9h48.3c4.2,0,7.7,3.4,7.7,7.7v48.3c0,4.2-3.4,7.7-7.7,7.7H40.4c-4.2,0-7.7-3.4-7.7-7.7V42.6
				C32.7,38.3,36.2,34.9,40.4,34.9z"/>
		</g>
	</g>
	<g>
		<path fill="#FFFFFF" stroke="#FFFFFF" stroke-width="7.2" d="M31.3,43.5h66.4"/>
		<circle fill="#FFFFFF" stroke="#FFFFFF" stroke-width="7.2" cx="49.9" cy="27.9" r="1.4"/>
		<circle fill="#FFFFFF" stroke="#FFFFFF" stroke-width="7.2" cx="79.2" cy="27.9" r="1.4"/>
	</g>
</g>
</svg>
