<?xml version="1.0" encoding="utf-8"?>
<!-- Generator: Adobe Illustrator 18.0.0, SVG Export Plug-In . SVG Version: 6.00 Build 0)  -->
<!DOCTYPE svg PUBLIC "-//W3C//DTD SVG 1.1//EN" "http://www.w3.org/Graphics/SVG/1.1/DTD/svg11.dtd">
<svg version="1.1" id="Layer_1" xmlns="http://www.w3.org/2000/svg" xmlns:xlink="http://www.w3.org/1999/xlink" x="0px" y="0px"
	 viewBox="362 362 128 128" enable-background="new 362 362 128 128" xml:space="preserve">
<g transform="translate(239,244.1)">
	<path id="Cresc" d="M182.6,244.8c-28.5-12.8-27.1-50.9,2.4-63.3C137.9,173.9,136.7,248.3,182.6,244.8z"/>
	<path id="Cresc_1_" d="M134.1,219c-7.8-30.3,22.9-53,51-37.6C161.6,139.9,102.7,185.3,134.1,219z"/>
	<path id="Cresc_2_" d="M124,165c18.8-25,55.7-15.1,61.2,16.4C203,137.2,130.8,119.5,124,165z"/>
	<path id="Cresc_3_" d="M160,123.4c31.3-0.8,46.5,34.1,25.4,58.1C230.9,167.9,199.7,100.4,160,123.4z"/>
	<path id="Cresc_4_" d="M214.8,125.6c20.1,23.9,2.4,57.6-29.6,56C224.3,208.8,257.7,142.3,214.8,125.6z"/>
	<path id="Cresc_5_" d="M247.4,169.9c-6.1,30.7-43.6,37.8-62.3,11.8C188.2,229.2,261,213.8,247.4,169.9z"/>
	<path id="Cresc_6_" d="M233,222.9c-27.8,14.3-56.7-10.5-48-41.3C149.8,213.7,207.2,261,233,222.9z"/>
</g>
</svg>
