<svg xmlns="http://www.w3.org/2000/svg" viewBox="0 0 128 128"><path d="M103.8 91.3c-2.9-2.2-3.9-4.6-3.1-7.4.4-1.5 1.3-2.7 2.7-3.5.6-.3.8-.7.8-1.4V51.1c0-.3 0-.6-.1-1-3 .8-6 1.5-8.9 2.2-9.7 2.5-19.3 5-29 7.3-1.5.4-3.3.3-4.8-.1-18.1-4.6-36.1-9.3-53.9-14.8-1.1-.3-1.9-.8-1.9-2 0-1.3 1-1.7 2-2 11.2-3 22.4-6 33.7-8.9 6-1.6 12-3 17.9-4.5 3.6-.9 7.1-.8 10.6.1 17 4.4 33.9 8.8 50.5 14.3 1.9.6 2.5 1.1 2.4 2.3-.1 1.5-1.4 1.7-2.5 2-3.8 1-7.5 2-11.3 2.9-.7.2-.9.4-.9 1.2v28.8c0 .4.4.9.7 1.1 4.5 2.2 5.1 7.9 1.1 10.9-.6.4-.7.8-.4 1.4.8 2.2 1.6 4.4 2.3 6.6.6 1.8-.1 2.9-2 2.9h-6.3c-2 0-2.7-1.1-2.1-3 .8-2.6 1.6-5 2.5-7.5z"/><path d="M26.4 53.7c3.3.9 6.3 1.8 9.3 2.6 9 2.3 18 4.6 27 6.6 2 .4 4.3-.1 6.3-.6 10.4-2.6 20.8-5.3 31.2-7.9l1.5-.3c0 4.4.1 8.8 0 13.1-.1 2.5-1.7 4.2-3.6 5.6-3.3 2.5-7.2 3.9-11.2 4.9-9.4 2.4-18.9 3-28.6 2.5-6.3-.4-12.5-1.2-18.6-3-3.4-1-6.7-2.2-9.5-4.4-2.5-1.9-4-4.3-3.8-7.6.1-3.7 0-7.5 0-11.5z"/></svg>