<?xml version="1.0" encoding="utf-8"?>
<!-- Generator: Adobe Illustrator 18.0.0, SVG Export Plug-In . SVG Version: 6.00 Build 0)  -->
<!DOCTYPE svg PUBLIC "-//W3C//DTD SVG 1.1//EN" "http://www.w3.org/Graphics/SVG/1.1/DTD/svg11.dtd">
<svg version="1.1" id="Layer_1" xmlns="http://www.w3.org/2000/svg" xmlns:xlink="http://www.w3.org/1999/xlink" x="0px" y="0px"
	 viewBox="0 0 128 128" enable-background="new 0 0 128 128" xml:space="preserve">
<path d="M103.8,91.3c-2.9-2.2-3.9-4.6-3.1-7.4c0.4-1.5,1.3-2.7,2.7-3.5c0.6-0.3,0.8-0.7,0.8-1.4V51.1c0-0.3,0-0.6-0.1-1
	c-3,0.8-6,1.5-8.9,2.2c-9.7,2.5-19.3,5-29,7.3c-1.5,0.4-3.3,0.3-4.8-0.1c-18.1-4.6-36.1-9.3-53.9-14.8c-1.1-0.3-1.9-0.8-1.9-2
	c0-1.3,1-1.7,2-2c11.2-3,22.4-6,33.7-8.9c6-1.6,12-3,17.9-4.5c3.6-0.9,7.1-0.8,10.6,0.1c17,4.4,33.9,8.8,50.5,14.3
	c1.9,0.6,2.5,1.1,2.4,2.3c-0.1,1.5-1.4,1.7-2.5,2c-3.8,1-7.5,2-11.3,2.9c-0.7,0.2-0.9,0.4-0.9,1.2v28.8c0,0.4,0.4,0.9,0.7,1.1
	c4.5,2.2,5.1,7.9,1.1,10.9c-0.6,0.4-0.7,0.8-0.4,1.4c0.8,2.2,1.6,4.4,2.3,6.6c0.6,1.8-0.1,2.9-2,2.9h-6.3c-2,0-2.7-1.1-2.1-3
	C102.1,96.2,102.9,93.8,103.8,91.3z"/>
<path d="M26.4,53.7c3.3,0.9,6.3,1.8,9.3,2.6c9,2.3,18,4.6,27,6.6c2,0.4,4.3-0.1,6.3-0.6c10.4-2.6,20.8-5.3,31.2-7.9l1.5-0.3
	c0,4.4,0.1,8.8,0,13.1c-0.1,2.5-1.7,4.2-3.6,5.6c-3.3,2.5-7.2,3.9-11.2,4.9c-9.4,2.4-18.9,3-28.6,2.5c-6.3-0.4-12.5-1.2-18.6-3
	c-3.4-1-6.7-2.2-9.5-4.4c-2.5-1.9-4-4.3-3.8-7.6C26.5,61.5,26.4,57.7,26.4,53.7z"/>
</svg>
