<svg xmlns="http://www.w3.org/2000/svg" viewBox="0 0 128 128"><path d="M117.7 63.1L66.3 11.2c-1.2-1.3-3.3-1.3-4.6 0L10.3 63.1c-1.1 1.1-1 2.8.1 3.9l6.9 6.3c1.2 1.1 3.3 1.1 4.5-.1l1.9-1.9c1.7-1.7 4.8-6.2 4.8-3.9v47.9c0 1.4 1.2 2.5 2.7 2.5h36.1c1.6 0 2.8-1.3 2.8-2.8V97.2c0-1.7 1.3-3 3-3h9.4c1.7 0 3 1.3 3 3V115c0 1.6 1.3 2.8 2.8 2.8h8.3c1.5 0 2.7-1.1 2.7-2.5V67.4c0-2.3 3.1 2.3 4.8 3.9l1.9 1.9c1.2 1.2 3.2 1.2 4.5.1l7-6.3c1.2-1 1.3-2.8.2-3.9zM55.6 80.2c0 2-1.6 3.6-3.6 3.6h-7c-2 0-3.6-1.6-3.6-3.6v-7.1c0-2 1.6-3.6 3.6-3.6h7.1c2 0 3.6 1.6 3.6 3.6v7.1z"/></svg>