<svg xmlns="http://www.w3.org/2000/svg" viewBox="0 0 128 128"><path d="M40.8 38.4c-11.1 11.1-17.6 24-20.4 39.3H50c5.2 0 7.2 2.1 7.2 7.2v32.6c0 .9-.1 1.9-.3 2.8-.7 2.8-3.1 4.5-5.9 4.2-2.6-.2-4.8-2.3-4.9-5.1-.1-8.7-.1-17.3-.1-26v-4.5H14.8c-4.1 0-6.3-2.1-6.1-6.2.6-12.7 4.7-24.4 11-35.4 4.4-7.7 10.1-14.4 16.9-20.2 4-3.5 8.3-2.4 10.1 2.6 2.5 6.8 4.9 13.6 7.3 20.4.5 1.4 1.2 1.9 2.7 1.9 8.3-.1 16.6 0 24.8 0 .8 0 1.7.1 2.5.3 2 .6 2.9 2.1 2.8 4.1s-1.3 3.5-3.4 3.9c-.7.1-1.4.1-2.1.1H53.2c-3.8 0-4.7-.6-6-4.3-2.1-5.8-4.2-11.6-6.4-17.7zM110.9 65.9c-2-4.1-3.8-7.9-5.8-12-1.1 2.5-2 4.6-3 6.9-2.6-1.1-5-2.2-7.7-3.3 6.1-14.2 12.1-28.2 18.2-42.4 2.6 1.1 5.1 2.2 7.7 3.3-3.6 8.3-6.9 16.5-10.6 24.6-1.3 2.8-1.5 5 .1 7.9 2.9 5.1 5.2 10.5 7.7 15.8 1.4 3 .3 4.8-3.1 4.8h-11.2c-2.1 0-3.7-1.3-3.4-2.9.3-2 1.5-2.7 3.5-2.6 2.3 0 4.7-.1 7.6-.1z"/><path d="M83.5 65.9h7.7c1.8 0 2.9 1 3 2.6.1 1.8-1 2.9-2.9 3H75.6c-1.8 0-2.9-1.1-2.9-2.8 0-1.8 1.1-2.8 3-2.8h7.8z"/><circle cx="57.1" cy="16.9" r="12"/></svg>