<?xml version="1.0" encoding="utf-8"?>
<!-- Generator: Adobe Illustrator 18.0.0, SVG Export Plug-In . SVG Version: 6.00 Build 0)  -->
<!DOCTYPE svg PUBLIC "-//W3C//DTD SVG 1.1//EN" "http://www.w3.org/Graphics/SVG/1.1/DTD/svg11.dtd">
<svg version="1.1" id="Layer_1" xmlns="http://www.w3.org/2000/svg" xmlns:xlink="http://www.w3.org/1999/xlink" x="0px" y="0px"
	 viewBox="0 0 128 128" enable-background="new 0 0 128 128" xml:space="preserve">
<path d="M16.8,114.5l-0.1-0.1c0.1,0,0.1-0.1,0.3-0.1l0.5-0.2c0.1-0.1,0.2-0.1,0.4-0.2c0.2-0.1,0.4-0.2,0.4-0.3
	c0.3-0.2,0.5-0.3,0.7-0.3s0.3,0,0.5,0.1c0.1,0.1,0.3,0.2,0.3,0.3c0.1,0.1,0.1,0.3,0.1,0.5s0,0.3-0.1,0.5c-0.1,0.1-0.2,0.3-0.4,0.5
	c0.1,0,0.2,0.1,0.5,0.2l1,0.4c0.3,0.1,0.5,0.2,0.5,0.2s0,0,0.1,0c0,0,0.1,0,0.1-0.1l0.1,0.1c-0.1,0.1-0.2,0.1-0.3,0.1
	c-0.1,0.1-0.2,0.1-0.3,0.2c-0.2-0.1-0.5-0.2-0.9-0.4c-0.2-0.1-0.4-0.2-0.6-0.3c-0.3-0.1-0.5-0.2-0.8-0.3v-0.1c0.1,0,0.1-0.1,0.2-0.1
	c0.3-0.1,0.4-0.3,0.5-0.5s0-0.4-0.1-0.6s-0.3-0.3-0.4-0.3c-0.2-0.1-0.4,0-0.7,0.1c-0.1,0.1-0.3,0.2-0.4,0.3c0,0.1,0.1,0.2,0.1,0.2
	s0.1,0.3,0.3,0.7l0.6,1c0.1,0.2,0.2,0.4,0.3,0.6c0.1,0.1,0.1,0.2,0.2,0.3h0.1c0.1,0,0.2-0.1,0.3-0.1l0.1,0.1
	c-0.2,0.1-0.4,0.2-0.6,0.3c-0.1,0.1-0.4,0.2-0.7,0.4l-0.1-0.1c0.2-0.1,0.3-0.2,0.3-0.2l0.1-0.1c0,0,0-0.1-0.1-0.2
	c0,0-0.1-0.3-0.3-0.7l-0.6-1.1c-0.1-0.2-0.2-0.4-0.3-0.6c-0.1-0.1-0.1-0.2-0.2-0.2h-0.1C17.1,114.3,17,114.3,16.8,114.5z"/>
<path fill="none" stroke="#000000" stroke-width="0.25" d="M16.8,114.5l-0.1-0.1c0.1,0,0.1-0.1,0.3-0.1l0.5-0.2
	c0.1-0.1,0.2-0.1,0.4-0.2c0.2-0.1,0.4-0.2,0.4-0.3c0.3-0.2,0.5-0.3,0.7-0.3s0.3,0,0.5,0.1c0.1,0.1,0.3,0.2,0.3,0.3
	c0.1,0.1,0.1,0.3,0.1,0.5s0,0.3-0.1,0.5c-0.1,0.1-0.2,0.3-0.4,0.5c0.1,0,0.2,0.1,0.5,0.2l1,0.4c0.3,0.1,0.5,0.2,0.5,0.2s0,0,0.1,0
	c0,0,0.1,0,0.1-0.1l0.1,0.1c-0.1,0.1-0.2,0.1-0.3,0.1c-0.1,0.1-0.2,0.1-0.3,0.2c-0.2-0.1-0.5-0.2-0.9-0.4c-0.2-0.1-0.4-0.2-0.6-0.3
	c-0.3-0.1-0.5-0.2-0.8-0.3v-0.1c0.1,0,0.1-0.1,0.2-0.1c0.3-0.1,0.4-0.3,0.5-0.5s0-0.4-0.1-0.6s-0.3-0.3-0.4-0.3
	c-0.2-0.1-0.4,0-0.7,0.1c-0.1,0.1-0.3,0.2-0.4,0.3c0,0.1,0.1,0.2,0.1,0.2s0.1,0.3,0.3,0.7l0.6,1c0.1,0.2,0.2,0.4,0.3,0.6
	c0.1,0.1,0.1,0.2,0.2,0.3h0.1c0.1,0,0.2-0.1,0.3-0.1l0.1,0.1c-0.2,0.1-0.4,0.2-0.6,0.3c-0.1,0.1-0.4,0.2-0.7,0.4l-0.1-0.1
	c0.2-0.1,0.3-0.2,0.3-0.2l0.1-0.1c0,0,0-0.1-0.1-0.2c0,0-0.1-0.3-0.3-0.7l-0.6-1.1c-0.1-0.2-0.2-0.4-0.3-0.6
	c-0.1-0.1-0.1-0.2-0.2-0.2h-0.1C17.1,114.3,17,114.3,16.8,114.5z"/>
<path d="M22.4,115.6l-0.1-0.2c0.2-0.1,0.3-0.1,0.3-0.2c0,0,0,0,0-0.1s0-0.1-0.1-0.3c-0.1-0.2-0.1-0.4-0.2-0.6l-0.5-1.2
	c-0.1-0.2-0.2-0.4-0.3-0.6c-0.1-0.1-0.1-0.2-0.1-0.3h-0.1c-0.1,0-0.2,0-0.3,0.1l-0.1-0.2l0.7-0.3l0.7-0.3c0.3-0.1,0.6-0.3,0.8-0.3
	c0.2-0.1,0.3-0.1,0.5-0.1c0,0.1,0,0.2,0.1,0.3c0,0,0.1,0.2,0.2,0.5l-0.2,0.1c-0.1-0.2-0.1-0.3-0.2-0.4c-0.1,0-0.2,0-0.3,0.1
	c-0.2,0.1-0.4,0.1-0.5,0.2c0,0-0.1,0.1-0.3,0.1c-0.1,0.1-0.2,0.1-0.3,0.1c0.1,0.2,0.1,0.3,0.2,0.5l0.3,0.8c0.2-0.1,0.4-0.1,0.5-0.2
	c0.2-0.1,0.3-0.1,0.5-0.2c0.1,0,0.1-0.1,0.1-0.1s0-0.1,0-0.2l-0.1-0.2l0.1-0.1v0.1l0.2,0.5l0.2,0.6l-0.2,0.1l-0.1-0.2
	c-0.1-0.1-0.1-0.2-0.1-0.2h-0.1c-0.1,0-0.3,0.1-0.5,0.2c-0.1,0.1-0.3,0.1-0.5,0.2c0.1,0.2,0.1,0.4,0.3,0.7c0.1,0.3,0.2,0.5,0.3,0.7
	c0.2-0.1,0.5-0.2,0.8-0.3c0.2-0.1,0.3-0.1,0.4-0.2s0.1-0.1,0.2-0.2c0-0.1,0-0.1,0-0.2c0-0.2-0.1-0.3-0.1-0.3l0.2-0.1
	c0.1,0.3,0.2,0.6,0.3,0.8c-0.1,0.1-0.3,0.2-0.5,0.2l-1.5,0.6C23,115.3,22.8,115.4,22.4,115.6z"/>
<path fill="none" stroke="#000000" stroke-width="0.25" d="M22.4,115.6l-0.1-0.2c0.2-0.1,0.3-0.1,0.3-0.2c0,0,0,0,0-0.1
	s0-0.1-0.1-0.3c-0.1-0.2-0.1-0.4-0.2-0.6l-0.5-1.2c-0.1-0.2-0.2-0.4-0.3-0.6c-0.1-0.1-0.1-0.2-0.1-0.3h-0.1c-0.1,0-0.2,0-0.3,0.1
	l-0.1-0.2l0.7-0.3l0.7-0.3c0.3-0.1,0.6-0.3,0.8-0.3c0.2-0.1,0.3-0.1,0.5-0.1c0,0.1,0,0.2,0.1,0.3c0,0,0.1,0.2,0.2,0.5l-0.2,0.1
	c-0.1-0.2-0.1-0.3-0.2-0.4c-0.1,0-0.2,0-0.3,0.1c-0.2,0.1-0.4,0.1-0.5,0.2c0,0-0.1,0.1-0.3,0.1c-0.1,0.1-0.2,0.1-0.3,0.1
	c0.1,0.2,0.1,0.3,0.2,0.5l0.3,0.8c0.2-0.1,0.4-0.1,0.5-0.2c0.2-0.1,0.3-0.1,0.5-0.2c0.1,0,0.1-0.1,0.1-0.1s0-0.1,0-0.2l-0.1-0.2
	l0.1-0.1v0.1l0.2,0.5l0.2,0.6l-0.2,0.1l-0.1-0.2c-0.1-0.1-0.1-0.2-0.1-0.2h-0.1c-0.1,0-0.3,0.1-0.5,0.2c-0.1,0.1-0.3,0.1-0.5,0.2
	c0.1,0.2,0.1,0.4,0.3,0.7c0.1,0.3,0.2,0.5,0.3,0.7c0.2-0.1,0.5-0.2,0.8-0.3c0.2-0.1,0.3-0.1,0.4-0.2s0.1-0.1,0.2-0.2
	c0-0.1,0-0.1,0-0.2c0-0.2-0.1-0.3-0.1-0.3l0.2-0.1c0.1,0.3,0.2,0.6,0.3,0.8c-0.1,0.1-0.3,0.2-0.5,0.2l-1.5,0.6
	C23,115.3,22.8,115.4,22.4,115.6z"/>
<path d="M24.9,110.7l-0.1-0.2c0.1,0,0.2-0.1,0.3-0.1l0.5-0.1c0.1,0,0.2-0.1,0.4-0.1c0.3-0.1,0.4-0.1,0.5-0.2
	c0.3-0.1,0.6-0.1,0.7-0.1c0.2,0,0.3,0.1,0.4,0.2s0.2,0.2,0.3,0.4c0.1,0.1,0.1,0.3,0,0.5s-0.1,0.3-0.2,0.5c-0.1,0.1-0.3,0.3-0.5,0.4
	c0.1,0.1,0.2,0.1,0.4,0.3l0.9,0.6c0.3,0.2,0.4,0.3,0.4,0.3s0,0,0.1,0s0.1,0,0.2,0l0.1,0.2c-0.1,0-0.2,0.1-0.3,0.1
	c-0.1,0-0.2,0.1-0.3,0.1c-0.1-0.1-0.4-0.3-0.8-0.6c-0.2-0.2-0.4-0.3-0.5-0.4c-0.3-0.2-0.5-0.3-0.7-0.5v-0.1c0.1,0,0.1,0,0.2-0.1
	c0.3-0.1,0.5-0.2,0.6-0.4s0.1-0.4,0.1-0.6c-0.1-0.2-0.2-0.3-0.3-0.4c-0.2-0.1-0.4-0.1-0.7,0c-0.2,0.1-0.3,0.1-0.5,0.2
	c0,0.1,0,0.2,0.1,0.3c0,0,0.1,0.3,0.2,0.7l0.3,1.1c0.1,0.2,0.1,0.5,0.2,0.7s0.1,0.3,0.1,0.3h0.1c0.1,0,0.2,0,0.4-0.1l0.1,0.2
	c-0.2,0.1-0.5,0.1-0.7,0.2s-0.4,0.1-0.8,0.3l-0.1-0.2c0.2-0.1,0.3-0.1,0.3-0.1l0.1-0.1c0,0,0-0.1,0-0.3c0,0-0.1-0.3-0.2-0.7
	l-0.4-1.2c-0.1-0.2-0.1-0.5-0.2-0.7s-0.1-0.3-0.1-0.3h-0.1C25.2,110.6,25.1,110.6,24.9,110.7z"/>
<path fill="none" stroke="#000000" stroke-width="0.25" d="M24.9,110.7l-0.1-0.2c0.1,0,0.2-0.1,0.3-0.1l0.5-0.1
	c0.1,0,0.2-0.1,0.4-0.1c0.3-0.1,0.4-0.1,0.5-0.2c0.3-0.1,0.6-0.1,0.7-0.1c0.2,0,0.3,0.1,0.4,0.2s0.2,0.2,0.3,0.4
	c0.1,0.1,0.1,0.3,0,0.5s-0.1,0.3-0.2,0.5c-0.1,0.1-0.3,0.3-0.5,0.4c0.1,0.1,0.2,0.1,0.4,0.3l0.9,0.6c0.3,0.2,0.4,0.3,0.4,0.3
	s0,0,0.1,0s0.1,0,0.2,0l0.1,0.2c-0.1,0-0.2,0.1-0.3,0.1c-0.1,0-0.2,0.1-0.3,0.1c-0.1-0.1-0.4-0.3-0.8-0.6c-0.2-0.2-0.4-0.3-0.5-0.4
	c-0.3-0.2-0.5-0.3-0.7-0.5v-0.1c0.1,0,0.1,0,0.2-0.1c0.3-0.1,0.5-0.2,0.6-0.4s0.1-0.4,0.1-0.6c-0.1-0.2-0.2-0.3-0.3-0.4
	c-0.2-0.1-0.4-0.1-0.7,0c-0.2,0.1-0.3,0.1-0.5,0.2c0,0.1,0,0.2,0.1,0.3c0,0,0.1,0.3,0.2,0.7l0.3,1.1c0.1,0.2,0.1,0.5,0.2,0.7
	s0.1,0.3,0.1,0.3h0.1c0.1,0,0.2,0,0.4-0.1l0.1,0.2c-0.2,0.1-0.5,0.1-0.7,0.2s-0.4,0.1-0.8,0.3l-0.1-0.2c0.2-0.1,0.3-0.1,0.3-0.1
	l0.1-0.1c0,0,0-0.1,0-0.3c0,0-0.1-0.3-0.2-0.7l-0.4-1.2c-0.1-0.2-0.1-0.5-0.2-0.7s-0.1-0.3-0.1-0.3h-0.1
	C25.2,110.6,25.1,110.6,24.9,110.7z"/>
<path d="M28.7,109.5v-0.2c0.3-0.1,0.5-0.1,0.8-0.2c0.2-0.1,0.5-0.1,0.7-0.2v0.2c-0.2,0.1-0.3,0.1-0.3,0.1l-0.1,0.1c0,0,0,0.1,0,0.3
	c0,0,0.1,0.3,0.2,0.7l0.2,1c0.1,0.4,0.2,0.6,0.3,0.7c0.1,0.1,0.2,0.2,0.3,0.2c0.1,0,0.2,0.1,0.3,0.1c0.1,0,0.3,0,0.5-0.1
	s0.3-0.1,0.5-0.2c0.1-0.1,0.2-0.2,0.3-0.3c0.1-0.1,0.1-0.2,0.1-0.3c0-0.1,0-0.2,0-0.4c0-0.1-0.1-0.3-0.1-0.6l-0.2-0.8
	c-0.1-0.2-0.1-0.5-0.2-0.7c-0.1-0.2-0.1-0.3-0.1-0.3s-0.1,0-0.1-0.1c-0.1,0-0.2,0-0.4,0.1v-0.2c0.3-0.1,0.5-0.1,0.6-0.1
	c0.1,0,0.3-0.1,0.6-0.2v0.2c-0.2,0.1-0.3,0.1-0.4,0.1l-0.1,0.1c0,0,0,0.1,0,0.3c0,0,0.1,0.3,0.2,0.7l0.2,0.9
	c0.1,0.4,0.1,0.7,0.1,0.9c0,0.2-0.1,0.3-0.2,0.5c-0.1,0.1-0.2,0.2-0.4,0.3c-0.2,0.1-0.4,0.2-0.6,0.2c-0.3,0.1-0.5,0.1-0.7,0.1
	s-0.4-0.1-0.5-0.1c-0.1-0.1-0.2-0.2-0.3-0.3c-0.1-0.1-0.2-0.3-0.3-0.7l-0.3-1.1c-0.1-0.2-0.1-0.5-0.2-0.7s-0.1-0.3-0.1-0.3
	s-0.1,0-0.1-0.1C29,109.5,28.9,109.5,28.7,109.5z"/>
<path fill="none" stroke="#000000" stroke-width="0.25" d="M28.7,109.5v-0.2c0.3-0.1,0.5-0.1,0.8-0.2c0.2-0.1,0.5-0.1,0.7-0.2v0.2
	c-0.2,0.1-0.3,0.1-0.3,0.1l-0.1,0.1c0,0,0,0.1,0,0.3c0,0,0.1,0.3,0.2,0.7l0.2,1c0.1,0.4,0.2,0.6,0.3,0.7c0.1,0.1,0.2,0.2,0.3,0.2
	c0.1,0,0.2,0.1,0.3,0.1c0.1,0,0.3,0,0.5-0.1s0.3-0.1,0.5-0.2c0.1-0.1,0.2-0.2,0.3-0.3c0.1-0.1,0.1-0.2,0.1-0.3c0-0.1,0-0.2,0-0.4
	c0-0.1-0.1-0.3-0.1-0.6l-0.2-0.8c-0.1-0.2-0.1-0.5-0.2-0.7c-0.1-0.2-0.1-0.3-0.1-0.3s-0.1,0-0.1-0.1c-0.1,0-0.2,0-0.4,0.1v-0.2
	c0.3-0.1,0.5-0.1,0.6-0.1c0.1,0,0.3-0.1,0.6-0.2v0.2c-0.2,0.1-0.3,0.1-0.4,0.1l-0.1,0.1c0,0,0,0.1,0,0.3c0,0,0.1,0.3,0.2,0.7
	l0.2,0.9c0.1,0.4,0.1,0.7,0.1,0.9c0,0.2-0.1,0.3-0.2,0.5c-0.1,0.1-0.2,0.2-0.4,0.3c-0.2,0.1-0.4,0.2-0.6,0.2
	c-0.3,0.1-0.5,0.1-0.7,0.1s-0.4-0.1-0.5-0.1c-0.1-0.1-0.2-0.2-0.3-0.3c-0.1-0.1-0.2-0.3-0.3-0.7l-0.3-1.1c-0.1-0.2-0.1-0.5-0.2-0.7
	s-0.1-0.3-0.1-0.3s-0.1,0-0.1-0.1C29,109.5,28.9,109.5,28.7,109.5z"/>
<path d="M33.2,108.4v-0.2c0.2,0,0.4,0,0.5-0.1c0.2,0,0.3-0.1,0.5-0.1c0.2,0.3,0.4,0.6,0.6,0.9l1.3,1.9l0.6-2c0.2-0.5,0.3-1,0.3-1.2
	c0.2,0,0.3,0,0.5-0.1s0.3-0.1,0.6-0.1v0.2c-0.2,0-0.3,0.1-0.4,0.1l-0.1,0.1c0,0,0,0.1,0,0.3c0,0,0,0.3,0.1,0.7l0.2,1.2
	c0,0.2,0.1,0.5,0.1,0.7s0.1,0.3,0.1,0.3l0.1,0.1c0.1,0,0.2,0,0.4,0v0.2c-0.3,0.1-0.6,0.1-0.7,0.1c-0.1,0-0.4,0.1-0.8,0.1v-0.2
	c0.2,0,0.3-0.1,0.4-0.1l0.1-0.1c0,0,0-0.1,0-0.3c0,0,0-0.3-0.1-0.7l-0.3-1.9l-0.6,2c-0.1,0.3-0.2,0.6-0.2,0.8c0,0.1-0.1,0.4-0.2,0.7
	h-0.1c0-0.1-0.1-0.1-0.1-0.1l-0.2-0.3l-1.7-2.4l0.3,1.8c0,0.2,0.1,0.5,0.1,0.7s0.1,0.3,0.1,0.3l0.1,0.1c0,0,0.2,0,0.4,0v0.2
	l-0.6,0.1l-0.7,0.1V112c0.2,0,0.3-0.1,0.4-0.1l0.1-0.1c0,0,0-0.1,0-0.3c0,0,0-0.3-0.1-0.7l-0.2-1.2c0-0.2-0.1-0.5-0.1-0.7
	s-0.1-0.3-0.1-0.3l-0.1-0.1C33.6,108.4,33.4,108.4,33.2,108.4z"/>
<path fill="none" stroke="#000000" stroke-width="0.25" d="M33.2,108.4v-0.2c0.2,0,0.4,0,0.5-0.1c0.2,0,0.3-0.1,0.5-0.1
	c0.2,0.3,0.4,0.6,0.6,0.9l1.3,1.9l0.6-2c0.2-0.5,0.3-1,0.3-1.2c0.2,0,0.3,0,0.5-0.1s0.3-0.1,0.6-0.1v0.2c-0.2,0-0.3,0.1-0.4,0.1
	l-0.1,0.1c0,0,0,0.1,0,0.3c0,0,0,0.3,0.1,0.7l0.2,1.2c0,0.2,0.1,0.5,0.1,0.7s0.1,0.3,0.1,0.3l0.1,0.1c0.1,0,0.2,0,0.4,0v0.2
	c-0.3,0.1-0.6,0.1-0.7,0.1c-0.1,0-0.4,0.1-0.8,0.1v-0.2c0.2,0,0.3-0.1,0.4-0.1l0.1-0.1c0,0,0-0.1,0-0.3c0,0,0-0.3-0.1-0.7l-0.3-1.9
	l-0.6,2c-0.1,0.3-0.2,0.6-0.2,0.8c0,0.1-0.1,0.4-0.2,0.7h-0.1c0-0.1-0.1-0.1-0.1-0.1l-0.2-0.3l-1.7-2.4l0.3,1.8
	c0,0.2,0.1,0.5,0.1,0.7s0.1,0.3,0.1,0.3l0.1,0.1c0,0,0.2,0,0.4,0v0.2l-0.6,0.1l-0.7,0.1V112c0.2,0,0.3-0.1,0.4-0.1l0.1-0.1
	c0,0,0-0.1,0-0.3c0,0,0-0.3-0.1-0.7l-0.2-1.2c0-0.2-0.1-0.5-0.1-0.7s-0.1-0.3-0.1-0.3l-0.1-0.1C33.6,108.4,33.4,108.4,33.2,108.4z"
	/>
<path d="M92.1,110.7l-0.1,0.2c-0.2,0.1-0.4,0.1-0.6,0.1s-0.4,0-0.7,0c-0.3,0-0.5-0.1-0.7-0.2s-0.4-0.2-0.6-0.4
	c-0.2-0.1-0.3-0.3-0.4-0.5s-0.1-0.3-0.2-0.5c0-0.2,0-0.4,0-0.6c0.1-0.6,0.3-1,0.7-1.3c0.4-0.3,1-0.4,1.7-0.4c0.2,0,0.3,0.1,0.4,0.1
	s0.3,0.1,0.5,0.2s0.3,0.1,0.3,0.1c-0.1,0.1-0.1,0.2-0.1,0.3c-0.1,0.1-0.1,0.3-0.1,0.5H92V108c0-0.2-0.1-0.3-0.2-0.4
	c-0.2-0.1-0.4-0.2-0.7-0.2c-0.3,0-0.5,0-0.7,0s-0.3,0.1-0.5,0.2c-0.1,0.1-0.3,0.3-0.4,0.5s-0.2,0.4-0.2,0.7c-0.1,0.5,0.1,1,0.3,1.4
	c0.3,0.4,0.7,0.6,1.2,0.6c0.2,0,0.5,0,0.7,0C91.7,110.8,91.9,110.7,92.1,110.7L92.1,110.7z"/>
<path fill="none" stroke="#000000" stroke-width="0.25" d="M92.1,110.7l-0.1,0.2c-0.2,0.1-0.4,0.1-0.6,0.1s-0.4,0-0.7,0
	c-0.3,0-0.5-0.1-0.7-0.2s-0.4-0.2-0.6-0.4c-0.2-0.1-0.3-0.3-0.4-0.5s-0.1-0.3-0.2-0.5c0-0.2,0-0.4,0-0.6c0.1-0.6,0.3-1,0.7-1.3
	c0.4-0.3,1-0.4,1.7-0.4c0.2,0,0.3,0.1,0.4,0.1s0.3,0.1,0.5,0.2s0.3,0.1,0.3,0.1c-0.1,0.1-0.1,0.2-0.1,0.3c-0.1,0.1-0.1,0.3-0.1,0.5
	H92V108c0-0.2-0.1-0.3-0.2-0.4c-0.2-0.1-0.4-0.2-0.7-0.2c-0.3,0-0.5,0-0.7,0s-0.3,0.1-0.5,0.2c-0.1,0.1-0.3,0.3-0.4,0.5
	s-0.2,0.4-0.2,0.7c-0.1,0.5,0.1,1,0.3,1.4c0.3,0.4,0.7,0.6,1.2,0.6c0.2,0,0.5,0,0.7,0C91.7,110.8,91.9,110.7,92.1,110.7L92.1,110.7z
	"/>
<path d="M93,111.4c0.1,0,0.4,0.1,0.7,0.2v-0.2c-0.2,0-0.3-0.1-0.3-0.1s-0.1,0-0.1-0.1c0,0,0,0,0-0.1s0.1-0.1,0.1-0.3l0.4-0.6
	l1.5,0.3l0.1,0.9c0,0.1,0,0.1,0,0.1s0,0,0,0.1h-0.1c-0.1,0-0.2,0-0.3-0.1v0.2l0.8,0.2c0.1,0,0.3,0.1,0.6,0.1v-0.2
	c-0.1,0-0.2-0.1-0.3-0.1l-0.1-0.1c0-0.1-0.1-0.4-0.2-0.9l-0.5-2.9h-0.2c-0.3,0.5-0.6,0.8-0.7,1l-1,1.3c-0.3,0.4-0.5,0.6-0.5,0.7
	c-0.1,0.1-0.1,0.2-0.2,0.2h-0.1c0,0-0.1,0-0.3,0v0.2C92.7,111.3,92.8,111.3,93,111.4z M95,108.6l0.3,1.7L94,110L95,108.6z"/>
<path fill="none" stroke="#000000" stroke-width="0.25" d="M93,111.4c0.1,0,0.4,0.1,0.7,0.2v-0.2c-0.2,0-0.3-0.1-0.3-0.1
	s-0.1,0-0.1-0.1c0,0,0,0,0-0.1s0.1-0.1,0.1-0.3l0.4-0.6l1.5,0.3l0.1,0.9c0,0.1,0,0.1,0,0.1s0,0,0,0.1h-0.1c-0.1,0-0.2,0-0.3-0.1v0.2
	l0.8,0.2c0.1,0,0.3,0.1,0.6,0.1v-0.2c-0.1,0-0.2-0.1-0.3-0.1l-0.1-0.1c0-0.1-0.1-0.4-0.2-0.9l-0.5-2.9h-0.2c-0.3,0.5-0.6,0.8-0.7,1
	l-1,1.3c-0.3,0.4-0.5,0.6-0.5,0.7c-0.1,0.1-0.1,0.2-0.2,0.2h-0.1c0,0-0.1,0-0.3,0v0.2C92.7,111.3,92.8,111.3,93,111.4z M95,108.6
	l0.3,1.7L94,110L95,108.6z"/>
<path d="M97.7,108.7l0.1-0.2c0.3,0.1,0.5,0.2,0.7,0.2c0.2,0.1,0.5,0.1,0.7,0.2l-0.1,0.2c-0.2-0.1-0.3-0.1-0.4-0.1s-0.1,0-0.1,0
	s-0.1,0.1-0.1,0.2c0,0-0.1,0.3-0.2,0.7l-0.3,1c-0.1,0.4-0.1,0.6-0.1,0.7s0.1,0.3,0.1,0.3c0.1,0.1,0.1,0.1,0.3,0.2
	c0.1,0.1,0.3,0.1,0.4,0.2c0.2,0.1,0.4,0.1,0.5,0.1c0.2,0,0.3,0,0.4-0.1s0.2-0.1,0.2-0.2c0.1-0.1,0.1-0.2,0.2-0.3
	c0.1-0.1,0.1-0.3,0.2-0.5l0.2-0.8c0.1-0.2,0.1-0.5,0.2-0.7c0-0.2,0.1-0.3,0.1-0.3s0-0.1-0.1-0.1c0,0-0.1-0.1-0.3-0.1l0.1-0.2
	c0.3,0.1,0.5,0.1,0.6,0.2c0.1,0,0.3,0.1,0.6,0.1l-0.1,0.2c-0.2-0.1-0.3-0.1-0.4-0.1s-0.1,0-0.1,0s-0.1,0.1-0.1,0.2
	c0,0-0.1,0.3-0.2,0.7l-0.2,0.9c-0.1,0.4-0.2,0.7-0.3,0.9c-0.1,0.1-0.3,0.3-0.5,0.3c-0.1,0.1-0.3,0.1-0.5,0.1s-0.4,0-0.6-0.1
	c-0.3-0.1-0.5-0.2-0.7-0.3c-0.2-0.1-0.3-0.2-0.4-0.4c-0.1-0.1-0.1-0.3-0.1-0.4s0-0.4,0.1-0.7l0.3-1.1c0.1-0.2,0.1-0.5,0.2-0.7
	c0-0.2,0.1-0.3,0.1-0.3s0-0.1-0.1-0.1C98,108.8,97.9,108.8,97.7,108.7z"/>
<path fill="none" stroke="#000000" stroke-width="0.25" d="M97.7,108.7l0.1-0.2c0.3,0.1,0.5,0.2,0.7,0.2c0.2,0.1,0.5,0.1,0.7,0.2
	l-0.1,0.2c-0.2-0.1-0.3-0.1-0.4-0.1s-0.1,0-0.1,0s-0.1,0.1-0.1,0.2c0,0-0.1,0.3-0.2,0.7l-0.3,1c-0.1,0.4-0.1,0.6-0.1,0.7
	s0.1,0.3,0.1,0.3c0.1,0.1,0.1,0.1,0.3,0.2c0.1,0.1,0.3,0.1,0.4,0.2c0.2,0.1,0.4,0.1,0.5,0.1c0.2,0,0.3,0,0.4-0.1s0.2-0.1,0.2-0.2
	c0.1-0.1,0.1-0.2,0.2-0.3c0.1-0.1,0.1-0.3,0.2-0.5l0.2-0.8c0.1-0.2,0.1-0.5,0.2-0.7c0-0.2,0.1-0.3,0.1-0.3s0-0.1-0.1-0.1
	c0,0-0.1-0.1-0.3-0.1l0.1-0.2c0.3,0.1,0.5,0.1,0.6,0.2c0.1,0,0.3,0.1,0.6,0.1l-0.1,0.2c-0.2-0.1-0.3-0.1-0.4-0.1s-0.1,0-0.1,0
	s-0.1,0.1-0.1,0.2c0,0-0.1,0.3-0.2,0.7l-0.2,0.9c-0.1,0.4-0.2,0.7-0.3,0.9c-0.1,0.1-0.3,0.3-0.5,0.3c-0.1,0.1-0.3,0.1-0.5,0.1
	s-0.4,0-0.6-0.1c-0.3-0.1-0.5-0.2-0.7-0.3c-0.2-0.1-0.3-0.2-0.4-0.4c-0.1-0.1-0.1-0.3-0.1-0.4s0-0.4,0.1-0.7l0.3-1.1
	c0.1-0.2,0.1-0.5,0.2-0.7c0-0.2,0.1-0.3,0.1-0.3s0-0.1-0.1-0.1C98,108.8,97.9,108.8,97.7,108.7z"/>
<path d="M101,113.3c0.1-0.1,0.2-0.4,0.3-0.8l0.2,0.1c-0.1,0.3-0.1,0.4-0.1,0.4c0,0.1,0,0.1,0.1,0.2s0.1,0.1,0.3,0.2
	c0.1,0.1,0.2,0.1,0.3,0.2c0.2,0.1,0.3,0.1,0.5,0.1s0.3-0.1,0.4-0.2s0.2-0.2,0.2-0.4c0-0.1,0.1-0.2,0.1-0.3c0-0.1,0-0.2-0.1-0.3
	c-0.1-0.1-0.1-0.1-0.2-0.2c-0.1,0-0.2-0.1-0.3-0.2s-0.3-0.2-0.5-0.2c-0.1-0.1-0.3-0.2-0.3-0.3c-0.1-0.1-0.1-0.2-0.1-0.3
	c0-0.1,0-0.3,0.1-0.4c0.1-0.2,0.2-0.4,0.3-0.5c0.2-0.1,0.4-0.2,0.6-0.3c0.2,0,0.5,0,0.7,0.1c0.1,0.1,0.3,0.1,0.5,0.2
	c0.1,0.1,0.3,0.2,0.4,0.3c-0.1,0.1-0.1,0.2-0.1,0.3c0,0.1-0.1,0.2-0.2,0.4l-0.2-0.1c0.1-0.3,0.1-0.4,0.1-0.4c0-0.1-0.1-0.1-0.1-0.2
	c-0.1-0.1-0.3-0.3-0.5-0.3c-0.3-0.1-0.5-0.1-0.7,0s-0.3,0.3-0.4,0.5c-0.1,0.1-0.1,0.3,0,0.3s0.1,0.2,0.2,0.3
	c0.1,0.1,0.2,0.1,0.4,0.3c0.2,0.1,0.4,0.2,0.5,0.3c0.1,0.1,0.2,0.2,0.3,0.3c0.1,0.1,0.1,0.2,0.1,0.3c0,0.1,0,0.3-0.1,0.4
	c-0.1,0.3-0.3,0.6-0.7,0.7s-0.7,0.1-1.2,0C101.6,113.7,101.3,113.5,101,113.3z"/>
<path fill="none" stroke="#000000" stroke-width="0.25" d="M101,113.3c0.1-0.1,0.2-0.4,0.3-0.8l0.2,0.1c-0.1,0.3-0.1,0.4-0.1,0.4
	c0,0.1,0,0.1,0.1,0.2s0.1,0.1,0.3,0.2c0.1,0.1,0.2,0.1,0.3,0.2c0.2,0.1,0.3,0.1,0.5,0.1s0.3-0.1,0.4-0.2s0.2-0.2,0.2-0.4
	c0-0.1,0.1-0.2,0.1-0.3c0-0.1,0-0.2-0.1-0.3c-0.1-0.1-0.1-0.1-0.2-0.2c-0.1,0-0.2-0.1-0.3-0.2s-0.3-0.2-0.5-0.2
	c-0.1-0.1-0.3-0.2-0.3-0.3c-0.1-0.1-0.1-0.2-0.1-0.3c0-0.1,0-0.3,0.1-0.4c0.1-0.2,0.2-0.4,0.3-0.5c0.2-0.1,0.4-0.2,0.6-0.3
	c0.2,0,0.5,0,0.7,0.1c0.1,0.1,0.3,0.1,0.5,0.2c0.1,0.1,0.3,0.2,0.4,0.3c-0.1,0.1-0.1,0.2-0.1,0.3c0,0.1-0.1,0.2-0.2,0.4l-0.2-0.1
	c0.1-0.3,0.1-0.4,0.1-0.4c0-0.1-0.1-0.1-0.1-0.2c-0.1-0.1-0.3-0.3-0.5-0.3c-0.3-0.1-0.5-0.1-0.7,0s-0.3,0.3-0.4,0.5
	c-0.1,0.1-0.1,0.3,0,0.3s0.1,0.2,0.2,0.3c0.1,0.1,0.2,0.1,0.4,0.3c0.2,0.1,0.4,0.2,0.5,0.3c0.1,0.1,0.2,0.2,0.3,0.3
	c0.1,0.1,0.1,0.2,0.1,0.3c0,0.1,0,0.3-0.1,0.4c-0.1,0.3-0.3,0.6-0.7,0.7s-0.7,0.1-1.2,0C101.6,113.7,101.3,113.5,101,113.3z"/>
<path d="M104.3,114.5c0.1,0.1,0.3,0.1,0.6,0.3l0.1-0.2c-0.1-0.1-0.3-0.1-0.3-0.2l-0.1-0.1c0,0,0,0,0-0.1s0.1-0.1,0.2-0.2l0.5-0.5
	l1.4,0.6v0.9c0,0.1,0,0.1,0,0.1s0,0-0.1,0.1h-0.1c0,0-0.1-0.1-0.3-0.1l-0.1,0.2l0.8,0.3c0.1,0.1,0.3,0.1,0.5,0.3l0.1-0.2
	c-0.1-0.1-0.2-0.1-0.2-0.1l-0.1-0.1c0-0.1,0-0.4,0-0.9v-2.9l-0.2-0.1c-0.5,0.4-0.7,0.7-0.9,0.8l-1.2,1.1c-0.3,0.3-0.6,0.5-0.6,0.5
	c-0.1,0.1-0.2,0.1-0.2,0.1H104c0,0-0.1,0-0.3-0.1l-0.1,0.2C104,114.4,104.2,114.5,104.3,114.5z M106.8,112.3v1.7l-1.2-0.5
	L106.8,112.3z"/>
<path fill="none" stroke="#000000" stroke-width="0.25" d="M104.3,114.5c0.1,0.1,0.3,0.1,0.6,0.3l0.1-0.2c-0.1-0.1-0.3-0.1-0.3-0.2
	l-0.1-0.1c0,0,0,0,0-0.1s0.1-0.1,0.2-0.2l0.5-0.5l1.4,0.6v0.9c0,0.1,0,0.1,0,0.1s0,0-0.1,0.1h-0.1c0,0-0.1-0.1-0.3-0.1l-0.1,0.2
	l0.8,0.3c0.1,0.1,0.3,0.1,0.5,0.3l0.1-0.2c-0.1-0.1-0.2-0.1-0.2-0.1l-0.1-0.1c0-0.1,0-0.4,0-0.9v-2.9l-0.2-0.1
	c-0.5,0.4-0.7,0.7-0.9,0.8l-1.2,1.1c-0.3,0.3-0.6,0.5-0.6,0.5c-0.1,0.1-0.2,0.1-0.2,0.1H104c0,0-0.1,0-0.3-0.1l-0.1,0.2
	C104,114.4,104.2,114.5,104.3,114.5z M106.8,112.3v1.7l-1.2-0.5L106.8,112.3z"/>
<path d="M107.8,116c0.1-0.1,0.3-0.3,0.5-0.7l0.1,0.1c-0.1,0.2-0.2,0.3-0.2,0.4s0,0.1,0.1,0.2c0,0.1,0.1,0.2,0.2,0.3
	c0.1,0.1,0.2,0.2,0.3,0.3c0.1,0.1,0.3,0.1,0.5,0.1s0.3,0,0.5-0.1c0.1-0.1,0.2-0.2,0.3-0.3c0.1-0.1,0.1-0.2,0.1-0.3
	c0-0.1,0-0.2,0-0.3c0-0.1-0.1-0.2-0.2-0.2c-0.1-0.1-0.1-0.1-0.3-0.3c-0.1-0.1-0.3-0.2-0.4-0.3c-0.1-0.1-0.2-0.3-0.2-0.4s0-0.2,0-0.4
	c0-0.1,0.1-0.3,0.1-0.4c0.1-0.2,0.3-0.3,0.5-0.4s0.4-0.1,0.6-0.1s0.5,0.1,0.7,0.2c0.1,0.1,0.3,0.2,0.4,0.3c0.1,0.1,0.2,0.3,0.3,0.4
	c-0.1,0.1-0.1,0.2-0.2,0.2c-0.1,0.1-0.1,0.2-0.3,0.3l-0.1-0.1c0.1-0.2,0.2-0.4,0.2-0.4c0-0.1,0-0.2-0.1-0.2
	c-0.1-0.2-0.2-0.3-0.4-0.4c-0.2-0.1-0.4-0.2-0.6-0.1s-0.4,0.2-0.5,0.4c-0.1,0.1-0.1,0.2-0.1,0.3c0,0.1,0.1,0.2,0.1,0.3
	c0.1,0.1,0.2,0.2,0.3,0.3c0.2,0.1,0.3,0.3,0.5,0.4c0.1,0.1,0.2,0.3,0.2,0.3c0,0.1,0,0.2,0,0.3c0,0.1-0.1,0.3-0.1,0.4
	c-0.2,0.3-0.5,0.5-0.9,0.5c-0.4,0.1-0.8,0-1.2-0.3C108.3,116.5,108,116.3,107.8,116z"/>
<path fill="none" stroke="#000000" stroke-width="0.25" d="M107.8,116c0.1-0.1,0.3-0.3,0.5-0.7l0.1,0.1c-0.1,0.2-0.2,0.3-0.2,0.4
	s0,0.1,0.1,0.2c0,0.1,0.1,0.2,0.2,0.3c0.1,0.1,0.2,0.2,0.3,0.3c0.1,0.1,0.3,0.1,0.5,0.1s0.3,0,0.5-0.1c0.1-0.1,0.2-0.2,0.3-0.3
	c0.1-0.1,0.1-0.2,0.1-0.3c0-0.1,0-0.2,0-0.3c0-0.1-0.1-0.2-0.2-0.2c-0.1-0.1-0.1-0.1-0.3-0.3c-0.1-0.1-0.3-0.2-0.4-0.3
	c-0.1-0.1-0.2-0.3-0.2-0.4s0-0.2,0-0.4c0-0.1,0.1-0.3,0.1-0.4c0.1-0.2,0.3-0.3,0.5-0.4s0.4-0.1,0.6-0.1s0.5,0.1,0.7,0.2
	c0.1,0.1,0.3,0.2,0.4,0.3c0.1,0.1,0.2,0.3,0.3,0.4c-0.1,0.1-0.1,0.2-0.2,0.2c-0.1,0.1-0.1,0.2-0.3,0.3l-0.1-0.1
	c0.1-0.2,0.2-0.4,0.2-0.4c0-0.1,0-0.2-0.1-0.2c-0.1-0.2-0.2-0.3-0.4-0.4c-0.2-0.1-0.4-0.2-0.6-0.1s-0.4,0.2-0.5,0.4
	c-0.1,0.1-0.1,0.2-0.1,0.3c0,0.1,0.1,0.2,0.1,0.3c0.1,0.1,0.2,0.2,0.3,0.3c0.2,0.1,0.3,0.3,0.5,0.4c0.1,0.1,0.2,0.3,0.2,0.3
	c0,0.1,0,0.2,0,0.3c0,0.1-0.1,0.3-0.1,0.4c-0.2,0.3-0.5,0.5-0.9,0.5c-0.4,0.1-0.8,0-1.2-0.3C108.3,116.5,108,116.3,107.8,116z"/>
<path d="M46.5,110.8l-0.2,0.2c-0.2,0-0.5,0-0.7,0s-0.4-0.1-0.6-0.2c-0.3-0.1-0.5-0.2-0.7-0.4c-0.2-0.1-0.3-0.3-0.5-0.5
	c-0.1-0.2-0.2-0.4-0.3-0.5c-0.1-0.2-0.1-0.4-0.1-0.6s0.1-0.4,0.1-0.6c0.2-0.5,0.5-0.9,1.1-1.1c0.5-0.2,1.1-0.2,1.7,0.1
	c0.1,0.1,0.3,0.1,0.4,0.2c0.1,0.1,0.3,0.2,0.4,0.3c0.2,0.1,0.3,0.2,0.3,0.2c-0.1,0.1-0.1,0.1-0.2,0.2c-0.1,0.1-0.2,0.3-0.2,0.5
	l-0.1-0.1l0.1-0.3c0.1-0.2,0-0.3-0.1-0.5c-0.1-0.1-0.3-0.3-0.7-0.4c-0.2-0.1-0.5-0.1-0.6-0.1c-0.2,0-0.4,0-0.5,0.1
	c-0.2,0.1-0.3,0.2-0.5,0.3c-0.1,0.1-0.3,0.4-0.4,0.7c-0.2,0.5-0.2,1,0,1.4s0.5,0.7,1,0.9c0.2,0.1,0.5,0.1,0.7,0.1
	C46.2,110.8,46.3,110.8,46.5,110.8L46.5,110.8z"/>
<path fill="none" stroke="#000000" stroke-width="0.25" d="M46.5,110.8l-0.2,0.2c-0.2,0-0.5,0-0.7,0s-0.4-0.1-0.6-0.2
	c-0.3-0.1-0.5-0.2-0.7-0.4c-0.2-0.1-0.3-0.3-0.5-0.5c-0.1-0.2-0.2-0.4-0.3-0.5c-0.1-0.2-0.1-0.4-0.1-0.6s0.1-0.4,0.1-0.6
	c0.2-0.5,0.5-0.9,1.1-1.1c0.5-0.2,1.1-0.2,1.7,0.1c0.1,0.1,0.3,0.1,0.4,0.2c0.1,0.1,0.3,0.2,0.4,0.3c0.2,0.1,0.3,0.2,0.3,0.2
	c-0.1,0.1-0.1,0.1-0.2,0.2c-0.1,0.1-0.2,0.3-0.2,0.5l-0.1-0.1l0.1-0.3c0.1-0.2,0-0.3-0.1-0.5c-0.1-0.1-0.3-0.3-0.7-0.4
	c-0.2-0.1-0.5-0.1-0.6-0.1c-0.2,0-0.4,0-0.5,0.1c-0.2,0.1-0.3,0.2-0.5,0.3c-0.1,0.1-0.3,0.4-0.4,0.7c-0.2,0.5-0.2,1,0,1.4
	s0.5,0.7,1,0.9c0.2,0.1,0.5,0.1,0.7,0.1C46.2,110.8,46.3,110.8,46.5,110.8L46.5,110.8z"/>
<path d="M47.7,110.6c0,0.3,0.1,0.5,0.1,0.7c0.1,0.2,0.3,0.4,0.5,0.6s0.4,0.3,0.7,0.4c0.6,0.2,1.1,0.2,1.6-0.1c0.5-0.3,0.9-0.7,1-1.2
	c0.1-0.2,0.1-0.3,0.1-0.5s0-0.3,0-0.5s-0.1-0.3-0.2-0.5c-0.1-0.2-0.3-0.3-0.5-0.5c-0.2-0.1-0.4-0.3-0.7-0.4s-0.6-0.1-0.9-0.1
	c-0.3,0-0.5,0.1-0.8,0.2s-0.4,0.3-0.6,0.5c-0.1,0.2-0.3,0.4-0.4,0.7C47.7,110,47.7,110.3,47.7,110.6z M48.8,109.1
	c0.2-0.2,0.4-0.3,0.6-0.4c0.2-0.1,0.5,0,0.8,0.1c0.2,0.1,0.3,0.1,0.5,0.3c0.1,0.1,0.3,0.2,0.3,0.3c0.1,0.1,0.1,0.2,0.2,0.4
	c0,0.1,0.1,0.3,0.1,0.4c0,0.3-0.1,0.5-0.1,0.8c-0.1,0.3-0.3,0.6-0.4,0.8s-0.4,0.3-0.6,0.4c-0.2,0.1-0.5,0.1-0.8,0
	c-0.2-0.1-0.4-0.1-0.5-0.3c-0.1-0.1-0.3-0.3-0.3-0.5s-0.1-0.4-0.1-0.6c0-0.1,0-0.3,0-0.5s0.1-0.3,0.1-0.5
	C48.5,109.5,48.7,109.3,48.8,109.1z"/>
<path fill="none" stroke="#000000" stroke-width="0.25" d="M47.7,110.6c0,0.3,0.1,0.5,0.1,0.7c0.1,0.2,0.3,0.4,0.5,0.6
	s0.4,0.3,0.7,0.4c0.6,0.2,1.1,0.2,1.6-0.1c0.5-0.3,0.9-0.7,1-1.2c0.1-0.2,0.1-0.3,0.1-0.5s0-0.3,0-0.5s-0.1-0.3-0.2-0.5
	c-0.1-0.2-0.3-0.3-0.5-0.5c-0.2-0.1-0.4-0.3-0.7-0.4s-0.6-0.1-0.9-0.1c-0.3,0-0.5,0.1-0.8,0.2s-0.4,0.3-0.6,0.5
	c-0.1,0.2-0.3,0.4-0.4,0.7C47.7,110,47.7,110.3,47.7,110.6z M48.8,109.1c0.2-0.2,0.4-0.3,0.6-0.4c0.2-0.1,0.5,0,0.8,0.1
	c0.2,0.1,0.3,0.1,0.5,0.3c0.1,0.1,0.3,0.2,0.3,0.3c0.1,0.1,0.1,0.2,0.2,0.4c0,0.1,0.1,0.3,0.1,0.4c0,0.3-0.1,0.5-0.1,0.8
	c-0.1,0.3-0.3,0.6-0.4,0.8s-0.4,0.3-0.6,0.4c-0.2,0.1-0.5,0.1-0.8,0c-0.2-0.1-0.4-0.1-0.5-0.3c-0.1-0.1-0.3-0.3-0.3-0.5
	s-0.1-0.4-0.1-0.6c0-0.1,0-0.3,0-0.5s0.1-0.3,0.1-0.5C48.5,109.5,48.7,109.3,48.8,109.1z"/>
<path d="M55.6,113.8c-0.3,0-0.5,0.1-0.7,0c-0.3,0-0.6-0.1-0.9-0.1c-0.4-0.1-0.7-0.3-1-0.5s-0.5-0.5-0.6-0.8s-0.1-0.7,0-1.1
	c0.1-0.3,0.2-0.6,0.4-0.8c0.2-0.2,0.4-0.4,0.6-0.5c0.2-0.1,0.4-0.2,0.6-0.2c0.3,0,0.7,0,1.1,0.1c0.2,0.1,0.4,0.1,0.6,0.2
	c0.2,0.1,0.4,0.2,0.7,0.3c-0.1,0.1-0.1,0.2-0.1,0.2c0,0.1-0.1,0.3-0.2,0.5h-0.2l0.1-0.3c0-0.1,0-0.1,0-0.1v-0.1
	c0-0.1-0.1-0.1-0.2-0.2c-0.2-0.1-0.3-0.2-0.4-0.2c-0.1-0.1-0.2-0.1-0.4-0.1c-0.3-0.1-0.6-0.1-0.9,0c-0.3,0.1-0.5,0.2-0.7,0.5
	c-0.2,0.2-0.3,0.5-0.4,0.8c-0.1,0.3-0.1,0.7,0,1s0.2,0.5,0.4,0.7s0.5,0.3,0.8,0.4c0.1,0,0.3,0.1,0.5,0.1c0.1,0,0.3,0,0.4,0
	c0-0.1,0.1-0.2,0.1-0.3l0.1-0.3c0-0.1,0.1-0.2,0-0.3l-0.1-0.1c-0.1,0-0.2-0.1-0.5-0.1v-0.2l0.8,0.2c0.1,0,0.3,0.1,0.5,0.1v0.1
	l-0.2,0.1c-0.1,0.2-0.1,0.3-0.1,0.5C55.6,113.4,55.6,113.6,55.6,113.8z"/>
<path fill="none" stroke="#000000" stroke-width="0.25" d="M55.6,113.8c-0.3,0-0.5,0.1-0.7,0c-0.3,0-0.6-0.1-0.9-0.1
	c-0.4-0.1-0.7-0.3-1-0.5s-0.5-0.5-0.6-0.8s-0.1-0.7,0-1.1c0.1-0.3,0.2-0.6,0.4-0.8c0.2-0.2,0.4-0.4,0.6-0.5c0.2-0.1,0.4-0.2,0.6-0.2
	c0.3,0,0.7,0,1.1,0.1c0.2,0.1,0.4,0.1,0.6,0.2c0.2,0.1,0.4,0.2,0.7,0.3c-0.1,0.1-0.1,0.2-0.1,0.2c0,0.1-0.1,0.3-0.2,0.5h-0.2
	l0.1-0.3c0-0.1,0-0.1,0-0.1v-0.1c0-0.1-0.1-0.1-0.2-0.2c-0.2-0.1-0.3-0.2-0.4-0.2c-0.1-0.1-0.2-0.1-0.4-0.1c-0.3-0.1-0.6-0.1-0.9,0
	c-0.3,0.1-0.5,0.2-0.7,0.5c-0.2,0.2-0.3,0.5-0.4,0.8c-0.1,0.3-0.1,0.7,0,1s0.2,0.5,0.4,0.7s0.5,0.3,0.8,0.4c0.1,0,0.3,0.1,0.5,0.1
	c0.1,0,0.3,0,0.4,0c0-0.1,0.1-0.2,0.1-0.3l0.1-0.3c0-0.1,0.1-0.2,0-0.3l-0.1-0.1c-0.1,0-0.2-0.1-0.5-0.1v-0.2l0.8,0.2
	c0.1,0,0.3,0.1,0.5,0.1v0.1l-0.2,0.1c-0.1,0.2-0.1,0.3-0.1,0.5C55.6,113.4,55.6,113.6,55.6,113.8z"/>
<path d="M56.5,114.2V114c0.2,0,0.3,0,0.4,0H57c0,0,0.1-0.1,0.1-0.3c0-0.2,0.1-0.4,0.1-0.6l0.3-2.1c0-0.1,0-0.1,0-0.1s0-0.1-0.1-0.1
	l-0.1-0.1c0,0-0.1,0-0.3-0.1v-0.2c0.3,0.1,0.5,0.1,0.6,0.1s0.3,0,0.4,0c0.1,0.2,0.2,0.4,0.3,0.5l0.5,0.7l0.7,1.1
	c0.2,0.3,0.4,0.6,0.5,0.8c0.1,0.1,0.1,0.2,0.2,0.3l0.3-1.9c0-0.2,0.1-0.4,0.1-0.6c0-0.1,0-0.2,0-0.3c0,0,0-0.1-0.1-0.1
	s-0.2-0.1-0.4-0.1v-0.2c0.2,0,0.4,0.1,0.6,0.1c0.2,0,0.4,0.1,0.5,0.1v0.2c-0.2,0-0.3,0-0.4,0c0,0-0.1,0-0.1,0.1c0,0-0.1,0.1-0.1,0.3
	c0,0.2-0.1,0.4-0.1,0.6l-0.2,1.3c0,0.3-0.1,0.7-0.2,1.4l-0.3-0.1h-0.1l0,0c0,0,0-0.1-0.1-0.1c-0.1-0.2-0.2-0.3-0.3-0.4l-0.3-0.5
	l-1.6-2.5l-0.3,2c0,0.2-0.1,0.4-0.1,0.6c0,0.1,0,0.2,0,0.3c0,0,0,0.1,0.1,0.1s0.2,0.1,0.4,0.1v0.2c-0.1,0-0.3-0.1-0.5-0.1
	C57,114.2,56.8,114.2,56.5,114.2z"/>
<path fill="none" stroke="#000000" stroke-width="0.25" d="M56.5,114.2V114c0.2,0,0.3,0,0.4,0H57c0,0,0.1-0.1,0.1-0.3
	c0-0.2,0.1-0.4,0.1-0.6l0.3-2.1c0-0.1,0-0.1,0-0.1s0-0.1-0.1-0.1l-0.1-0.1c0,0-0.1,0-0.3-0.1v-0.2c0.3,0.1,0.5,0.1,0.6,0.1
	s0.3,0,0.4,0c0.1,0.2,0.2,0.4,0.3,0.5l0.5,0.7l0.7,1.1c0.2,0.3,0.4,0.6,0.5,0.8c0.1,0.1,0.1,0.2,0.2,0.3l0.3-1.9
	c0-0.2,0.1-0.4,0.1-0.6c0-0.1,0-0.2,0-0.3c0,0,0-0.1-0.1-0.1s-0.2-0.1-0.4-0.1v-0.2c0.2,0,0.4,0.1,0.6,0.1c0.2,0,0.4,0.1,0.5,0.1
	v0.2c-0.2,0-0.3,0-0.4,0c0,0-0.1,0-0.1,0.1c0,0-0.1,0.1-0.1,0.3c0,0.2-0.1,0.4-0.1,0.6l-0.2,1.3c0,0.3-0.1,0.7-0.2,1.4l-0.3-0.1
	h-0.1l0,0c0,0,0-0.1-0.1-0.1c-0.1-0.2-0.2-0.3-0.3-0.4l-0.3-0.5l-1.6-2.5l-0.3,2c0,0.2-0.1,0.4-0.1,0.6c0,0.1,0,0.2,0,0.3
	c0,0,0,0.1,0.1,0.1s0.2,0.1,0.4,0.1v0.2c-0.1,0-0.3-0.1-0.5-0.1C57,114.2,56.8,114.2,56.5,114.2z"/>
<path d="M61.7,113.7c0.1,0.3,0.2,0.5,0.4,0.7s0.4,0.3,0.6,0.4c0.2,0.1,0.5,0.1,0.8,0.1c0.6,0,1.1-0.2,1.5-0.6s0.6-0.9,0.6-1.5
	c0-0.2,0-0.4-0.1-0.5c0-0.2-0.1-0.3-0.1-0.4c-0.1-0.2-0.2-0.3-0.3-0.5c-0.1-0.1-0.3-0.3-0.6-0.3c-0.2-0.1-0.5-0.1-0.8-0.1
	s-0.6,0-0.8,0.1c-0.3,0.1-0.5,0.2-0.7,0.4c-0.2,0.2-0.3,0.4-0.4,0.6c-0.1,0.2-0.1,0.5-0.1,0.8C61.5,113.2,61.6,113.4,61.7,113.7z
	 M62.3,111.9c0.1-0.2,0.3-0.4,0.5-0.5s0.5-0.2,0.7-0.2s0.4,0,0.5,0.1c0.2,0.1,0.3,0.1,0.4,0.2s0.2,0.2,0.3,0.3
	c0.1,0.1,0.1,0.3,0.2,0.4c0.1,0.2,0.1,0.5,0.1,0.8s-0.1,0.6-0.2,0.9s-0.3,0.4-0.5,0.6c-0.2,0.1-0.5,0.2-0.7,0.2s-0.4,0-0.6-0.1
	c-0.2-0.1-0.3-0.2-0.5-0.3c-0.1-0.1-0.3-0.3-0.3-0.5c-0.1-0.1-0.1-0.3-0.1-0.5S62,113,62,112.8C62.1,112.4,62.2,112.1,62.3,111.9z"
	/>
<path fill="none" stroke="#000000" stroke-width="0.25" d="M61.7,113.7c0.1,0.3,0.2,0.5,0.4,0.7s0.4,0.3,0.6,0.4
	c0.2,0.1,0.5,0.1,0.8,0.1c0.6,0,1.1-0.2,1.5-0.6s0.6-0.9,0.6-1.5c0-0.2,0-0.4-0.1-0.5c0-0.2-0.1-0.3-0.1-0.4
	c-0.1-0.2-0.2-0.3-0.3-0.5c-0.1-0.1-0.3-0.3-0.6-0.3c-0.2-0.1-0.5-0.1-0.8-0.1s-0.6,0-0.8,0.1c-0.3,0.1-0.5,0.2-0.7,0.4
	c-0.2,0.2-0.3,0.4-0.4,0.6c-0.1,0.2-0.1,0.5-0.1,0.8C61.5,113.2,61.6,113.4,61.7,113.7z M62.3,111.9c0.1-0.2,0.3-0.4,0.5-0.5
	s0.5-0.2,0.7-0.2s0.4,0,0.5,0.1c0.2,0.1,0.3,0.1,0.4,0.2s0.2,0.2,0.3,0.3c0.1,0.1,0.1,0.3,0.2,0.4c0.1,0.2,0.1,0.5,0.1,0.8
	s-0.1,0.6-0.2,0.9s-0.3,0.4-0.5,0.6c-0.2,0.1-0.5,0.2-0.7,0.2s-0.4,0-0.6-0.1c-0.2-0.1-0.3-0.2-0.5-0.3c-0.1-0.1-0.3-0.3-0.3-0.5
	c-0.1-0.1-0.1-0.3-0.1-0.5S62,113,62,112.8C62.1,112.4,62.2,112.1,62.3,111.9z"/>
<path d="M66.6,114.6c0-0.2,0-0.5,0-0.8h0.2c0,0.3,0.1,0.4,0.1,0.5s0.1,0.1,0.2,0.1s0.2,0.1,0.3,0.1c0.1,0,0.3,0,0.4,0
	c0.2,0,0.3-0.1,0.5-0.2c0.1-0.1,0.2-0.2,0.3-0.3c0.1-0.1,0.1-0.3,0.1-0.4s0-0.2-0.1-0.3c0-0.1-0.1-0.1-0.2-0.2s-0.2-0.1-0.3-0.1
	c-0.1,0-0.2,0-0.4,0c-0.2,0-0.4,0-0.5,0c-0.2,0-0.3-0.1-0.4-0.2s-0.2-0.2-0.2-0.3c-0.1-0.1-0.1-0.3-0.1-0.4c0-0.2,0-0.4,0.1-0.6
	s0.2-0.3,0.5-0.5c0.2-0.1,0.4-0.2,0.7-0.2c0.1,0,0.3,0,0.5,0s0.3,0.1,0.5,0.1c0,0.1,0,0.2,0,0.3c0,0.1,0,0.2,0,0.4h-0.2
	c0-0.3-0.1-0.4-0.1-0.4c-0.1-0.1-0.1-0.1-0.2-0.1c-0.2-0.1-0.4-0.1-0.6-0.1c-0.3,0-0.5,0.1-0.6,0.3c-0.1,0.2-0.2,0.4-0.2,0.6
	c0,0.1,0.1,0.3,0.1,0.3c0.1,0.1,0.2,0.1,0.3,0.2c0.1,0,0.3,0.1,0.5,0.1s0.4,0,0.6,0.1c0.2,0,0.3,0.1,0.4,0.1
	c0.1,0.1,0.1,0.1,0.2,0.3c0.1,0.1,0.1,0.2,0.1,0.4c0,0.3-0.1,0.7-0.4,1s-0.6,0.4-1.1,0.5C67.2,114.8,66.9,114.7,66.6,114.6z"/>
<path fill="none" stroke="#000000" stroke-width="0.25" d="M66.6,114.6c0-0.2,0-0.5,0-0.8h0.2c0,0.3,0.1,0.4,0.1,0.5
	s0.1,0.1,0.2,0.1s0.2,0.1,0.3,0.1c0.1,0,0.3,0,0.4,0c0.2,0,0.3-0.1,0.5-0.2c0.1-0.1,0.2-0.2,0.3-0.3c0.1-0.1,0.1-0.3,0.1-0.4
	s0-0.2-0.1-0.3c0-0.1-0.1-0.1-0.2-0.2s-0.2-0.1-0.3-0.1c-0.1,0-0.2,0-0.4,0c-0.2,0-0.4,0-0.5,0c-0.2,0-0.3-0.1-0.4-0.2
	s-0.2-0.2-0.2-0.3c-0.1-0.1-0.1-0.3-0.1-0.4c0-0.2,0-0.4,0.1-0.6s0.2-0.3,0.5-0.5c0.2-0.1,0.4-0.2,0.7-0.2c0.1,0,0.3,0,0.5,0
	s0.3,0.1,0.5,0.1c0,0.1,0,0.2,0,0.3c0,0.1,0,0.2,0,0.4h-0.2c0-0.3-0.1-0.4-0.1-0.4c-0.1-0.1-0.1-0.1-0.2-0.1
	c-0.2-0.1-0.4-0.1-0.6-0.1c-0.3,0-0.5,0.1-0.6,0.3c-0.1,0.2-0.2,0.4-0.2,0.6c0,0.1,0.1,0.3,0.1,0.3c0.1,0.1,0.2,0.1,0.3,0.2
	c0.1,0,0.3,0.1,0.5,0.1s0.4,0,0.6,0.1c0.2,0,0.3,0.1,0.4,0.1c0.1,0.1,0.1,0.1,0.2,0.3c0.1,0.1,0.1,0.2,0.1,0.4c0,0.3-0.1,0.7-0.4,1
	s-0.6,0.4-1.1,0.5C67.2,114.8,66.9,114.7,66.6,114.6z"/>
<path d="M73.6,113.4l-0.1,0.3c-0.2,0.1-0.4,0.2-0.6,0.3c-0.2,0.1-0.4,0.1-0.6,0.2c-0.3,0.1-0.5,0.1-0.8,0c-0.2,0-0.5-0.1-0.7-0.2
	s-0.3-0.2-0.5-0.3c-0.1-0.1-0.3-0.3-0.3-0.5s-0.1-0.4-0.2-0.6c-0.1-0.5,0-1.1,0.3-1.5s0.8-0.7,1.5-0.8c0.2,0,0.3,0,0.5-0.1
	s0.3,0,0.5,0s0.3,0,0.4,0c0,0.1,0,0.2,0,0.3c0,0.1,0,0.3,0,0.5h-0.2l-0.1-0.3c-0.1-0.2-0.2-0.3-0.3-0.3s-0.4-0.1-0.8,0
	c-0.3,0.1-0.5,0.1-0.6,0.2c-0.2,0.1-0.3,0.2-0.4,0.3c-0.1,0.1-0.2,0.3-0.2,0.5c-0.1,0.2-0.1,0.5,0,0.8c0.1,0.5,0.3,0.9,0.7,1.2
	c0.4,0.3,0.8,0.4,1.4,0.3c0.2,0,0.5-0.1,0.7-0.2C73.4,113.6,73.5,113.5,73.6,113.4L73.6,113.4z"/>
<path fill="none" stroke="#000000" stroke-width="0.25" d="M73.6,113.4l-0.1,0.3c-0.2,0.1-0.4,0.2-0.6,0.3c-0.2,0.1-0.4,0.1-0.6,0.2
	c-0.3,0.1-0.5,0.1-0.8,0c-0.2,0-0.5-0.1-0.7-0.2s-0.3-0.2-0.5-0.3c-0.1-0.1-0.3-0.3-0.3-0.5s-0.1-0.4-0.2-0.6
	c-0.1-0.5,0-1.1,0.3-1.5s0.8-0.7,1.5-0.8c0.2,0,0.3,0,0.5-0.1s0.3,0,0.5,0s0.3,0,0.4,0c0,0.1,0,0.2,0,0.3c0,0.1,0,0.3,0,0.5h-0.2
	l-0.1-0.3c-0.1-0.2-0.2-0.3-0.3-0.3s-0.4-0.1-0.8,0c-0.3,0.1-0.5,0.1-0.6,0.2c-0.2,0.1-0.3,0.2-0.4,0.3c-0.1,0.1-0.2,0.3-0.2,0.5
	c-0.1,0.2-0.1,0.5,0,0.8c0.1,0.5,0.3,0.9,0.7,1.2c0.4,0.3,0.8,0.4,1.4,0.3c0.2,0,0.5-0.1,0.7-0.2C73.4,113.6,73.5,113.5,73.6,113.4
	L73.6,113.4z"/>
<path d="M74.8,113.6l-0.1-0.2c0.2-0.1,0.3-0.1,0.3-0.1s0,0,0-0.1s0-0.1,0-0.3c-0.1-0.2-0.1-0.4-0.1-0.6l-0.3-1.3
	c-0.1-0.2-0.1-0.5-0.2-0.7s-0.1-0.3-0.1-0.3h-0.1c-0.1,0-0.2,0-0.4,0.1l-0.1-0.2l0.7-0.2l0.8-0.2c0.4-0.1,0.6-0.2,0.8-0.2
	c0.2,0,0.3-0.1,0.5-0.1c0,0.1,0,0.2,0,0.3c0,0,0,0.2,0.1,0.5l-0.2,0.1c0-0.2-0.1-0.3-0.1-0.5c-0.1,0-0.2,0-0.3,0
	c-0.2,0-0.4,0.1-0.6,0.1c0,0-0.1,0-0.3,0.1c-0.1,0-0.2,0.1-0.3,0.1c0,0.2,0.1,0.4,0.1,0.5l0.2,0.9c0.2,0,0.4-0.1,0.5-0.1
	c0.2-0.1,0.4-0.1,0.5-0.2c0.1,0,0.1,0,0.1-0.1s0-0.1,0-0.2v-0.2h0.2v0.1l0.1,0.5l0.2,0.6l-0.2,0.1l-0.1-0.2c0-0.1-0.1-0.2-0.1-0.2
	h-0.1c-0.1,0-0.3,0-0.6,0.1c-0.1,0-0.3,0.1-0.5,0.1c0,0.2,0.1,0.4,0.2,0.8c0.1,0.3,0.1,0.5,0.2,0.7c0.3-0.1,0.5-0.1,0.8-0.2
	c0.2-0.1,0.4-0.1,0.5-0.1s0.2-0.1,0.2-0.1c0-0.1,0-0.1,0-0.2c0-0.2,0-0.3,0-0.4l0.2-0.1c0.1,0.3,0.1,0.7,0.1,0.9
	c-0.1,0.1-0.3,0.1-0.5,0.2l-1.6,0.4C75.4,113.5,75.2,113.5,74.8,113.6z"/>
<path fill="none" stroke="#000000" stroke-width="0.25" d="M74.8,113.6l-0.1-0.2c0.2-0.1,0.3-0.1,0.3-0.1s0,0,0-0.1s0-0.1,0-0.3
	c-0.1-0.2-0.1-0.4-0.1-0.6l-0.3-1.3c-0.1-0.2-0.1-0.5-0.2-0.7s-0.1-0.3-0.1-0.3h-0.1c-0.1,0-0.2,0-0.4,0.1l-0.1-0.2l0.7-0.2l0.8-0.2
	c0.4-0.1,0.6-0.2,0.8-0.2c0.2,0,0.3-0.1,0.5-0.1c0,0.1,0,0.2,0,0.3c0,0,0,0.2,0.1,0.5l-0.2,0.1c0-0.2-0.1-0.3-0.1-0.5
	c-0.1,0-0.2,0-0.3,0c-0.2,0-0.4,0.1-0.6,0.1c0,0-0.1,0-0.3,0.1c-0.1,0-0.2,0.1-0.3,0.1c0,0.2,0.1,0.4,0.1,0.5l0.2,0.9
	c0.2,0,0.4-0.1,0.5-0.1c0.2-0.1,0.4-0.1,0.5-0.2c0.1,0,0.1,0,0.1-0.1s0-0.1,0-0.2v-0.2h0.2v0.1l0.1,0.5l0.2,0.6l-0.2,0.1l-0.1-0.2
	c0-0.1-0.1-0.2-0.1-0.2h-0.1c-0.1,0-0.3,0-0.6,0.1c-0.1,0-0.3,0.1-0.5,0.1c0,0.2,0.1,0.4,0.2,0.8c0.1,0.3,0.1,0.5,0.2,0.7
	c0.3-0.1,0.5-0.1,0.8-0.2c0.2-0.1,0.4-0.1,0.5-0.1s0.2-0.1,0.2-0.1c0-0.1,0-0.1,0-0.2c0-0.2,0-0.3,0-0.4l0.2-0.1
	c0.1,0.3,0.1,0.7,0.1,0.9c-0.1,0.1-0.3,0.1-0.5,0.2l-1.6,0.4C75.4,113.5,75.2,113.5,74.8,113.6z"/>
<path d="M77.5,109.2l-0.1-0.2c0.1,0,0.2-0.1,0.3-0.1l0.5-0.1c0.1,0,0.2-0.1,0.4-0.2c0.3-0.1,0.4-0.1,0.4-0.2
	c0.3-0.1,0.5-0.1,0.7-0.1s0.3,0.1,0.4,0.2s0.2,0.2,0.3,0.4c0.1,0.1,0.1,0.3,0,0.5s-0.1,0.3-0.2,0.5c-0.1,0.1-0.3,0.3-0.5,0.4
	c0.1,0.1,0.2,0.1,0.4,0.3l0.9,0.6c0.3,0.2,0.4,0.3,0.4,0.3s0,0,0.1,0s0.1,0,0.2-0.1l0.1,0.2c-0.1,0-0.2,0.1-0.3,0.1
	c-0.1,0-0.2,0.1-0.3,0.1c-0.1-0.1-0.4-0.3-0.8-0.5c-0.2-0.1-0.4-0.3-0.5-0.4c-0.3-0.2-0.5-0.3-0.7-0.4v-0.1c0.1,0,0.1-0.1,0.2-0.1
	c0.3-0.1,0.5-0.3,0.6-0.4c0.1-0.2,0.1-0.4,0-0.6s-0.2-0.3-0.4-0.4c-0.2-0.1-0.4-0.1-0.7,0c-0.2,0.1-0.3,0.1-0.5,0.3
	c0,0.1,0.1,0.2,0.1,0.3c0,0,0.1,0.3,0.2,0.7l0.4,1.1c0.1,0.2,0.1,0.5,0.2,0.7c0.1,0.1,0.1,0.3,0.1,0.3h0.1c0,0,0.2,0,0.4-0.1
	l0.1,0.2c-0.2,0.1-0.5,0.1-0.7,0.2s-0.4,0.1-0.8,0.3l-0.1-0.2c0.2-0.1,0.3-0.1,0.3-0.1l0.1-0.1c0,0,0-0.1-0.1-0.3
	c0,0-0.1-0.3-0.2-0.7l-0.4-1.2c-0.1-0.2-0.1-0.5-0.2-0.7c-0.1-0.1-0.1-0.3-0.1-0.3h-0.1C77.8,109.1,77.7,109.1,77.5,109.2z"/>
<path fill="none" stroke="#000000" stroke-width="0.25" d="M77.5,109.2l-0.1-0.2c0.1,0,0.2-0.1,0.3-0.1l0.5-0.1
	c0.1,0,0.2-0.1,0.4-0.2c0.3-0.1,0.4-0.1,0.4-0.2c0.3-0.1,0.5-0.1,0.7-0.1s0.3,0.1,0.4,0.2s0.2,0.2,0.3,0.4c0.1,0.1,0.1,0.3,0,0.5
	s-0.1,0.3-0.2,0.5c-0.1,0.1-0.3,0.3-0.5,0.4c0.1,0.1,0.2,0.1,0.4,0.3l0.9,0.6c0.3,0.2,0.4,0.3,0.4,0.3s0,0,0.1,0s0.1,0,0.2-0.1
	l0.1,0.2c-0.1,0-0.2,0.1-0.3,0.1c-0.1,0-0.2,0.1-0.3,0.1c-0.1-0.1-0.4-0.3-0.8-0.5c-0.2-0.1-0.4-0.3-0.5-0.4
	c-0.3-0.2-0.5-0.3-0.7-0.4v-0.1c0.1,0,0.1-0.1,0.2-0.1c0.3-0.1,0.5-0.3,0.6-0.4c0.1-0.2,0.1-0.4,0-0.6s-0.2-0.3-0.4-0.4
	c-0.2-0.1-0.4-0.1-0.7,0c-0.2,0.1-0.3,0.1-0.5,0.3c0,0.1,0.1,0.2,0.1,0.3c0,0,0.1,0.3,0.2,0.7l0.4,1.1c0.1,0.2,0.1,0.5,0.2,0.7
	c0.1,0.1,0.1,0.3,0.1,0.3h0.1c0,0,0.2,0,0.4-0.1l0.1,0.2c-0.2,0.1-0.5,0.1-0.7,0.2s-0.4,0.1-0.8,0.3l-0.1-0.2
	c0.2-0.1,0.3-0.1,0.3-0.1l0.1-0.1c0,0,0-0.1-0.1-0.3c0,0-0.1-0.3-0.2-0.7l-0.4-1.2c-0.1-0.2-0.1-0.5-0.2-0.7
	c-0.1-0.1-0.1-0.3-0.1-0.3h-0.1C77.8,109.1,77.7,109.1,77.5,109.2z"/>
<path d="M82.6,111.3l-0.1-0.2c0.2-0.1,0.3-0.1,0.3-0.2s0,0,0-0.1s0-0.1-0.1-0.3c-0.1-0.2-0.1-0.4-0.2-0.6l-0.5-1.2
	c-0.1-0.2-0.2-0.4-0.3-0.6c-0.1-0.1-0.1-0.2-0.1-0.3s-0.1,0-0.1,0c-0.1,0-0.2,0-0.3,0.1l-0.1-0.2l0.7-0.3l0.7-0.3
	c0.3-0.1,0.6-0.3,0.8-0.3c0.2-0.1,0.3-0.1,0.5-0.1c0,0.1,0,0.2,0.1,0.3c0,0,0.1,0.2,0.2,0.5l-0.2,0.1c-0.1-0.2-0.1-0.3-0.2-0.4
	c-0.1,0-0.2,0-0.3,0.1c-0.2,0.1-0.4,0.1-0.5,0.2c0,0-0.1,0.1-0.3,0.1c-0.1,0.1-0.2,0.1-0.3,0.1c0.1,0.2,0.1,0.3,0.2,0.5l0.3,0.8
	c0.2-0.1,0.4-0.1,0.5-0.2c0.2-0.1,0.3-0.1,0.5-0.2c0.1,0,0.1-0.1,0.1-0.1s0-0.1-0.1-0.2l-0.1-0.2l0.1-0.1v0.1l0.2,0.5l0.2,0.6
	l-0.2,0.1l-0.1-0.2c-0.1-0.1-0.1-0.2-0.1-0.2h-0.1c-0.1,0-0.3,0.1-0.5,0.2c-0.1,0.1-0.3,0.1-0.5,0.2c0.1,0.2,0.1,0.4,0.3,0.7
	c0.1,0.3,0.2,0.5,0.3,0.7c0.2-0.1,0.5-0.2,0.8-0.3c0.2-0.1,0.3-0.1,0.4-0.2s0.1-0.1,0.2-0.2c0-0.1,0-0.1,0-0.2
	c0-0.2-0.1-0.3-0.1-0.3l0.2-0.1c0.1,0.3,0.2,0.6,0.3,0.8c-0.1,0.1-0.3,0.2-0.5,0.2l-1.5,0.6C83.2,111,83,111.1,82.6,111.3z"/>
<path fill="none" stroke="#000000" stroke-width="0.25" d="M82.6,111.3l-0.1-0.2c0.2-0.1,0.3-0.1,0.3-0.2s0,0,0-0.1s0-0.1-0.1-0.3
	c-0.1-0.2-0.1-0.4-0.2-0.6l-0.5-1.2c-0.1-0.2-0.2-0.4-0.3-0.6c-0.1-0.1-0.1-0.2-0.1-0.3s-0.1,0-0.1,0c-0.1,0-0.2,0-0.3,0.1l-0.1-0.2
	l0.7-0.3l0.7-0.3c0.3-0.1,0.6-0.3,0.8-0.3c0.2-0.1,0.3-0.1,0.5-0.1c0,0.1,0,0.2,0.1,0.3c0,0,0.1,0.2,0.2,0.5l-0.2,0.1
	c-0.1-0.2-0.1-0.3-0.2-0.4c-0.1,0-0.2,0-0.3,0.1c-0.2,0.1-0.4,0.1-0.5,0.2c0,0-0.1,0.1-0.3,0.1c-0.1,0.1-0.2,0.1-0.3,0.1
	c0.1,0.2,0.1,0.3,0.2,0.5l0.3,0.8c0.2-0.1,0.4-0.1,0.5-0.2c0.2-0.1,0.3-0.1,0.5-0.2c0.1,0,0.1-0.1,0.1-0.1s0-0.1-0.1-0.2l-0.1-0.2
	l0.1-0.1v0.1l0.2,0.5l0.2,0.6l-0.2,0.1l-0.1-0.2c-0.1-0.1-0.1-0.2-0.1-0.2h-0.1c-0.1,0-0.3,0.1-0.5,0.2c-0.1,0.1-0.3,0.1-0.5,0.2
	c0.1,0.2,0.1,0.4,0.3,0.7c0.1,0.3,0.2,0.5,0.3,0.7c0.2-0.1,0.5-0.2,0.8-0.3c0.2-0.1,0.3-0.1,0.4-0.2s0.1-0.1,0.2-0.2
	c0-0.1,0-0.1,0-0.2c0-0.2-0.1-0.3-0.1-0.3l0.2-0.1c0.1,0.3,0.2,0.6,0.3,0.8c-0.1,0.1-0.3,0.2-0.5,0.2l-1.5,0.6
	C83.2,111,83,111.1,82.6,111.3z"/>
<path d="M61.1,0.5c0,0.3-0.2,0.6-0.1,1c0.8,0.4,1.7,0.4,2.6,0.5c-1.8,1,0.8,1.6,0.6,2.6c-0.3,0.5,0.6,0.7,0.6,1.3
	C64.2,6.3,65,7.3,65,8c-0.2,0-0.3,0.2-0.4,0.3C64.8,8.6,65,9,65,9.5c-0.2-0.1-0.3,0.1-0.4,0.2c0,1,0.9,1.8,1.8,2.2L65,12.5
	c2.6,2.9,6.9,0.5,10.3,1.7c0.4-1,0-2.3,0.3-3.4c0.5-1.5,1.9-2.5,3.4-2.6c1,0.2,2.1,0.3,2.8,1.2l0.8,1.6l0.2,12.6l0.8,0.1
	c0.5,1.1-0.3,2-1.1,2.5c-0.7,0.2-1.7,0.5-2.3,0c-1.8-1.5-0.9-4.1-1.2-6.2l-0.1-4.3c-0.5-0.1-1,0.5-1.5,1c1.2,2.4,0.1,5.2-0.8,7.4
	c0,0.7-0.1,1.5,0.5,1.9c1.4,0.3,0.5,2.2,0.7,3.3c-2,1-3.9,2.9-4.9,4.9l4.9,1.3v1.2H50.1v-1c4.3-1.6,9-2.2,13.8-2.2l5.2-5.9v-0.9
	l-3.8-3.6c-2.9,0-6.2,0.4-8.3-2c-0.4,1.3-0.1,2.9,0.7,3.9l2,1.9c-0.5,0.8-1.3,1.5-1.9,2.3c-1.2-1.3-3.2-2.2-3.6-4.1l-0.5,0.3
	L50,22.3v-7.1l5.8-0.1l0.3-0.3l-0.1-6c-0.3-0.3-0.6-0.5-1-0.2c-1,0.6-0.7,1.8-1.8,2.5c-2.3-0.3,0.8-1.7-1.3-2.4
	c-0.5,0.7-1.2,0.7-1.6-0.1V7.4l3.6-4.2l-1-1.1c0.5-0.2,1.4,0,1.6-0.6l-0.2-1C56.5,1.9,58.9,0.7,61.1,0.5z"/>
<path fill="none" d="M61.1,0.5c0,0.3-0.2,0.6-0.1,1c0.8,0.4,1.7,0.4,2.6,0.5c-1.8,1,0.8,1.6,0.6,2.6c-0.3,0.5,0.6,0.7,0.6,1.3
	C64.2,6.3,65,7.3,65,8c-0.2,0-0.3,0.2-0.4,0.3C64.8,8.6,65,9,65,9.5c-0.2-0.1-0.3,0.1-0.4,0.2c0,1,0.9,1.8,1.8,2.2L65,12.5
	c2.6,2.9,6.9,0.5,10.3,1.7c0.4-1,0-2.3,0.3-3.4c0.5-1.5,1.9-2.5,3.4-2.6c1,0.2,2.1,0.3,2.8,1.2l0.8,1.6l0.2,12.6l0.8,0.1
	c0.5,1.1-0.3,2-1.1,2.5c-0.7,0.2-1.7,0.5-2.3,0c-1.8-1.5-0.9-4.1-1.2-6.2l-0.1-4.3c-0.5-0.1-1,0.5-1.5,1c1.2,2.4,0.1,5.2-0.8,7.4
	c0,0.7-0.1,1.5,0.5,1.9c1.4,0.3,0.5,2.2,0.7,3.3c-2,1-3.9,2.9-4.9,4.9l4.9,1.3v1.2H50.1v-1c4.3-1.6,9-2.2,13.8-2.2l5.2-5.9v-0.9
	l-3.8-3.6c-2.9,0-6.2,0.4-8.3-2c-0.4,1.3-0.1,2.9,0.7,3.9l2,1.9c-0.5,0.8-1.3,1.5-1.9,2.3c-1.2-1.3-3.2-2.2-3.6-4.1l-0.5,0.3
	L50,22.3v-7.1l5.8-0.1l0.3-0.3l-0.1-6c-0.3-0.3-0.6-0.5-1-0.2c-1,0.6-0.7,1.8-1.8,2.5c-2.3-0.3,0.8-1.7-1.3-2.4
	c-0.5,0.7-1.2,0.7-1.6-0.1V7.4l3.6-4.2l-1-1.1c0.5-0.2,1.4,0,1.6-0.6l-0.2-1C56.5,1.9,58.9,0.7,61.1,0.5z"/>
<path fill="#FFFFFF" d="M59,2.6c-0.3,1.1,1.1,0.8,1.6,1.5c2.1,1.9,2,4.7,2.1,7.5c2.1,4.3,7.4,3.4,11.5,3.5c0.8,0.5,1.5,0.5,2.2-0.1
	c0.3-2-0.6-5,2-5.7c1-0.3,2,0,2.6,0.6c0.5,0.5,0.9,1.1,0.8,1.8c-0.8-0.3-2-1.2-2.7-0.5c-0.3,1.2,1.2,0.7,1.6,1.2l1,1.3
	c0.4,3.6-0.1,7.2,0.1,10.6c-0.5-0.1-1.1-0.6-1.1-1.2l-0.1-8.9c-1.6-0.2-3.1,1-4.1,2.4c0.2,1.3,0.9,3.1,0.2,4.6
	c-0.5,1.6-2,3.7-0.4,5.3c1.2,0.3,0.4,1.4,0.6,2.1c-2.1,1.2-3.9,3.5-5.2,5.3l-1.4-0.3l4.5-5.2c0.4-0.7,0.1-1.6-0.3-2.2l-4.8-4.6
	c-3.7,0.3-8.6,1.6-11.1-2h-2.7c-0.5,2.5-0.2,5.4,2.1,6.9c0,0.3-0.3,0.5-0.5,0.7c-3.1-1.5-2.5-5-3.8-7.6c1.7-1,3.8-1.8,5.6-2.7V16
	c-1,0-1.8,0.8-2.8,1c0.1-0.7,0.5-1.5,1.2-1.8c0.6-0.5,2.2-0.1,1.6-1.6v-0.3c-0.6-0.1-1.4,0.1-2.1,0.4l-0.1-5.3
	c0.8-0.3,1.8-0.6,2.2-1.6c-0.1-0.5-0.6-0.5-0.9-1c-0.6,0.7-1.6,1.3-2.6,1c-1.1-1.3-1.6,1-2.4,1.3c-0.5-0.1-0.9-0.7-1.2-1
	c1-0.8,1.5-3,3.3-2.2c0.2-0.5-0.8-1.1-0.2-1.7C56.2,2.4,58.1,1.3,59,2.6z"/>
<path fill="none" d="M59,2.6c-0.3,1.1,1.1,0.8,1.6,1.5c2.1,1.9,2,4.7,2.1,7.5c2.1,4.3,7.4,3.4,11.5,3.5c0.8,0.5,1.5,0.5,2.2-0.1
	c0.3-2-0.6-5,2-5.7c1-0.3,2,0,2.6,0.6c0.5,0.5,0.9,1.1,0.8,1.8c-0.8-0.3-2-1.2-2.7-0.5c-0.3,1.2,1.2,0.7,1.6,1.2l1,1.3
	c0.4,3.6-0.1,7.2,0.1,10.6c-0.5-0.1-1.1-0.6-1.1-1.2l-0.1-8.9c-1.6-0.2-3.1,1-4.1,2.4c0.2,1.3,0.9,3.1,0.2,4.6
	c-0.5,1.6-2,3.7-0.4,5.3c1.2,0.3,0.4,1.4,0.6,2.1c-2.1,1.2-3.9,3.5-5.2,5.3l-1.4-0.3l4.5-5.2c0.4-0.7,0.1-1.6-0.3-2.2l-4.8-4.6
	c-3.7,0.3-8.6,1.6-11.1-2h-2.7c-0.5,2.5-0.2,5.4,2.1,6.9c0,0.3-0.3,0.5-0.5,0.7c-3.1-1.5-2.5-5-3.8-7.6c1.7-1,3.8-1.8,5.6-2.7V16
	c-1,0-1.8,0.8-2.8,1c0.1-0.7,0.5-1.5,1.2-1.8c0.6-0.5,2.2-0.1,1.6-1.6v-0.3c-0.6-0.1-1.4,0.1-2.1,0.4l-0.1-5.3
	c0.8-0.3,1.8-0.6,2.2-1.6c-0.1-0.5-0.6-0.5-0.9-1c-0.6,0.7-1.6,1.3-2.6,1c-1.1-1.3-1.6,1-2.4,1.3c-0.5-0.1-0.9-0.7-1.2-1
	c1-0.8,1.5-3,3.3-2.2c0.2-0.5-0.8-1.1-0.2-1.7C56.2,2.4,58.1,1.3,59,2.6z"/>
<path fill="#FFFFFF" d="M53.9,17.2c0.3,0.3,0.3,0.7,0.4,1c-0.6,0.3-2.1,0.5-1.6,1.5c0.3,0.8,0.5,1.6,0.7,2.5
	c-0.7,0.1-1.5-0.9-1.8-1.6c-0.3-1.2,0-2.4,0.4-3.5C52.6,17.3,53.2,16.9,53.9,17.2z"/>
<path fill="none" d="M53.9,17.2c0.3,0.3,0.3,0.7,0.4,1c-0.6,0.3-2.1,0.5-1.6,1.5c0.3,0.8,0.5,1.6,0.7,2.5c-0.7,0.1-1.5-0.9-1.8-1.6
	c-0.3-1.2,0-2.4,0.4-3.5C52.6,17.3,53.2,16.9,53.9,17.2z"/>
<path fill="#FFFFFF" d="M73.4,28.4l-4.6,5l-1.6-0.1c0.7-2,2.9-3.2,4.4-4.2c0.8-1.8-1.6-2.5-0.7-4.2C71.9,26,74.4,26.6,73.4,28.4z"/>
<path fill="none" d="M73.4,28.4l-4.6,5l-1.6-0.1c0.7-2,2.9-3.2,4.4-4.2c0.8-1.8-1.6-2.5-0.7-4.2C71.9,26,74.4,26.6,73.4,28.4z"/>
<path fill="#FFFFFF" d="M67.7,35.5c-1.2,0-2.7,0.6-3.6-0.7l-0.2-0.5C65.3,34.4,67.2,33.6,67.7,35.5z"/>
<path fill="#CA3827" d="M67.7,35.5c-1.2,0-2.7,0.6-3.6-0.7l-0.2-0.5C65.3,34.4,67.2,33.6,67.7,35.5z"/>
<path fill="#FFFFFF" d="M62.7,35.3c-0.3,0.3-1.9,0.3-2.8,0.1l-0.8-0.8C60.3,34.6,62,33.6,62.7,35.3z"/>
<path fill="#FFCD08" d="M62.7,35.3c-0.3,0.3-1.9,0.3-2.8,0.1l-0.8-0.8C60.3,34.6,62,33.6,62.7,35.3z"/>
<path fill="#FFFFFF" d="M73.3,35.3c-1.4-0.1-3.3,0.9-4.1-0.8C70.6,34.6,72,34.9,73.3,35.3z"/>
<path fill="#FFCD08" d="M73.3,35.3c-1.4-0.1-3.3,0.9-4.1-0.8C70.6,34.6,72,34.9,73.3,35.3z"/>
<path fill="#FFFFFF" d="M57.7,35.3L57.7,35.3c-1,0.2-2.2,0.3-3.1,0C55.5,35.2,56.8,34.2,57.7,35.3z"/>
<path fill="#CA3827" d="M57.7,35.3L57.7,35.3c-1,0.2-2.2,0.3-3.1,0C55.5,35.2,56.8,34.2,57.7,35.3z"/>
<path d="M85.3,72.7c-0.5,11.2-8.2,21.1-17.9,26.7l-2.8,1.3c-7.5-2.8-15.7-9.4-18.9-17.1c-1.6-3.9-2.5-8.2-2.8-12.6l-1.4-28.4l-0.2-4
	l45.9-0.2L85.3,72.7z"/>
<path fill="none" d="M85.3,72.7c-0.5,11.2-8.2,21.1-17.9,26.7l-2.8,1.3c-7.5-2.8-15.7-9.4-18.9-17.1c-1.6-3.9-2.5-8.2-2.8-12.6
	l-1.4-28.4l-0.2-4l45.9-0.2L85.3,72.7z"/>
<path fill="#FFFFFF" d="M84.5,62.2H65v-22c6.5-0.4,13.8-0.1,20.6-0.2L84.5,62.2z"/>
<path fill="#FFCD08" d="M84.5,62.2H65v-22c6.5-0.4,13.8-0.1,20.6-0.2L84.5,62.2z"/>
<path fill="#FFFFFF" d="M63.3,62.2H43.7l-1.2-22c6.4,0,13.7-0.3,20.7-0.2L63.3,62.2z"/>
<path fill="none" d="M63.3,62.2H43.7l-1.2-22c6.4,0,13.7-0.3,20.7-0.2L63.3,62.2z"/>
<path d="M75.8,42.1c0,0.5-0.2,1-0.6,1.2c-0.5,0.1-0.9-0.1-1.3-0.5c-0.3-0.5,0-1.1,0.5-1.4C75.1,41.3,75.7,41.5,75.8,42.1z"/>
<path fill="none" d="M75.8,42.1c0,0.5-0.2,1-0.6,1.2c-0.5,0.1-0.9-0.1-1.3-0.5c-0.3-0.5,0-1.1,0.5-1.4
	C75.1,41.3,75.7,41.5,75.8,42.1z"/>
<path d="M53.3,43.6c0.9-0.7,2.2-1.1,3.3-0.6c1,0.6,2.5,1.2,3.7,0.5c0.1,0.7,0.2,1.9,1.4,1.6v13.7l-7.9,0.1c-0.4,0.4-0.1,1.1-0.2,1.7
	h-2.1c-0.3-0.5,0.2-1.4-0.4-1.7h-6.4V45.1c0.4-0.1,1,0.3,1.2-0.3v-1.2C48.5,44.9,50.9,41.2,53.3,43.6z"/>
<path fill="none" d="M53.3,43.6c0.9-0.7,2.2-1.1,3.3-0.6c1,0.6,2.5,1.2,3.7,0.5c0.1,0.7,0.2,1.9,1.4,1.6v13.7l-7.9,0.1
	c-0.4,0.4-0.1,1.1-0.2,1.7h-2.1c-0.3-0.5,0.2-1.4-0.4-1.7h-6.4V45.1c0.4-0.1,1,0.3,1.2-0.3v-1.2C48.5,44.9,50.9,41.2,53.3,43.6z"/>
<path d="M77.4,43.8c0.6,0.8,1.7,1,2.5,1.6c2.4,2,3.6,4.7,3.1,7.8c-0.3,2.8-2.7,5.4-5.3,6.4c-2.6,0.9-5.6,0.3-7.7-1.3
	c-2.3-2-3.4-4.7-3-7.7c0.2-2.7,2.4-5.4,5-6.3c0.2-1,1.6-0.3,2.4-0.6L77.4,43.8z"/>
<path fill="none" d="M77.4,43.8c0.6,0.8,1.7,1,2.5,1.6c2.4,2,3.6,4.7,3.1,7.8c-0.3,2.8-2.7,5.4-5.3,6.4c-2.6,0.9-5.6,0.3-7.7-1.3
	c-2.3-2-3.4-4.7-3-7.7c0.2-2.7,2.4-5.4,5-6.3c0.2-1,1.6-0.3,2.4-0.6L77.4,43.8z"/>
<path fill="#FFFFFF" d="M50.8,44c0.2,4.6,0.1,7.5,0.1,12.3l-4.1,1.1v-12C48.4,45.4,49.3,43.8,50.8,44z"/>
<path fill="none" d="M50.8,44c0.2,4.6,0.1,7.5,0.1,12.3l-4.1,1.1v-12C48.4,45.4,49.3,43.8,50.8,44z"/>
<path fill="#FFFFFF" d="M59.3,45.2v12.1c-1.8,0.1-3.2-1.7-5.2-0.7V44.7c0.6-0.7,1.8-0.7,2.6-0.4C57.5,44.7,58.3,45.4,59.3,45.2z"/>
<path fill="none" d="M59.3,45.2v12.1c-1.8,0.1-3.2-1.7-5.2-0.7V44.7c0.6-0.7,1.8-0.7,2.6-0.4C57.5,44.7,58.3,45.4,59.3,45.2z"/>
<path fill="#FFFFFF" d="M53.1,44.8v13.7h-1V44.3C52.4,44.4,52.9,44.4,53.1,44.8z"/>
<path fill="#CA3827" d="M53.1,44.8v13.7h-1V44.3C52.4,44.4,52.9,44.4,53.1,44.8z"/>
<path fill="#FFCD08" d="M76.1,46.4c0.2,1-0.8,1.9-1.5,2.7L73,46.6C73.9,46.2,75.2,46,76.1,46.4z"/>
<path fill="none" d="M76.1,46.4c0.2,1-0.8,1.9-1.5,2.7L73,46.6C73.9,46.2,75.2,46,76.1,46.4z"/>
<path fill="#CA3827" d="M79.6,46.4L76,50.7c0.2,0.5,0.6,1.4,0,2l-4.1,4.7h-1.4v-0.3l3.6-4.2c-0.3-0.5-0.5-1.3-0.1-1.8l4.2-4.7
	C78.7,46.4,79.2,46.3,79.6,46.4z"/>
<path fill="none" d="M79.6,46.4L76,50.7c0.2,0.5,0.6,1.4,0,2l-4.1,4.7h-1.4v-0.3l3.6-4.2c-0.3-0.5-0.5-1.3-0.1-1.8l4.2-4.7
	C78.7,46.4,79.2,46.3,79.6,46.4z"/>
<path d="M73.9,49.9c-0.4,1.3-1.6,0.9-2.4,0.4c-0.5-0.4-1-0.6-1.4-1.1c0-1,1.1-1.7,1.8-2.2C73,47.6,73.7,48.7,73.9,49.9z"/>
<path fill="none" d="M73.9,49.9c-0.4,1.3-1.6,0.9-2.4,0.4c-0.5-0.4-1-0.6-1.4-1.1c0-1,1.1-1.7,1.8-2.2C73,47.6,73.7,48.7,73.9,49.9z
	"/>
<path fill="#FFFFFF" d="M79.8,48.7c-0.5,1-1.6,1.7-2.7,2l2.1-2.5C79.6,48.1,79.5,48.6,79.8,48.7z"/>
<path d="M79.8,48.7c-0.5,1-1.6,1.7-2.7,2l2.1-2.5C79.6,48.1,79.5,48.6,79.8,48.7z"/>
<path fill="#FFFFFF" d="M80.3,53.7c-1-0.7-2-1.5-3.1-1.8v-0.3c1.1-0.3,2.1-1,3-1.8C80.8,50.8,81,52.7,80.3,53.7z"/>
<path fill="#FFCD08" d="M80.3,53.7c-1-0.7-2-1.5-3.1-1.8v-0.3c1.1-0.3,2.1-1,3-1.8C80.8,50.8,81,52.7,80.3,53.7z"/>
<path fill="#FFCD08" d="M72.9,51.7c-0.4,0.6-1.4,0.7-2.1,1.2l-1,0.9c-0.5-1.1-0.8-2.8-0.1-3.9C70.7,50.7,71.8,51.5,72.9,51.7z"/>
<path fill="none" d="M72.9,51.7c-0.4,0.6-1.4,0.7-2.1,1.2l-1,0.9c-0.5-1.1-0.8-2.8-0.1-3.9C70.7,50.7,71.8,51.5,72.9,51.7z"/>
<path fill="#FFFFFF" d="M79.9,54.7c0,0.5-0.4,0.9-0.8,1.2c-1-0.8-2-1.5-3.2-1.8l1-1.2C78,53.2,79,53.8,79.9,54.7z"/>
<path d="M79.9,54.7c0,0.5-0.4,0.9-0.8,1.2c-1-0.8-2-1.5-3.2-1.8l1-1.2C78,53.2,79,53.8,79.9,54.7z"/>
<path fill="#FFFFFF" d="M72.8,53.1c-0.6,0.8-1.4,1.8-2.2,2.4c-0.1-0.3-0.5-0.5-0.3-0.8C71.1,54,71.8,53.2,72.8,53.1z"/>
<path d="M72.8,53.1c-0.6,0.8-1.4,1.8-2.2,2.4c-0.1-0.3-0.5-0.5-0.3-0.8C71.1,54,71.8,53.2,72.8,53.1z"/>
<path fill="#FFCD08" d="M78.1,56.5c-1.2,0.9-3.1,1.4-4.8,0.7c0.3-0.7,1.1-1.5,1.6-2.2C76.2,55.1,77.5,55.5,78.1,56.5z"/>
<path fill="none" d="M78.1,56.5c-1.2,0.9-3.1,1.4-4.8,0.7c0.3-0.7,1.1-1.5,1.6-2.2C76.2,55.1,77.5,55.5,78.1,56.5z"/>
<path fill="#CA3827" d="M84.5,63.7c-0.1,11.1-1.9,22-10.8,29.3c-2.9,2.7-6,4.6-9.2,6.2c-6.3-2.4-12.5-7.6-16.2-13.5
	c-3.5-6.5-4.4-14-4.4-21.8C57.4,63.7,70.7,63.6,84.5,63.7z"/>
<path fill="none" d="M84.5,63.7c-0.1,11.1-1.9,22-10.8,29.3c-2.9,2.7-6,4.6-9.2,6.2c-6.3-2.4-12.5-7.6-16.2-13.5
	c-3.5-6.5-4.4-14-4.4-21.8C57.4,63.7,70.7,63.6,84.5,63.7z"/>
<path d="M82.2,66.7c0.3,2-2.1,0.3-2.7,1.7c-2,2.3-0.4,6.1-1.3,8.8c-1.3,3.7-4.6,7-8,9.1c-0.3,1.3-1,2.7-2.3,3.3
	c-0.9,0.3-2.7,0.3-1.8,2c0.3,0.5,0.5,1,1,1.5c-2.6,0.4-5-0.4-6.7-2.5c-0.3-0.5-0.6-1-1-1.4c-1,0.4-1.4,1.6-2.3,2
	c-2-0.6-2-5.1-4.6-2.7h-0.2c-0.3-1.5-0.1-3,0.2-4.5c-0.4-0.4-1-0.3-1.6-0.3l0.7-2.2c-1.3-2.4-1.1-5.8-0.1-8.2c1.7-3.5,5.3-5.7,9-5.4
	c2.9,0.2,5.4,1.8,7.3,4.3c0.8,0.6,0.4,2.8,2,2.2c2.1-1.5,2.9-3.9,4.8-5.7c1.3-1.2,2.4-3.1,4.2-3.2C80.1,65.4,81.3,65.7,82.2,66.7z"
	/>
<path fill="none" d="M82.2,66.7c0.3,2-2.1,0.3-2.7,1.7c-2,2.3-0.4,6.1-1.3,8.8c-1.3,3.7-4.6,7-8,9.1c-0.3,1.3-1,2.7-2.3,3.3
	c-0.9,0.3-2.7,0.3-1.8,2c0.3,0.5,0.5,1,1,1.5c-2.6,0.4-5-0.4-6.7-2.5c-0.3-0.5-0.6-1-1-1.4c-1,0.4-1.4,1.6-2.3,2
	c-2-0.6-2-5.1-4.6-2.7h-0.2c-0.3-1.5-0.1-3,0.2-4.5c-0.4-0.4-1-0.3-1.6-0.3l0.7-2.2c-1.3-2.4-1.1-5.8-0.1-8.2c1.7-3.5,5.3-5.7,9-5.4
	c2.9,0.2,5.4,1.8,7.3,4.3c0.8,0.6,0.4,2.8,2,2.2c2.1-1.5,2.9-3.9,4.8-5.7c1.3-1.2,2.4-3.1,4.2-3.2C80.1,65.4,81.3,65.7,82.2,66.7z"
	/>
<path fill="#FFCD08" d="M80.3,66.7c-5,2.2-1.3,8.3-3.7,11.9c-1.5,2.5-3.9,5.1-6.5,6.4c-0.2-1.1-1.2-2.1-2.2-2.6c1.3-2,1.6-4.6,1.4-7
	c2.2-0.6,2.9-3,4.4-4.5C75.6,69.3,77.2,65,80.3,66.7z"/>
<path fill="none" d="M80.3,66.7c-5,2.2-1.3,8.3-3.7,11.9c-1.5,2.5-3.9,5.1-6.5,6.4c-0.2-1.1-1.2-2.1-2.2-2.6c1.3-2,1.6-4.6,1.4-7
	c2.2-0.6,2.9-3,4.4-4.5C75.6,69.3,77.2,65,80.3,66.7z"/>
<path fill="#FFFFFF" d="M66.1,71.6c2,2,2.4,5.1,1.8,7.8c-0.3,0.7-0.5,1.5-1,2.2c-2-0.8,0.6-2.2,0.3-3.5c0.2-1.3-0.2-3-1-4.2
	c-1.5-1.8-3.7-2.6-6-1.9c-1,0.5-2.1,1-2.8,2.1c1,1.8,1.3-0.8,2.4-0.7c1.2-0.6,3-0.7,4.2,0.1c-2,0.3-4.1,2.2-4.4,4.3
	c-0.9,1.1-1.3-0.8-2.1-0.7c-0.9-0.4-2-0.2-2.8,0.2c-1.4,0.7-1.2,2.4-2.3,3.1c-1.1-2.5-0.7-5.8,0.8-7.9c2.1-2.8,5.4-4.1,9-3.3
	C63.6,69.6,65.1,70.5,66.1,71.6z"/>
<path fill="none" d="M66.1,71.6c2,2,2.4,5.1,1.8,7.8c-0.3,0.7-0.5,1.5-1,2.2c-2-0.8,0.6-2.2,0.3-3.5c0.2-1.3-0.2-3-1-4.2
	c-1.5-1.8-3.7-2.6-6-1.9c-1,0.5-2.1,1-2.8,2.1c1,1.8,1.3-0.8,2.4-0.7c1.2-0.6,3-0.7,4.2,0.1c-2,0.3-4.1,2.2-4.4,4.3
	c-0.9,1.1-1.3-0.8-2.1-0.7c-0.9-0.4-2-0.2-2.8,0.2c-1.4,0.7-1.2,2.4-2.3,3.1c-1.1-2.5-0.7-5.8,0.8-7.9c2.1-2.8,5.4-4.1,9-3.3
	C63.6,69.6,65.1,70.5,66.1,71.6z"/>
<path fill="#FFFFFF" d="M66.1,75.9c0.1,0.3,0.1,0.8,0.1,1.3c-1.6-0.1-2.8,2-4.2,0.2l-1-0.1c0.2-1.3,1.6-2.3,2.9-2.6
	C65,74.5,65.8,74.9,66.1,75.9z"/>
<path fill="none" d="M66.1,75.9c0.1,0.3,0.1,0.8,0.1,1.3c-1.6-0.1-2.8,2-4.2,0.2l-1-0.1c0.2-1.3,1.6-2.3,2.9-2.6
	C65,74.5,65.8,74.9,66.1,75.9z"/>
<path fill="#FFFFFF" d="M58.3,79.1c0.3,0.8,0,1.6-0.4,2.2c-0.5,0.7-1.4,0.8-2.2,0.7c-0.8-0.1-1.3-0.9-1.6-1.6
	c-0.1-0.8,0.1-1.5,0.6-2.1c0.4-0.3,0.9-0.6,1.5-0.6C57.1,77.9,57.9,78.3,58.3,79.1z"/>
<path fill="#CA3827" d="M58.3,79.1c0.3,0.8,0,1.6-0.4,2.2c-0.5,0.7-1.4,0.8-2.2,0.7c-0.8-0.1-1.3-0.9-1.6-1.6
	c-0.1-0.8,0.1-1.5,0.6-2.1c0.4-0.3,0.9-0.6,1.5-0.6C57.1,77.9,57.9,78.3,58.3,79.1z"/>
<path fill="#CA3827" d="M62.9,79.1c-0.3,1.5-2.4,1.3-3,2.8c-1.4-0.3,0-2-0.4-3c0.6-0.6,1.7-0.6,2.5-0.4
	C62.2,78.8,62.7,78.7,62.9,79.1z"/>
<path fill="none" d="M62.9,79.1c-0.3,1.5-2.4,1.3-3,2.8c-1.4-0.3,0-2-0.4-3c0.6-0.6,1.7-0.6,2.5-0.4C62.2,78.8,62.7,78.7,62.9,79.1z
	"/>
<path fill="#CA3827" d="M65.6,82c-1.1,0.4-2.5,1.2-3.1,2.5l-0.4,2.1c-1-0.3-1.4-1.4-1.7-2.2c0.1-1,0.3-2,1-2.7
	c0.9-0.6,2.1-1,3.1-0.5C65,81.5,65.3,81.6,65.6,82z"/>
<path fill="none" d="M65.6,82c-1.1,0.4-2.5,1.2-3.1,2.5l-0.4,2.1c-1-0.3-1.4-1.4-1.7-2.2c0.1-1,0.3-2,1-2.7c0.9-0.6,2.1-1,3.1-0.5
	C65,81.5,65.3,81.6,65.6,82z"/>
<path fill="#FFFFFF" d="M54.9,83c-0.4,0.5-0.6,1.4-0.2,2c0.4,0.7,1.2,0.6,1.8,0.5c0.3-0.4,0.6-0.1,1,0c0,0.6-0.6,1.7,0.1,2.4
	c1.1,0.4,0.1,1.1-0.2,1.6c-0.8,0.2-1.2-1-1.7-1.5L55,86.4c-0.5,0.2-1,0.4-1.6,0.6c-0.1-1.5,0.1-3.2,0.6-4.6
	C54.4,82.3,54.5,82.9,54.9,83z"/>
<path fill="none" d="M54.9,83c-0.4,0.5-0.6,1.4-0.2,2c0.4,0.7,1.2,0.6,1.8,0.5c0.3-0.4,0.6-0.1,1,0c0,0.6-0.6,1.7,0.1,2.4
	c1.1,0.4,0.1,1.1-0.2,1.6c-0.8,0.2-1.2-1-1.7-1.5L55,86.4c-0.5,0.2-1,0.4-1.6,0.6c-0.1-1.5,0.1-3.2,0.6-4.6
	C54.4,82.3,54.5,82.9,54.9,83z"/>
<path fill="#CA3827" d="M68.8,84.8c0.3,1,0.4,2-0.1,2.8c-0.5,0.9-1.4,1.2-2.3,1.4c-0.9,0-1.8-0.2-2.4-0.9c-0.8-0.8-0.7-2.1-0.4-3
	c0.4-1,1.5-1.6,2.5-1.8C67.1,83.3,68.2,83.9,68.8,84.8z"/>
<path fill="none" d="M68.8,84.8c0.3,1,0.4,2-0.1,2.8c-0.5,0.9-1.4,1.2-2.3,1.4c-0.9,0-1.8-0.2-2.4-0.9c-0.8-0.8-0.7-2.1-0.4-3
	c0.4-1,1.5-1.6,2.5-1.8C67.1,83.3,68.2,83.9,68.8,84.8z"/>
<path fill="#FFFFFF" d="M63,90.5c0.1-0.5-0.1-1.2-0.2-1.8L65,90c-0.1,0.8,0,1.5,0.3,2.2c-2.1-0.2-4.2-1.5-5-3.5
	c-0.4-0.5,0.4-0.7,0.6-1.1C61.4,88.6,62,89.8,63,90.5z"/>
<path fill="none" d="M63,90.5c0.1-0.5-0.1-1.2-0.2-1.8L65,90c-0.1,0.8,0,1.5,0.3,2.2c-2.1-0.2-4.2-1.5-5-3.5
	c-0.4-0.5,0.4-0.7,0.6-1.1C61.4,88.6,62,89.8,63,90.5z"/>
<g>
	<g>
		<path d="M72.1,99.2"/>
		<path d="M64.2,115.6c-7.9,0-17-3.3-17.1-3.3c-0.6-0.3-3.1-1.5-4.9-1.5c-0.4,0-0.7,0.1-1,0.2c-0.2-4.4-0.1-5.7-0.1-5.9
			c0.1-0.2,0.2-0.3,0.4-0.3c1-0.4,3.5,0.8,4.7,1.4l0.6,0.3c3.7,1.7,9,3.5,17.5,3.5h0c8.5,0,13.8-1.9,17.5-3.5l0.6-0.3
			c1.2-0.6,3.7-1.8,4.7-1.4c0.2,0.1,0.3,0.2,0.3,0.3c0.1,0.2,0.1,1.5-0.1,5.9c-0.3-0.1-0.6-0.2-1-0.2c-1.8,0-4.3,1.2-4.9,1.5
			c0,0-9.2,3.3-17.1,3.3 M64.4,116.6c8.1,0,17.4-3.4,17.5-3.4c1.7-0.8,4.4-1.8,5.2-1.3c0.1,0.1,0.2,0.2,0.2,0.5h0.4l0,0.4
			c7.1,0.1,22.2,4.9,23.1,7.4c0,0,0,0,0,0.1c-0.1,0.1-0.2,0.3-0.3,0.4l0.2,0.2l-0.1,0.1c3.1,3,14.1,6.7,15,6.4l0.4-0.4
			c0-0.1,0-0.3-0.2-0.6c-1.3-1.2-3.3-3.3-3.7-4.1c1.1-0.3,4.3-1.2,4.2-2.1c0-0.2-0.1-0.5-0.7-0.6c-2.7-0.4-6-1.6-10.1-3.6
			c0-0.1,0.1-0.1,0.1-0.2c0.2-0.7,0-1.4-0.5-2.1c-3.4-4.5-22.3-9-26.8-9c0,0,0-0.1,0-0.1c-0.2-0.4-0.5-0.7-0.9-0.9
			c-1.3-0.5-3.5,0.5-5.5,1.5l-0.5,0.3c-3.6,1.6-8.7,3.5-17.1,3.5c-8.3,0-13.5-1.9-17.1-3.5l-0.5-0.3c-2-1-4.2-1.9-5.5-1.5
			c-0.4,0.2-0.8,0.5-0.9,0.9c0,0,0,0.1,0,0.1c-4.5,0-23.3,4.6-26.8,9c-0.5,0.7-0.7,1.4-0.5,2.1c0,0.1,0,0.1,0.1,0.2
			c-4,2-7.4,3.2-10.1,3.6c-0.6,0.1-0.7,0.5-0.7,0.6c0,0.9,3.1,1.8,4.2,2.1c-0.4,0.8-2.4,2.9-3.7,4.1c-0.3,0.2-0.3,0.4-0.2,0.6
			l0.4,0.4c0.9,0.3,11.9-3.5,15-6.4l-0.1-0.1l0.2-0.2c-0.1-0.1-0.2-0.3-0.3-0.4c0,0,0,0,0-0.1c0.9-2.5,16-7.3,23.1-7.4l0-0.4h0.4
			c0-0.3,0.1-0.4,0.2-0.5c0.8-0.5,3.5,0.4,5.2,1.3c0.1,0,9.4,3.4,17.5,3.4 M4.6,126c1.3-1.3,3.1-3.2,2.9-4.1
			c-0.1-0.3-0.3-0.5-0.6-0.5c-0.8-0.2-2.1-0.6-2.9-1c1.5-0.3,4.6-1.1,9.6-3.6c0.2,0.2,0.5,0.5,0.7,0.7c0.7,0.7,1.6,1.5,2.5,2.9
			c0,0,0,0.1,0,0.1C14,122.8,7.6,125.1,4.6,126z M40.2,111.8c-6.5,0.3-20.6,4.4-23.1,7.5c-0.8-1.1-1.6-1.8-2.2-2.4
			c-0.6-0.5-1-0.9-1.1-1.3c-0.1-0.4,0-0.8,0.4-1.2c3.2-4.1,21.4-8.5,25.9-8.6C40,106.7,40.1,108.5,40.2,111.8L40.2,111.8z
			 M88.3,111.8L88.3,111.8c0.2-3.3,0.2-5.1,0.2-6.1c4.4,0.1,22.7,4.5,25.9,8.6c0.4,0.4,0.5,0.8,0.4,1.2c-0.1,0.4-0.5,0.8-1.1,1.3
			c-0.6,0.6-1.4,1.3-2.2,2.4C108.9,116.2,94.7,112.1,88.3,111.8z M121.6,121.4c-0.3,0.1-0.5,0.2-0.6,0.5c-0.2,0.9,1.6,2.9,2.9,4.1
			c-3-0.9-9.4-3.2-12.2-5.4c0,0,0,0,0-0.1c0.9-1.4,1.8-2.2,2.5-2.9c0.3-0.3,0.5-0.5,0.7-0.7c5,2.5,8,3.3,9.6,3.6
			C123.7,120.8,122.4,121.2,121.6,121.4z"/>
	</g>
</g>
</svg>
