<svg xmlns="http://www.w3.org/2000/svg" viewBox="0 0 128 128"><path d="M23 64.8V19.1c0-6.2 3.8-10 10-10h45.7c3.3 0 6 1.2 8.2 3.7 5.6 6.2 11.2 12.3 16.9 18.5 2 2.1 2.9 4.6 2.9 7.4v72.1c0 4-1.6 7.1-5.2 8.8-1.3.6-2.9.9-4.3 1-17.4.1-34.8 0-52.1 0h-12c-6 0-9.9-3.9-9.9-9.9-.2-15.3-.2-30.6-.2-45.9zm6.3 0v46c0 2.2 1 3.2 3.2 3.3h64.4c2.3 0 3.4-1.1 3.4-3.4V42.3c0-1-.3-1.4-1.3-1.4H81.4c-3.3 0-4.5-1.1-4.5-4.4V16.7c0-1.2-.4-1.6-1.5-1.5-2.6.1-5.3 0-7.9 0H41c-2.9 0-5.9 0-8.8.1-1.8.1-2.7 1.1-2.9 2.9v46.6zm55.6-45.6c-.3-.4-1-.1-1 .4v13.3c0 1.1.3 1.2 1.3 1.2h11.9c.5 0 .7-.5.4-.9l-12.6-14z"/><path d="M75 96.7c.5-1.6.8-2.9 1.3-4.2 1.3-3.7 2.5-7.4 3.9-11.1.1-.3.5-.7.8-.7 1.9-.1 3.8 0 5.8 0-.1.4-.2.8-.3 1-2.7 7.3-5.5 14.5-8.1 21.8-.3.8-.6 1-1.4 1-1.4-.1-2.8.1-4.2 0-.4 0-1.1-.4-1.2-.7-3-7.7-5.8-15.3-8.6-22.8v-.3h6.1c.2 0 .5.5.7.9 1.6 4.7 3.2 9.4 4.8 14 .1.3.2.6.4 1.1zm-13.9-16c-.2 1.9-.4 3.5-.6 5.3-1.1-.2-2.2-.4-3.2-.6-3.3-.5-5.9 1-6.5 4.3-.4 1.8-.4 3.7-.1 5.5.5 3.2 3.2 4.9 6.6 4.4 1.1-.2 2.2-.5 3.4-.8.2 1.6.3 3.2.5 5-4.8 1.2-9.5 2-13.8-1.3-1.9-1.4-2.7-3.5-3.1-5.7-.6-3.2-.5-6.3.7-9.4 1.8-4.8 5.4-7 10.4-7.1 1.9 0 3.7.3 5.7.4z"/></svg>